<svg width="48" height="48" viewBox="0 0 48 48" fill="none" xmlns="http://www.w3.org/2000/svg">
<path d="M15.6123 24.0559C15.6123 24.0377 15.6123 24.0188 15.6123 24H10C10 24.028 10 24.0559 10 24.0845C10.0341 27.723 11.5035 31.2009 14.0885 33.7618C16.6735 36.3227 20.165 37.7593 23.8037 37.7593C27.4424 37.7593 30.934 36.3227 33.519 33.7618C36.104 31.2009 37.5733 27.723 37.6075 24.0845C37.6075 24.0559 37.6075 24.028 37.6075 24H31.9393C31.9393 24.0188 31.9393 24.0377 31.9393 24.0559C31.9207 26.2087 31.0525 28.2671 29.5236 29.7828C27.9947 31.2985 25.929 32.149 23.7761 32.149C21.6232 32.149 19.5575 31.2985 18.0286 29.7828C16.4997 28.2671 15.6315 26.2087 15.6129 24.0559H15.6123Z" fill="#2D2659"/>
<path d="M30.3464 15.7995L26.5445 12L26.5068 12.0383C25.7883 12.7624 24.9343 13.3378 23.9934 13.7318C23.0525 14.1258 22.0432 14.3306 21.0232 14.3345C20.0032 14.3384 18.9924 14.1413 18.0485 13.7545C17.1046 13.3677 16.2462 12.7988 15.5222 12.0802C15.5095 12.0681 15.4973 12.0547 15.4852 12.0419L11.6973 15.8347C11.7161 15.8542 11.7343 15.8736 11.7532 15.8955C14.2259 18.349 17.5719 19.7197 21.0552 19.7063C24.5385 19.6928 27.8738 18.2963 30.3275 15.8238L30.3464 15.8043V15.7995Z" fill="#86C4EB"/>
<rect x="2" y="2" width="44" height="44" rx="22" stroke="#86C4EB" stroke-width="4"/>
</svg>
