<svg width="20" height="20" viewBox="0 0 20 20" fill="none" xmlns="http://www.w3.org/2000/svg">
<path d="M15.831 1.66374H15.0005V0.833257C15.0005 0.612264 14.9127 0.40032 14.7564 0.244054C14.6002 0.0877875 14.3882 0 14.1672 0C13.9462 0 13.7343 0.0877875 13.578 0.244054C13.4217 0.40032 13.3339 0.612264 13.3339 0.833257V1.66374H6.6642V0.833257C6.6642 0.612264 6.57642 0.40032 6.42016 0.244054C6.26389 0.0877875 6.05195 0 5.83096 0C5.60996 0 5.39802 0.0877875 5.24175 0.244054C5.08549 0.40032 4.99768 0.612264 4.99768 0.833257V1.66374H4.1672C3.0626 1.6652 2.00364 2.1046 1.22248 2.88558C0.441319 3.66657 0.00170894 4.72542 0 5.83003V15.83C0.00146539 16.9347 0.441013 17.9937 1.22222 18.7747C2.00344 19.5558 3.06252 19.9951 4.1672 19.9963H15.8337C16.9382 19.9949 17.9971 19.5554 18.7781 18.7744C19.5591 17.9934 19.9985 16.9346 20 15.83V5.83095C19.9985 4.72587 19.5588 3.66649 18.7772 2.88525C17.9956 2.10401 16.9361 1.66472 15.831 1.66374ZM1.66283 5.83095C1.66307 5.16805 1.92651 4.53236 2.39525 4.06361C2.864 3.59487 3.49968 3.33143 4.16258 3.33118H15.8291C16.492 3.33143 17.1277 3.59487 17.5964 4.06361C18.0652 4.53236 18.3287 5.16805 18.3289 5.83095V6.66144H1.66283V5.83095ZM15.83 18.3307H4.16444C3.50146 18.3307 2.86563 18.0674 2.39683 17.5986C1.92803 17.1298 1.66466 16.4939 1.66466 15.831V8.33073H18.3317V15.831C18.3317 16.1593 18.267 16.4844 18.1413 16.7878C18.0156 17.0911 17.8314 17.3668 17.5992 17.5989C17.3669 17.831 17.0913 18.0151 16.7879 18.1407C16.4845 18.2663 16.1593 18.3308 15.831 18.3307H15.83Z" fill="#2D2659"/>
<path d="M9.99839 13.7483C10.6889 13.7483 11.2487 13.1885 11.2487 12.4979C11.2487 11.8074 10.6889 11.2476 9.99839 11.2476C9.30785 11.2476 8.74805 11.8074 8.74805 12.4979C8.74805 13.1885 9.30785 13.7483 9.99839 13.7483Z" fill="#2D2659"/>
<path d="M5.8314 13.7483C6.52195 13.7483 7.08175 13.1885 7.08175 12.4979C7.08175 11.8074 6.52195 11.2476 5.8314 11.2476C5.14085 11.2476 4.58105 11.8074 4.58105 12.4979C4.58105 13.1885 5.14085 13.7483 5.8314 13.7483Z" fill="#2D2659"/>
<path d="M14.1644 13.7483C14.855 13.7483 15.4148 13.1885 15.4148 12.4979C15.4148 11.8074 14.855 11.2476 14.1644 11.2476C13.4739 11.2476 12.9141 11.8074 12.9141 12.4979C12.9141 13.1885 13.4739 13.7483 14.1644 13.7483Z" fill="#2D2659"/>
</svg>
