<svg width="18" height="16" viewBox="0 0 18 16" fill="none" xmlns="http://www.w3.org/2000/svg">
<path d="M13.1225 0C12.2782 0.0133111 11.4523 0.249161 10.7282 0.683716C10.0041 1.11827 9.40747 1.73615 8.99854 2.47501C8.58977 1.73644 7.99348 1.11874 7.26978 0.684204C6.54607 0.249668 5.72058 0.0136606 4.87656 0C3.53107 0.0590112 2.26353 0.647838 1.35059 1.63797C0.437642 2.6281 -0.0466071 3.93915 0.00354035 5.285C0.00354035 8.695 3.59055 12.417 6.60355 14.943C7.27575 15.5077 8.12558 15.8174 9.00354 15.8174C9.8815 15.8174 10.7313 15.5077 11.4035 14.943C14.4115 12.417 18.0035 8.695 18.0035 5.285C18.0536 3.93783 17.5683 2.62561 16.6537 1.63525C15.739 0.644895 14.4694 0.0569579 13.1225 0ZM10.4345 13.8C10.0326 14.1381 9.52427 14.3235 8.99905 14.3235C8.47384 14.3235 7.96546 14.1381 7.56354 13.8C3.71154 10.566 1.50156 7.466 1.50156 5.289C1.44207 4.81076 1.48492 4.32535 1.62729 3.86493C1.76966 3.40451 2.00828 2.97963 2.32733 2.61844C2.64638 2.25725 3.03855 1.96801 3.47787 1.7699C3.9172 1.57179 4.39363 1.46933 4.87555 1.46933C5.35747 1.46933 5.83387 1.57179 6.27319 1.7699C6.71252 1.96801 7.10472 2.25725 7.42377 2.61844C7.74282 2.97963 7.98144 3.40451 8.12381 3.86493C8.26618 4.32535 8.30903 4.81076 8.24954 5.289C8.24954 5.48791 8.32856 5.67868 8.46921 5.81934C8.60986 5.95999 8.80063 6.039 8.99954 6.039C9.19845 6.039 9.38922 5.95999 9.52988 5.81934C9.67053 5.67868 9.74954 5.48791 9.74954 5.289C9.69006 4.81076 9.73291 4.32535 9.87527 3.86493C10.0176 3.40451 10.2563 2.97963 10.5753 2.61844C10.8944 2.25725 11.2866 1.96801 11.7259 1.7699C12.1652 1.57179 12.6416 1.46933 13.1235 1.46933C13.6055 1.46933 14.0819 1.57179 14.5212 1.7699C14.9605 1.96801 15.3527 2.25725 15.6718 2.61844C15.9908 2.97963 16.2294 3.40451 16.3718 3.86493C16.5142 4.32535 16.557 4.81076 16.4975 5.289C16.4975 7.466 14.2896 10.566 10.4366 13.796L10.4345 13.8Z" fill="#2D2659"/>
</svg>
