<svg width="15" height="19" viewBox="0 0 15 19" fill="none" xmlns="http://www.w3.org/2000/svg">
<path d="M10.228 13.376C10.4369 13.376 10.6372 13.459 10.7849 13.6066C10.9325 13.7543 11.0155 13.9546 11.0155 14.1635C11.0155 14.3724 10.9325 14.5727 10.7849 14.7203C10.6372 14.868 10.4369 14.951 10.228 14.951H9.44199C9.23313 14.951 9.03285 14.868 8.88516 14.7203C8.73748 14.5727 8.65448 14.3724 8.65448 14.1635C8.65448 13.9546 8.73748 13.7543 8.88516 13.6066C9.03285 13.459 9.23313 13.376 9.44199 13.376H10.228ZM8.65601 11.802C8.44736 11.802 8.24721 11.7193 8.09949 11.5719C7.95177 11.4246 7.86851 11.2246 7.86798 11.016V10.23H6.29498V11.016C6.29498 11.2247 6.21207 11.4249 6.06448 11.5725C5.91689 11.7201 5.71672 11.803 5.508 11.803C5.29927 11.803 5.0991 11.7201 4.95151 11.5725C4.80392 11.4249 4.72101 11.2247 4.72101 11.016V7.869C4.71454 7.55493 4.77081 7.24271 4.88654 6.95066C5.00226 6.65862 5.1751 6.3926 5.39493 6.16819C5.61476 5.94379 5.87717 5.76552 6.16678 5.64381C6.45638 5.5221 6.76734 5.45942 7.08148 5.45942C7.39562 5.45942 7.70661 5.5221 7.99622 5.64381C8.28582 5.76552 8.54823 5.94379 8.76807 6.16819C8.9879 6.3926 9.16074 6.65862 9.27646 6.95066C9.39218 7.24271 9.44845 7.55493 9.44199 7.869V11.016C9.44185 11.1192 9.4214 11.2214 9.38177 11.3167C9.34215 11.412 9.28414 11.4986 9.21106 11.5715C9.13798 11.6444 9.05128 11.7022 8.95587 11.7416C8.86046 11.7809 8.75822 11.8011 8.655 11.801L8.65601 11.802ZM7.86798 8.65501V7.869C7.86798 7.66054 7.78519 7.46062 7.63779 7.31321C7.49038 7.16581 7.29046 7.08299 7.082 7.08299C6.87354 7.08299 6.67362 7.16581 6.52621 7.31321C6.37881 7.46062 6.29599 7.66054 6.29599 7.869V8.65501H7.86798ZM6.522 12.825L5.254 14.109C5.21778 14.1441 5.16961 14.1643 5.11917 14.1654C5.06873 14.1665 5.01973 14.1485 4.98199 14.115L4.49799 13.615C4.42644 13.5381 4.34024 13.4762 4.24445 13.4331C4.14865 13.39 4.04521 13.3664 3.94019 13.3639C3.83517 13.3613 3.73072 13.3798 3.63293 13.4182C3.53515 13.4566 3.44603 13.5141 3.37082 13.5875C3.29561 13.6608 3.23582 13.7485 3.19498 13.8453C3.15413 13.942 3.13304 14.046 3.13297 14.1511C3.13289 14.2561 3.15381 14.3601 3.19452 14.457C3.23522 14.5538 3.29489 14.6416 3.37 14.715L3.862 15.221C4.19461 15.5531 4.64546 15.7397 5.11551 15.7397C5.58556 15.7397 6.03637 15.5531 6.36899 15.221L7.64099 13.929C7.76604 13.7768 7.8296 13.5834 7.81912 13.3867C7.80864 13.1901 7.72489 13.0045 7.58438 12.8665C7.44387 12.7285 7.25679 12.6481 7.05997 12.6412C6.86315 12.6342 6.67087 12.7012 6.521 12.829L6.522 12.825ZM14.164 5.239V14.951C14.1627 15.994 13.7476 16.994 13.0099 17.7313C12.2722 18.4687 11.272 18.8832 10.229 18.884H3.935C2.89212 18.8827 1.89231 18.468 1.15469 17.7307C0.417082 16.9935 0.00185199 15.9939 0 14.951V3.933C0.00185199 2.89012 0.417082 1.89054 1.15469 1.1533C1.89231 0.416065 2.89212 0.00133359 3.935 1.1789e-05H8.92599C9.44306 -0.00125754 9.95523 0.0999871 10.4329 0.297894C10.9106 0.495801 11.3443 0.786427 11.709 1.153L13.009 2.45298C13.3756 2.8181 13.6663 3.25219 13.8643 3.73018C14.0624 4.20816 14.1639 4.72059 14.163 5.23799L14.164 5.239ZM10.595 2.266C10.4841 2.1532 10.3614 2.05261 10.229 1.96598V3.93101H12.195C12.1077 3.79974 12.0072 3.67775 11.895 3.567L10.595 2.266ZM12.589 5.50801H10.228C10.0213 5.50788 9.81674 5.46703 9.62589 5.3878C9.43503 5.30856 9.26165 5.19248 9.11566 5.04622C8.96968 4.89995 8.85393 4.72636 8.77505 4.53535C8.69618 4.34434 8.65574 4.13965 8.65601 3.933V1.572H3.935C3.30882 1.572 2.70828 1.82076 2.2655 2.26353C1.82273 2.7063 1.57401 3.30682 1.57401 3.933V14.95C1.57401 15.5762 1.82273 16.1767 2.2655 16.6195C2.70828 17.0623 3.30882 17.311 3.935 17.311H10.229C10.8552 17.311 11.4557 17.0623 11.8985 16.6195C12.3412 16.1767 12.59 15.5762 12.59 14.95L12.589 5.50801Z" fill="#2D2659"/>
</svg>
