<svg width="20" height="20" viewBox="0 0 20 20" fill="none" xmlns="http://www.w3.org/2000/svg">
<path d="M14.5456 2.51955C14.1896 2.51955 13.8416 2.62511 13.5457 2.82288C13.2497 3.02065 13.019 3.30176 12.8828 3.63064C12.7465 3.95952 12.7109 4.32141 12.7803 4.67055C12.8498 5.01969 13.0212 5.34039 13.2729 5.59211C13.5246 5.84382 13.8453 6.01524 14.1945 6.08469C14.5436 6.15414 14.9055 6.11849 15.2344 5.98227C15.5633 5.84604 15.8444 5.61535 16.0421 5.31936C16.2399 5.02338 16.3455 4.67539 16.3455 4.31941C16.3449 3.84223 16.1551 3.38475 15.8177 3.04733C15.4803 2.70991 15.0228 2.52011 14.5456 2.51955ZM14.5456 5.55067C14.3019 5.55081 14.0637 5.47868 13.861 5.34339C13.6583 5.20811 13.5003 5.01575 13.4069 4.79065C13.3136 4.56555 13.2891 4.31782 13.3365 4.0788C13.384 3.83977 13.5013 3.6202 13.6735 3.44783C13.8458 3.27547 14.0653 3.15807 14.3043 3.11048C14.5433 3.06288 14.791 3.08725 15.0162 3.18047C15.2413 3.27369 15.4338 3.43159 15.5692 3.6342C15.7046 3.83681 15.7769 4.07503 15.7769 4.31872C15.7767 4.64528 15.6469 4.95841 15.4161 5.18939C15.1852 5.42037 14.8722 5.5503 14.5456 5.55067Z" fill="#2D2659"/>
<path d="M17.9725 5.82871C18.1332 5.47233 18.2241 5.08841 18.2401 4.69779C18.2404 4.05858 18.0747 3.43025 17.7594 2.87425C17.444 2.31826 16.9897 1.85362 16.441 1.52581C15.8922 1.198 15.2678 1.01823 14.6288 1.00407C13.9897 0.989922 13.3579 1.14188 12.7952 1.44508C10.8114 0.796898 8.66406 0.858295 6.72056 1.61876C4.77705 2.37922 3.15824 3.79147 2.14114 5.61385C1.12405 7.43623 0.771914 9.55543 1.14498 11.6088C1.51804 13.6622 2.59311 15.5221 4.18623 16.8702C5.77936 18.2184 7.79148 18.971 9.87828 18.9992C11.9651 19.0274 13.9968 18.3295 15.6258 17.025C17.2548 15.7204 18.3798 13.8903 18.8083 11.8477C19.2367 9.80518 18.942 7.67723 17.9746 5.82801L17.9725 5.82871ZM14.5456 1.57189C15.3741 1.573 16.1684 1.90262 16.7542 2.48846C17.3401 3.07431 17.6697 3.86857 17.6708 4.69709C17.6708 6.0489 15.5755 8.5177 14.5456 9.59497C13.5143 8.51909 11.419 6.04959 11.419 4.69709C11.4203 3.86845 11.7502 3.07416 12.3363 2.48842C12.9225 1.90268 13.717 1.57333 14.5456 1.57259V1.57189ZM1.56823 10.0033C1.56933 8.7101 1.86767 7.43445 2.4402 6.27489C3.01273 5.11533 3.84414 4.10289 4.8702 3.31577C5.89626 2.52864 7.08952 1.9879 8.35781 1.7353C9.6261 1.48271 10.9355 1.52503 12.1848 1.85898C11.7675 2.20517 11.4316 2.6391 11.2011 3.12989C10.9706 3.62068 10.8511 4.15625 10.8511 4.69848C10.8649 5.07063 10.9488 5.43683 11.0985 5.77783L1.85532 12.176C1.66545 11.4671 1.56894 10.7365 1.56823 10.0026V10.0033ZM9.99963 18.4347C8.58627 18.4341 7.19573 18.0782 5.95585 17.3998C4.71597 16.7213 3.66653 15.7421 2.90401 14.5521L5.35609 12.7599C5.38925 12.7361 5.41679 12.7054 5.43678 12.6699C5.45677 12.6343 5.46872 12.5948 5.47177 12.5541C5.47483 12.5135 5.46892 12.4726 5.45447 12.4345C5.44003 12.3964 5.41738 12.3619 5.38814 12.3334C5.34103 12.2856 5.27823 12.2563 5.21127 12.2511C5.14431 12.2458 5.0777 12.2649 5.02371 12.3049L2.61554 14.065C2.38425 13.6453 2.18935 13.2066 2.033 12.7536L11.3452 6.30742C11.5179 6.63778 11.7091 6.95812 11.9179 7.26692L6.14975 11.4819C6.11659 11.5057 6.08905 11.5364 6.06906 11.5719C6.04908 11.6075 6.03713 11.647 6.03407 11.6877C6.03101 11.7283 6.03692 11.7692 6.05137 11.8073C6.06582 11.8454 6.08847 11.8799 6.11771 11.9084C6.16534 11.9558 6.22832 11.9848 6.29535 11.99C6.36239 11.9952 6.4291 11.9764 6.48353 11.9369L7.62072 11.105L12.49 18.0605C11.6829 18.3094 10.8428 18.4351 9.99823 18.4333L9.99963 18.4347ZM13.0461 17.8654L8.07782 10.7684L9.14813 9.98587L14.2529 17.2794C13.8664 17.5061 13.4623 17.7016 13.0447 17.864L13.0461 17.8654ZM14.7344 16.9756L9.60802 9.65072L12.2392 7.72891C12.8828 8.60238 13.587 9.42967 14.3463 10.2047C14.3998 10.2577 14.4721 10.2874 14.5473 10.2874C14.6226 10.2874 14.6949 10.2577 14.7484 10.2047C15.8624 9.08102 16.8398 7.8297 17.6603 6.47674C18.4938 8.28993 18.6571 10.34 18.1212 12.2622C17.5853 14.1845 16.385 15.8544 14.7337 16.9749L14.7344 16.9756Z" fill="#2D2659"/>
<path d="M14.5456 2.51955C14.1896 2.51955 13.8416 2.62511 13.5457 2.82288C13.2497 3.02065 13.019 3.30176 12.8828 3.63064C12.7465 3.95952 12.7109 4.32141 12.7803 4.67055C12.8498 5.01969 13.0212 5.34039 13.2729 5.59211C13.5246 5.84382 13.8453 6.01524 14.1945 6.08469C14.5436 6.15414 14.9055 6.11849 15.2344 5.98227C15.5633 5.84604 15.8444 5.61535 16.0421 5.31936C16.2399 5.02338 16.3455 4.67539 16.3455 4.31941C16.3449 3.84223 16.1551 3.38475 15.8177 3.04733C15.4803 2.70991 15.0228 2.52011 14.5456 2.51955ZM14.5456 5.55067C14.3019 5.55081 14.0637 5.47868 13.861 5.34339C13.6583 5.20811 13.5003 5.01575 13.4069 4.79065C13.3136 4.56555 13.2891 4.31782 13.3365 4.0788C13.384 3.83977 13.5013 3.6202 13.6735 3.44783C13.8458 3.27547 14.0653 3.15807 14.3043 3.11048C14.5433 3.06288 14.791 3.08725 15.0162 3.18047C15.2413 3.27369 15.4338 3.43159 15.5692 3.6342C15.7046 3.83681 15.7769 4.07503 15.7769 4.31872C15.7767 4.64528 15.6469 4.95841 15.4161 5.18939C15.1852 5.42037 14.8722 5.5503 14.5456 5.55067Z" stroke="#2D2659" stroke-width="0.6"/>
<path d="M17.9725 5.82871C18.1332 5.47233 18.2241 5.08841 18.2401 4.69779C18.2404 4.05858 18.0747 3.43025 17.7594 2.87425C17.444 2.31826 16.9897 1.85362 16.441 1.52581C15.8922 1.198 15.2678 1.01823 14.6288 1.00407C13.9897 0.989922 13.3579 1.14188 12.7952 1.44508C10.8114 0.796898 8.66406 0.858295 6.72056 1.61876C4.77705 2.37922 3.15824 3.79147 2.14114 5.61385C1.12405 7.43623 0.771914 9.55543 1.14498 11.6088C1.51804 13.6622 2.59311 15.5221 4.18623 16.8702C5.77936 18.2184 7.79148 18.971 9.87828 18.9992C11.9651 19.0274 13.9968 18.3295 15.6258 17.025C17.2548 15.7204 18.3798 13.8903 18.8083 11.8477C19.2367 9.80518 18.942 7.67723 17.9746 5.82801L17.9725 5.82871ZM14.5456 1.57189C15.3741 1.573 16.1684 1.90262 16.7542 2.48846C17.3401 3.07431 17.6697 3.86857 17.6708 4.69709C17.6708 6.0489 15.5755 8.5177 14.5456 9.59497C13.5143 8.51909 11.419 6.04959 11.419 4.69709C11.4203 3.86845 11.7502 3.07416 12.3363 2.48842C12.9225 1.90268 13.717 1.57333 14.5456 1.57259V1.57189ZM1.56823 10.0033C1.56933 8.7101 1.86767 7.43445 2.4402 6.27489C3.01273 5.11533 3.84414 4.10289 4.8702 3.31577C5.89626 2.52864 7.08952 1.9879 8.35781 1.7353C9.6261 1.48271 10.9355 1.52503 12.1848 1.85898C11.7675 2.20517 11.4316 2.6391 11.2011 3.12989C10.9706 3.62068 10.8511 4.15625 10.8511 4.69848C10.8649 5.07063 10.9488 5.43683 11.0985 5.77783L1.85532 12.176C1.66545 11.4671 1.56894 10.7365 1.56823 10.0026V10.0033ZM9.99963 18.4347C8.58627 18.4341 7.19573 18.0782 5.95585 17.3998C4.71597 16.7213 3.66653 15.7421 2.90401 14.5521L5.35609 12.7599C5.38925 12.7361 5.41679 12.7054 5.43678 12.6699C5.45677 12.6343 5.46872 12.5948 5.47177 12.5541C5.47483 12.5135 5.46892 12.4726 5.45447 12.4345C5.44003 12.3964 5.41738 12.3619 5.38814 12.3334C5.34103 12.2856 5.27823 12.2563 5.21127 12.2511C5.14431 12.2458 5.0777 12.2649 5.02371 12.3049L2.61554 14.065C2.38425 13.6453 2.18935 13.2066 2.033 12.7536L11.3452 6.30742C11.5179 6.63778 11.7091 6.95812 11.9179 7.26692L6.14975 11.4819C6.11659 11.5057 6.08905 11.5364 6.06906 11.5719C6.04908 11.6075 6.03713 11.647 6.03407 11.6877C6.03101 11.7283 6.03692 11.7692 6.05137 11.8073C6.06582 11.8454 6.08847 11.8799 6.11771 11.9084C6.16534 11.9558 6.22832 11.9848 6.29535 11.99C6.36239 11.9952 6.4291 11.9764 6.48353 11.9369L7.62072 11.105L12.49 18.0605C11.6829 18.3094 10.8428 18.4351 9.99823 18.4333L9.99963 18.4347ZM13.0461 17.8654L8.07782 10.7684L9.14813 9.98587L14.2529 17.2794C13.8664 17.5061 13.4623 17.7016 13.0447 17.864L13.0461 17.8654ZM14.7344 16.9756L9.60802 9.65072L12.2392 7.72891C12.8828 8.60238 13.587 9.42967 14.3463 10.2047C14.3998 10.2577 14.4721 10.2874 14.5473 10.2874C14.6226 10.2874 14.6949 10.2577 14.7484 10.2047C15.8624 9.08102 16.8398 7.8297 17.6603 6.47674C18.4938 8.28993 18.6571 10.34 18.1212 12.2622C17.5853 14.1845 16.385 15.8544 14.7337 16.9749L14.7344 16.9756Z" stroke="#2D2659" stroke-width="0.6"/>
</svg>
