<svg width="18" height="9" viewBox="0 0 18 9" fill="none" xmlns="http://www.w3.org/2000/svg">
<path d="M1.71 4.5C1.71 2.961 2.961 1.71 4.5 1.71H7.245C7.7172 1.71 8.1 1.3272 8.1 0.855C8.1 0.382797 7.7172 0 7.245 0H4.5C2.016 0 0 2.016 0 4.5C0 6.984 2.016 9 4.5 9H7.245C7.7172 9 8.1 8.6172 8.1 8.145C8.1 7.6728 7.7172 7.29 7.245 7.29H4.5C2.961 7.29 1.71 6.039 1.71 4.5ZM5.4 4.5C5.4 4.99706 5.80294 5.4 6.3 5.4H11.7C12.1971 5.4 12.6 4.99706 12.6 4.5C12.6 4.00294 12.1971 3.6 11.7 3.6H6.3C5.80294 3.6 5.4 4.00294 5.4 4.5ZM13.5 0H10.755C10.2828 0 9.9 0.382797 9.9 0.855C9.9 1.3272 10.2828 1.71 10.755 1.71H13.5C15.039 1.71 16.29 2.961 16.29 4.5C16.29 6.039 15.039 7.29 13.5 7.29H10.755C10.2828 7.29 9.9 7.6728 9.9 8.145C9.9 8.6172 10.2828 9 10.755 9H13.5C15.984 9 18 6.984 18 4.5C18 2.016 15.984 0 13.5 0Z" fill="#2D2659"/>
</svg>
