<svg width="12" height="12" viewBox="0 0 12 12" fill="none" xmlns="http://www.w3.org/2000/svg">
<path d="M5.63006 10.4737H2.05288C1.77364 10.4737 1.50584 10.3628 1.30838 10.1654C1.11093 9.96795 1 9.70021 1 9.42103V3.10524C1 2.82607 1.11093 2.55833 1.30838 2.36092C1.50584 2.16351 1.77364 2.05261 2.05288 2.05261H8.37019C8.64943 2.05261 8.91724 2.16351 9.11469 2.36092C9.31214 2.55833 9.42307 2.82607 9.42307 3.10524V5.21051M8.89663 6.78946V8.89472H11.0024" stroke="#2D2659" stroke-linecap="round" stroke-linejoin="round"/>
<path d="M8.89678 11.0001C10.0598 11.0001 11.0026 10.0575 11.0026 8.89481C11.0026 7.73211 10.0598 6.78955 8.89678 6.78955C7.7338 6.78955 6.79102 7.73211 6.79102 8.89481C6.79102 10.0575 7.7338 11.0001 8.89678 11.0001Z" stroke="#2D2659" stroke-linecap="round" stroke-linejoin="round"/>
<path d="M7.31731 1V3.10526M3.10577 1V3.10526M1 5.21053H9.42307" stroke="#2D2659" stroke-linecap="round" stroke-linejoin="round"/>
</svg>
