<svg width="14" height="11" viewBox="0 0 14 11" fill="none" xmlns="http://www.w3.org/2000/svg">
<path d="M3.66667 3.57143L6.16667 5.5C6.40315 5.68258 6.69706 5.78205 7 5.78205C7.30294 5.78205 7.59685 5.68258 7.83333 5.5L10.3333 3.57143M13 8.71429V2.28571C13 1.94472 12.8595 1.6177 12.6095 1.37658C12.3594 1.13546 12.0203 1 11.6667 1H2.33333C1.97971 1 1.64057 1.13546 1.39052 1.37658C1.14048 1.6177 1 1.94472 1 2.28571V8.71429C1 9.05528 1.14048 9.3823 1.39052 9.62342C1.64057 9.86454 1.97971 10 2.33333 10H11.6667C12.0203 10 12.3594 9.86454 12.6095 9.62342C12.8595 9.3823 13 9.05528 13 8.71429Z" stroke="#2D2659" stroke-width="1.5" stroke-linecap="round" stroke-linejoin="round"/>
</svg>
