<svg width="18" height="20" viewBox="0 0 18 20" fill="none" xmlns="http://www.w3.org/2000/svg">
<path d="M10.6396 19.9952C10.4626 19.9952 10.2903 19.937 10.1484 19.8292L6.87345 17.3291C6.77189 17.2514 6.68952 17.1507 6.63289 17.035C6.57625 16.9192 6.5469 16.7917 6.54718 16.6624V11.9808L0.80228 5.40576C0.394783 4.93715 0.128833 4.35881 0.036347 3.74017C-0.0561394 3.12153 0.0287664 2.48888 0.280881 1.91814C0.532995 1.3474 0.941611 0.862829 1.45767 0.522585C1.97372 0.182342 2.5753 0.000893548 3.19019 0H14.8158C15.4302 0.00188887 16.0311 0.184106 16.5464 0.524817C17.0616 0.865528 17.4693 1.35026 17.7206 1.92088C17.972 2.4915 18.0562 3.12378 17.9632 3.7419C17.8703 4.36001 17.6041 4.93774 17.1966 5.40576L11.4544 11.9808V19.1598C11.4551 19.3805 11.3697 19.5924 11.2169 19.7491C11.0641 19.9057 10.8565 19.9943 10.6396 19.9952ZM8.18292 16.246L9.82041 17.4951V11.6622C9.8214 11.4585 9.89503 11.2621 10.0276 11.1094L15.9789 4.2966C16.1776 4.06844 16.3073 3.78673 16.3525 3.48533C16.3976 3.18394 16.3563 2.87569 16.2335 2.59762C16.1106 2.31955 15.9115 2.0835 15.66 1.91782C15.4085 1.75215 15.1154 1.66391 14.8158 1.66371H3.1893C2.89005 1.66422 2.59729 1.75256 2.34614 1.91814C2.09498 2.08372 1.8961 2.31952 1.77332 2.59725C1.65055 2.87498 1.60911 3.18285 1.65396 3.48395C1.69882 3.78505 1.82807 4.06659 2.02621 4.29481L7.97746 11.1094C8.11063 11.2616 8.18381 11.4585 8.18292 11.6622V16.246Z" fill="#2D2659"/>
</svg>
