<svg width="14" height="13" viewBox="0 0 14 13" fill="none" xmlns="http://www.w3.org/2000/svg">
<rect width="14" height="13" rx="6.5" fill="#DA5832"/>
<g clip-path="url(#clip0_3_7302)">
<path d="M9.20612 8.22484H9.07785C8.47159 8.22484 7.86483 8.20775 7.25906 8.22947C6.63527 8.25205 6.21314 7.49231 6.48019 6.84606C6.71694 6.27364 6.93038 5.68819 7.15385 5.10825C7.16737 5.07293 7.17915 5.03673 7.19618 4.98896C6.90783 4.98896 6.63051 4.98751 6.35343 4.99185C6.33263 4.99214 6.30357 5.02892 6.29305 5.05642C6.22341 5.23767 6.15552 5.41979 6.09163 5.60394C6.06808 5.67227 6.04403 5.6963 5.97514 5.67227C5.75167 5.59409 5.52545 5.52634 5.29297 5.45222C5.30249 5.41661 5.3095 5.38678 5.31877 5.35783C5.38892 5.13807 5.45957 4.91831 5.53021 4.69855C5.65648 4.3071 5.93932 4.06678 6.30282 4.06418C6.99652 4.05867 7.69046 4.05549 8.38416 4.06446C8.99568 4.07228 9.36495 4.74951 9.11568 5.39287C8.91426 5.91288 8.70833 6.43057 8.50441 6.94971C8.49063 6.98503 8.47836 7.02123 8.46057 7.07074C8.71685 7.07074 8.96261 7.06813 9.20838 7.07132C9.54232 7.07595 9.83869 7.31453 9.94867 7.67558C9.98023 7.77895 9.99702 7.89389 9.99752 8.00363C10.0015 8.8236 9.99977 9.64357 9.99952 10.4638C9.99952 10.485 9.99702 10.5058 9.99527 10.5327H9.20662V8.22455L9.20612 8.22484Z" fill="white"/>
<path d="M7.20869 8.69155C7.46171 8.69155 7.70848 8.69155 7.95499 8.69184C7.96676 8.69184 7.97879 8.69676 7.98981 8.69907C8.0324 9.62589 7.39557 10.8561 6.19107 10.989C5.01136 11.1196 3.99925 10.057 4 8.69763C4.00075 7.28613 5.01887 6.35903 5.9939 6.38277V7.29771C5.57578 7.3174 5.23958 7.52152 5.00159 7.92456C4.83875 8.20049 4.77086 8.51001 4.80768 8.84095C4.88685 9.55176 5.38639 10.0715 5.9904 10.0776C6.57737 10.0834 7.1686 9.56711 7.20869 8.69155Z" fill="white"/>
<path d="M9.99922 2.92102C10.0015 3.43293 9.65225 3.84262 9.20757 3.84957C8.77016 3.85652 8.4049 3.44248 8.40139 2.93579C8.39813 2.42331 8.75763 2.00145 9.19955 2C9.63922 1.99856 9.99696 2.41057 9.99922 2.92102Z" fill="white"/>
</g>
<defs>
<clipPath id="clip0_3_7302">
<rect width="6" height="9" fill="white" transform="translate(4 2)"/>
</clipPath>
</defs>
</svg>
