<svg width="25" height="13" viewBox="0 0 25 13" fill="none" xmlns="http://www.w3.org/2000/svg">
<path d="M20.4676 12.3029C19.8007 12.3219 19.149 12.1026 18.6293 11.6844C18.1095 11.2662 17.7559 10.6764 17.6317 10.021L17.6225 9.96003H8.51065L8.50147 10.021C8.37756 10.6758 8.0245 11.2651 7.50557 11.6832C6.98664 12.1014 6.33576 12.3211 5.66957 12.3029C5.00283 12.3219 4.35116 12.1025 3.83154 11.6843C3.31193 11.2661 2.95839 10.6764 2.83439 10.021L2.82522 9.96003H1.17196C0.998869 9.96198 0.827371 9.92675 0.66905 9.85675C0.510729 9.78675 0.369268 9.6836 0.254219 9.55426C0.147031 9.4346 0.0703654 9.29079 0.0307579 9.1351C-0.00884969 8.97941 -0.0102248 8.81645 0.0267493 8.66011C0.545719 6.6523 1.62497 4.83348 3.13856 3.41586C4.25091 2.36998 5.55727 1.55201 6.98391 1.00809C8.86259 0.3128 10.8538 -0.0283721 12.8568 0.00184508H13.9253C14.2906 -0.00515398 14.651 0.0864353 14.9686 0.266975C15.2862 0.447514 15.5492 0.710327 15.73 1.02775L17.142 3.63612C17.1872 3.71601 17.2526 3.78265 17.3317 3.82935C17.4107 3.87606 17.5006 3.9012 17.5924 3.90226C18.7763 3.92324 21.6836 4.08843 23.1028 5.16744L23.1218 5.18186H23.1454C23.4123 5.18455 23.6744 5.25221 23.9093 5.37899C24.1441 5.50578 24.3445 5.68786 24.4932 5.9095C24.7078 6.21381 24.8296 6.5738 24.8439 6.9459C24.8519 7.08727 24.8318 7.22882 24.7847 7.36237C24.7377 7.49593 24.6647 7.61884 24.5699 7.72401L24.5338 7.76138L24.5587 7.80727C24.7888 8.23732 24.937 8.70631 24.996 9.19044C25.0068 9.28759 24.9957 9.38592 24.9636 9.47825C24.9315 9.57058 24.8792 9.65456 24.8105 9.72404C24.7372 9.7981 24.6499 9.85678 24.5536 9.89663C24.4574 9.93648 24.3541 9.9567 24.25 9.9561H23.3132L23.3047 10.0171C23.1812 10.6734 22.8277 11.2642 22.3076 11.6832C21.7876 12.1022 21.1351 12.3219 20.4676 12.3029ZM20.4676 7.61716C20.0693 7.64789 19.6886 7.7941 19.3722 8.03788C19.0557 8.28166 18.8172 8.61243 18.6859 8.98969C18.5546 9.36695 18.5361 9.77432 18.6328 10.1619C18.7295 10.5495 18.9371 10.9005 19.2302 11.1719C19.5233 11.4433 19.8892 11.6233 20.2831 11.6899C20.6769 11.7565 21.0817 11.7068 21.4477 11.5469C21.8138 11.387 22.1253 11.1238 22.344 10.7895C22.5628 10.4553 22.6793 10.0645 22.6793 9.66504C22.6568 9.10023 22.4114 8.56735 21.9969 8.18305C21.5824 7.79874 21.0325 7.59432 20.4676 7.61454V7.61716ZM5.66957 7.61716C5.38757 7.59574 5.10418 7.63279 4.83717 7.726C4.57015 7.8192 4.32526 7.96655 4.11785 8.15881C3.91043 8.35106 3.74496 8.58409 3.6318 8.84328C3.51864 9.10246 3.46023 9.38223 3.46023 9.66504C3.46023 9.94786 3.51864 10.2276 3.6318 10.4868C3.74496 10.746 3.91043 10.979 4.11785 11.1713C4.32526 11.3635 4.57015 11.5109 4.83717 11.6041C5.10418 11.6973 5.38757 11.7343 5.66957 11.7129C5.95157 11.7343 6.23496 11.6973 6.50198 11.6041C6.76899 11.5109 7.01388 11.3635 7.22129 11.1713C7.42871 10.979 7.59418 10.746 7.70734 10.4868C7.8205 10.2276 7.87891 9.94786 7.87891 9.66504C7.87891 9.38223 7.8205 9.10246 7.70734 8.84328C7.59418 8.58409 7.42871 8.35106 7.22129 8.15881C7.01388 7.96655 6.76899 7.8192 6.50198 7.726C6.23496 7.63279 5.95157 7.59574 5.66957 7.61716ZM20.4676 7.02718C21.1344 7.00839 21.786 7.22784 22.3056 7.64617C22.8252 8.06449 23.1788 8.6543 23.3027 9.30975L23.3113 9.37071H24.2769L24.3188 9.33925C24.329 9.3288 24.3367 9.31618 24.3414 9.30233C24.346 9.28848 24.3475 9.27376 24.3457 9.25927C24.2005 8.34432 23.7263 7.51386 23.0121 6.92385C22.2979 6.33385 21.3928 6.02489 20.4669 6.05503C19.7274 6.04231 18.9993 6.23858 18.3663 6.62126C17.7334 7.00395 17.2213 7.55751 16.889 8.21828C16.861 8.2732 16.8182 8.31912 16.7653 8.35077C16.7124 8.38243 16.6517 8.39853 16.5901 8.39725C16.5452 8.39715 16.5007 8.38848 16.459 8.37168C16.4197 8.35673 16.3839 8.33381 16.3539 8.30436C16.3239 8.27492 16.3003 8.23959 16.2846 8.20058C16.2711 8.16625 16.2648 8.12948 16.2661 8.09258C16.2675 8.05569 16.2764 8.01948 16.2925 7.98623C16.6807 7.21557 17.2785 6.57013 18.0172 6.12413C18.7559 5.67813 19.6055 5.44968 20.4682 5.46505C20.9893 5.46497 21.5071 5.54772 22.0022 5.71022L22.0494 5.72595L22.0802 5.68662C22.1412 5.61049 22.21 5.54085 22.2853 5.47882L22.3686 5.41326L22.2736 5.36344C21.6103 5.04715 20.9031 4.83299 20.1758 4.72823C19.3171 4.58758 18.4493 4.5098 17.5793 4.49552C17.3715 4.4953 17.1675 4.43996 16.9881 4.33517C16.8086 4.23037 16.6602 4.07986 16.558 3.89898L15.1459 1.29062C15.024 1.07519 14.8462 0.896643 14.6312 0.773779C14.4163 0.650915 14.1722 0.588282 13.9247 0.592479H12.8575C8.98394 0.592479 5.87279 1.67935 3.60923 3.82425C2.4751 4.90187 1.59081 6.21487 1.01857 7.67092L1.14115 7.74106C1.67262 7.04164 2.3569 6.47292 3.14173 6.07834C3.92656 5.68377 4.79119 5.47377 5.66957 5.46439C6.53188 5.4492 7.38098 5.6776 8.11929 6.12335C8.85761 6.5691 9.45518 7.21411 9.84335 7.98426C9.85927 8.01755 9.86818 8.05375 9.86953 8.09062C9.87088 8.1275 9.86465 8.16425 9.85121 8.19862C9.83534 8.23744 9.81168 8.27259 9.78169 8.30191C9.7517 8.33122 9.71601 8.35407 9.67684 8.36906C9.63519 8.38595 9.59067 8.39463 9.54573 8.39462C9.48419 8.39597 9.42351 8.37996 9.37065 8.34843C9.31778 8.31689 9.27487 8.27111 9.24681 8.21632C8.91459 7.55575 8.40272 7.00232 7.77004 6.61965C7.13735 6.23698 6.40953 6.04059 5.67023 6.05306C4.66299 6.08285 3.68507 6.39885 2.85085 6.96409C2.01664 7.52932 1.36063 8.32043 0.959571 9.24485L0.925484 9.31827L1.00284 9.34318C1.05754 9.36049 1.11458 9.36934 1.17196 9.3694H2.82522L2.83439 9.30844C2.95839 8.65305 3.31193 8.06332 3.83154 7.6451C4.35116 7.22689 5.00283 7.00757 5.66957 7.02653C6.33631 7.00757 6.98798 7.22689 7.5076 7.6451C8.02722 8.06332 8.38075 8.65305 8.50475 9.30844L8.51393 9.3694H17.6258L17.635 9.30844C17.7584 8.65314 18.1114 8.06331 18.6305 7.64484C19.1497 7.22637 19.801 7.00668 20.4676 7.02522V7.02718ZM23.1415 5.76987C23.0562 5.7695 22.9714 5.783 22.8904 5.80986C22.8319 5.83307 22.7778 5.86611 22.7305 5.90753L22.6485 5.97309L22.7429 6.02291C23.2462 6.28794 23.6941 6.64686 24.0625 7.08028L24.1752 7.21139L24.1884 7.03702C24.1898 7.00907 24.1898 6.98106 24.1884 6.95311C24.1768 6.69069 24.0903 6.43707 23.9393 6.22219C23.8544 6.08638 23.7371 5.97377 23.598 5.89448C23.4589 5.81519 23.3022 5.77169 23.1421 5.76791L23.1415 5.76987Z" fill="white"/>
</svg>
