<svg width="20" height="20" viewBox="0 0 20 20" fill="none" xmlns="http://www.w3.org/2000/svg">
<path d="M15.831 1.66313H15.0005V0.83295C15.0005 0.612038 14.9127 0.400172 14.7564 0.243964C14.6002 0.0877552 14.3882 0 14.1672 0C13.9462 0 13.7343 0.0877552 13.578 0.243964C13.4217 0.400172 13.3339 0.612038 13.3339 0.83295V1.66313H6.6642V0.83295C6.6642 0.612038 6.57642 0.400172 6.42016 0.243964C6.26389 0.0877552 6.05195 0 5.83096 0C5.60996 0 5.39802 0.0877552 5.24175 0.243964C5.08549 0.400172 4.99768 0.612038 4.99768 0.83295V1.66313H4.1672C3.0626 1.66459 2.00364 2.10382 1.22248 2.88452C0.441319 3.66522 0.00170894 4.72368 0 5.82788V15.8242C0.00146539 16.9285 0.441013 17.9871 1.22222 18.7678C2.00344 19.5486 3.06252 19.9877 4.1672 19.989H15.8337C16.9382 19.9875 17.9971 19.5482 18.7781 18.7675C19.5591 17.9868 19.9985 16.9283 20 15.8242V5.82881C19.9985 4.72413 19.5588 3.66514 18.7772 2.88419C17.9956 2.10323 16.9361 1.6641 15.831 1.66313ZM1.66283 5.82881C1.66307 5.16615 1.92651 4.53069 2.39525 4.06212C2.864 3.59354 3.49968 3.3302 4.16258 3.32996H15.8291C16.492 3.3302 17.1277 3.59354 17.5964 4.06212C18.0652 4.53069 18.3287 5.16615 18.3289 5.82881V6.65899H1.66283V5.82881ZM15.83 18.324H4.16444C3.50146 18.324 2.86563 18.0607 2.39683 17.5921C1.92803 17.1235 1.66466 16.4879 1.66466 15.8251V8.32766H18.3317V15.8251C18.3317 16.1534 18.267 16.4784 18.1413 16.7816C18.0156 17.0849 17.8314 17.3604 17.5992 17.5924C17.3669 17.8245 17.0913 18.0085 16.7879 18.134C16.4845 18.2596 16.1593 18.3241 15.831 18.324H15.83Z" fill="white"/>
</svg>
