<svg width="8" height="8" viewBox="0 0 8 8" fill="none" xmlns="http://www.w3.org/2000/svg">
<path fill-rule="evenodd" clip-rule="evenodd" d="M2.52737 5.47351C4.06797 7.0138 5.49559 7.18245 5.91469 7.19807C6.42115 7.2165 6.93802 6.80309 7.1616 6.37966C6.805 5.96144 6.34062 5.63695 5.83176 5.28523C5.53205 5.58488 5.16262 6.1417 4.66979 5.94221C4.38972 5.82964 3.69815 5.51117 3.09393 4.90667C2.48931 4.30257 2.17117 3.61114 2.05778 3.33153C1.85824 2.8384 2.41678 2.46784 2.71689 2.1678C2.36509 1.65103 2.04616 1.17472 1.62865 0.83622C1.19912 1.06055 0.783221 1.57332 0.802052 2.08648C0.817679 2.5055 0.986364 3.93282 2.52737 5.47351ZM5.88505 7.99846C5.30807 7.97723 3.67291 7.7517 1.96041 6.03955C0.248317 4.32781 0.0227352 2.69338 0.00109866 2.11612C-0.0309555 1.23641 0.642984 0.381945 1.4215 0.0482493C1.51525 0.00777595 1.61791 -0.0076335 1.71942 0.00353309C1.82092 0.0146997 1.91777 0.0520586 2.00048 0.111944C2.64477 0.581842 3.08912 1.2937 3.47096 1.85133C3.5504 1.96728 3.58679 2.10735 3.57384 2.24729C3.56089 2.38724 3.49941 2.51825 3.40004 2.61767L2.85673 3.16127C2.98294 3.43969 3.23977 3.9196 3.66048 4.34023C4.0812 4.76085 4.56121 5.01763 4.84008 5.14382L5.383 4.60061C5.48281 4.50106 5.6144 4.43968 5.75483 4.42716C5.89527 4.41464 6.03564 4.45178 6.15149 4.53211C6.72046 4.9263 7.38879 5.36415 7.87601 5.98787C7.94077 6.07116 7.98197 6.17031 7.99529 6.27496C8.00861 6.37961 7.99357 6.48591 7.95174 6.58276C7.61637 7.36512 6.76774 8.03131 5.88505 7.99886V7.99846Z" fill="#86C4EB"/>
</svg>
