<svg width="10" height="10" viewBox="0 0 10 10" fill="none" xmlns="http://www.w3.org/2000/svg">
<path d="M4.70405 8.57901H1.84231C1.61891 8.57901 1.40467 8.49028 1.24671 8.33236C1.08874 8.17443 1 7.96024 1 7.7369V2.68427C1 2.46093 1.08874 2.24674 1.24671 2.08881C1.40467 1.93088 1.61891 1.84216 1.84231 1.84216H6.89615C7.11954 1.84216 7.33379 1.93088 7.49175 2.08881C7.64972 2.24674 7.73846 2.46093 7.73846 2.68427V4.36848M7.3173 5.63164V7.31585H9.00192" stroke="#86C4EB" stroke-width="0.7" stroke-linecap="round" stroke-linejoin="round"/>
<path d="M7.31743 9.00001C8.24781 9.00001 9.00204 8.24597 9.00204 7.3158C9.00204 6.38564 8.24781 5.63159 7.31743 5.63159C6.38704 5.63159 5.63281 6.38564 5.63281 7.3158C5.63281 8.24597 6.38704 9.00001 7.31743 9.00001Z" stroke="#86C4EB" stroke-width="0.7" stroke-linecap="round" stroke-linejoin="round"/>
<path d="M6.05384 1V2.68421M2.68461 1V2.68421M1 4.36842H7.73846" stroke="#86C4EB" stroke-width="0.7" stroke-linecap="round" stroke-linejoin="round"/>
</svg>
