<svg width="46" height="50" viewBox="0 0 46 50" fill="none" xmlns="http://www.w3.org/2000/svg">
<g filter="url(#filter0_ddddd_3_6181)">
<circle cx="23" cy="21" r="20" fill="white"/>
</g>
<circle cx="23" cy="21" r="16.6" stroke="#86C4EB" stroke-width="0.8"/>
<path d="M17.7491 24.9972C17.6246 25.0074 17.4993 24.9916 17.3812 24.951C17.2631 24.9104 17.1547 24.8457 17.0628 24.761C16.971 24.6764 16.8977 24.5737 16.8475 24.4593C16.7974 24.3449 16.7715 24.2213 16.7715 24.0964C16.7715 23.9715 16.7974 23.8479 16.8475 23.7335C16.8977 23.6191 16.971 23.5164 17.0628 23.4317C17.1547 23.3471 17.2631 23.2824 17.3812 23.2418C17.4993 23.2012 17.6246 23.1854 17.7491 23.1956C17.7829 23.1934 17.8168 23.1981 17.8488 23.2095C17.8807 23.2209 17.91 23.2387 17.9347 23.2619C17.9595 23.2851 17.9792 23.3131 17.9927 23.3442C18.0062 23.3753 18.0132 23.4088 18.0132 23.4427C18.0132 23.4766 18.0062 23.5102 17.9927 23.5413C17.9792 23.5724 17.9595 23.6004 17.9347 23.6236C17.91 23.6467 17.8807 23.6646 17.8488 23.676C17.8168 23.6874 17.7829 23.6921 17.7491 23.6898C17.6931 23.6857 17.6368 23.6932 17.5838 23.7118C17.5308 23.7304 17.4822 23.7597 17.4411 23.798C17.3999 23.8362 17.3671 23.8825 17.3447 23.934C17.3222 23.9855 17.3106 24.0411 17.3106 24.0972C17.3106 24.1534 17.3222 24.209 17.3447 24.2604C17.3671 24.3119 17.3999 24.3582 17.4411 24.3965C17.4822 24.4347 17.5308 24.4641 17.5838 24.4827C17.6368 24.5013 17.6931 24.5087 17.7491 24.5046C17.8238 24.5052 17.8974 24.4871 17.9632 24.4518C18.0291 24.4164 18.0849 24.3651 18.1257 24.3026C18.1517 24.2636 18.187 24.2318 18.2284 24.21C18.2699 24.1882 18.3161 24.1772 18.3629 24.1779C18.411 24.1779 18.4583 24.1896 18.5008 24.212C18.5314 24.2276 18.5586 24.2495 18.5804 24.2761C18.6022 24.3028 18.6183 24.3336 18.6276 24.3668C18.6356 24.3971 18.6373 24.4286 18.6325 24.4595C18.6276 24.4904 18.6164 24.52 18.5996 24.5464C18.507 24.6868 18.3806 24.8017 18.232 24.8805C18.0833 24.9593 17.9173 24.9994 17.7491 24.9972Z" fill="#86C4EB"/>
<path d="M30.1436 24.9972C30.0191 25.0074 29.8939 24.9916 29.7758 24.951C29.6576 24.9104 29.5492 24.8457 29.4574 24.761C29.3655 24.6764 29.2922 24.5737 29.2421 24.4593C29.1919 24.3449 29.166 24.2213 29.166 24.0964C29.166 23.9715 29.1919 23.8479 29.2421 23.7335C29.2922 23.6191 29.3655 23.5164 29.4574 23.4317C29.5492 23.3471 29.6576 23.2824 29.7758 23.2418C29.8939 23.2012 30.0191 23.1854 30.1436 23.1956C30.1774 23.1934 30.2114 23.1981 30.2433 23.2095C30.2752 23.2209 30.3045 23.2387 30.3293 23.2619C30.354 23.2851 30.3738 23.3131 30.3873 23.3442C30.4008 23.3753 30.4077 23.4088 30.4077 23.4427C30.4077 23.4766 30.4008 23.5102 30.3873 23.5413C30.3738 23.5724 30.354 23.6004 30.3293 23.6236C30.3045 23.6467 30.2752 23.6646 30.2433 23.676C30.2114 23.6874 30.1774 23.6921 30.1436 23.6898C30.0876 23.6857 30.0313 23.6932 29.9783 23.7118C29.9253 23.7304 29.8767 23.7597 29.8356 23.798C29.7945 23.8362 29.7616 23.8825 29.7392 23.934C29.7167 23.9855 29.7052 24.0411 29.7052 24.0972C29.7052 24.1534 29.7167 24.209 29.7392 24.2604C29.7616 24.3119 29.7945 24.3582 29.8356 24.3965C29.8767 24.4347 29.9253 24.4641 29.9783 24.4827C30.0313 24.5013 30.0876 24.5087 30.1436 24.5046C30.2183 24.5052 30.2919 24.487 30.3577 24.4517C30.4235 24.4164 30.4794 24.3651 30.5203 24.3026C30.5461 24.2635 30.5814 24.2315 30.6228 24.2096C30.6643 24.1877 30.7106 24.1766 30.7575 24.1774C30.8053 24.1774 30.8524 24.1891 30.8947 24.2114C30.9254 24.2271 30.9525 24.2489 30.9744 24.2756C30.9962 24.3022 31.0123 24.3331 31.0216 24.3663C31.0296 24.3965 31.0313 24.4281 31.0265 24.459C31.0217 24.4899 31.0105 24.5195 30.9936 24.5458C30.9012 24.6863 30.7749 24.8013 30.6263 24.8802C30.4778 24.9591 30.3118 24.9993 30.1436 24.9972Z" fill="#86C4EB"/>
<path d="M30.1436 26.3049C29.585 26.3208 29.0391 26.1371 28.6038 25.7868C28.1685 25.4365 27.8723 24.9426 27.7683 24.3936L27.7606 24.3425H20.1285L20.1208 24.3936C20.017 24.942 19.7213 25.4356 19.2866 25.7859C18.852 26.1361 18.3068 26.3201 17.7488 26.3049C17.1904 26.3208 16.6445 26.1371 16.2093 25.7868C15.7741 25.4365 15.4779 24.9425 15.3741 24.3936L15.3664 24.3425H13.9816C13.8366 24.3441 13.693 24.3146 13.5604 24.256C13.4278 24.1974 13.3093 24.111 13.2129 24.0026C13.1232 23.9024 13.0589 23.7819 13.0258 23.6515C12.9926 23.5211 12.9914 23.3846 13.0224 23.2537C13.4571 21.572 14.3611 20.0485 15.6288 18.8611C16.5606 17.9851 17.6547 17.3 18.8497 16.8444C20.4233 16.262 22.0911 15.9762 23.7688 16.0015H24.6638C24.9698 15.9957 25.2716 16.0724 25.5376 16.2236C25.8036 16.3748 26.024 16.595 26.1754 16.8608L27.3581 19.0456C27.396 19.1125 27.4508 19.1683 27.5169 19.2075C27.5831 19.2466 27.6584 19.2676 27.7353 19.2685C28.727 19.2861 31.1621 19.4245 32.3508 20.3282L32.3668 20.3403H32.3865C32.61 20.3426 32.8296 20.3992 33.0263 20.5054C33.223 20.6116 33.3909 20.7641 33.5154 20.9498C33.6952 21.2047 33.7972 21.5062 33.8092 21.8179C33.8159 21.9363 33.799 22.0548 33.7596 22.1667C33.7202 22.2786 33.6591 22.3815 33.5797 22.4696L33.5495 22.5009L33.5703 22.5393C33.763 22.8996 33.8872 23.2924 33.9366 23.6979C33.9456 23.7793 33.9364 23.8616 33.9095 23.939C33.8826 24.0163 33.8388 24.0866 33.7812 24.1448C33.7198 24.2069 33.6467 24.256 33.5661 24.2894C33.4854 24.3228 33.399 24.3397 33.3117 24.3392H32.5271L32.5199 24.3903C32.4165 24.94 32.1204 25.4348 31.6848 25.7858C31.2492 26.1367 30.7027 26.3208 30.1436 26.3049ZM30.1436 22.3801C29.81 22.4058 29.4911 22.5283 29.2261 22.7325C28.961 22.9367 28.7613 23.2137 28.6513 23.5297C28.5413 23.8457 28.5258 24.1869 28.6068 24.5116C28.6878 24.8362 28.8617 25.1302 29.1072 25.3575C29.3527 25.5848 29.6591 25.7356 29.989 25.7914C30.3189 25.8472 30.658 25.8056 30.9646 25.6716C31.2712 25.5377 31.5321 25.3172 31.7153 25.0373C31.8985 24.7573 31.9961 24.43 31.9961 24.0954C31.9773 23.6223 31.7717 23.176 31.4245 22.8541C31.0773 22.5322 30.6167 22.361 30.1436 22.3779V22.3801ZM17.7488 22.3801C17.5126 22.3622 17.2752 22.3932 17.0516 22.4713C16.8279 22.5493 16.6228 22.6728 16.4491 22.8338C16.2754 22.9948 16.1368 23.19 16.042 23.4071C15.9472 23.6242 15.8983 23.8585 15.8983 24.0954C15.8983 24.3323 15.9472 24.5666 16.042 24.7837C16.1368 25.0008 16.2754 25.196 16.4491 25.357C16.6228 25.5181 16.8279 25.6415 17.0516 25.7196C17.2752 25.7976 17.5126 25.8287 17.7488 25.8107C17.985 25.8287 18.2224 25.7976 18.446 25.7196C18.6697 25.6415 18.8748 25.5181 19.0485 25.357C19.2223 25.196 19.3609 25.0008 19.4556 24.7837C19.5504 24.5666 19.5994 24.3323 19.5994 24.0954C19.5994 23.8585 19.5504 23.6242 19.4556 23.4071C19.3609 23.19 19.2223 22.9948 19.0485 22.8338C18.8748 22.6728 18.6697 22.5493 18.446 22.4713C18.2224 22.3932 17.985 22.3622 17.7488 22.3801ZM30.1436 21.8859C30.7021 21.8702 31.2479 22.054 31.6831 22.4044C32.1184 22.7548 32.4145 23.2488 32.5183 23.7978L32.5254 23.8489H33.3342L33.3694 23.8225C33.3779 23.8138 33.3844 23.8032 33.3883 23.7916C33.3922 23.78 33.3934 23.7677 33.3919 23.7555C33.2703 22.9892 32.8731 22.2936 32.2748 21.7994C31.6766 21.3052 30.9186 21.0464 30.143 21.0717C29.5236 21.061 28.9137 21.2254 28.3836 21.546C27.8534 21.8665 27.4245 22.3301 27.1462 22.8836C27.1228 22.9296 27.0868 22.9681 27.0426 22.9946C26.9983 23.0211 26.9474 23.0346 26.8958 23.0335C26.8582 23.0334 26.8209 23.0262 26.786 23.0121C26.7531 22.9996 26.7231 22.9804 26.698 22.9557C26.6728 22.931 26.6531 22.9015 26.6399 22.8688C26.6286 22.84 26.6233 22.8092 26.6244 22.7783C26.6256 22.7474 26.6331 22.7171 26.6465 22.6892C26.9717 22.0437 27.4724 21.5031 28.0911 21.1296C28.7099 20.756 29.4215 20.5646 30.1441 20.5775C30.5806 20.5774 31.0143 20.6468 31.4289 20.7829L31.4685 20.796L31.4943 20.7631C31.5454 20.6993 31.603 20.641 31.6661 20.589L31.7359 20.5341L31.6563 20.4924C31.1008 20.2275 30.5084 20.0481 29.8992 19.9604C29.18 19.8425 28.4531 19.7774 27.7244 19.7654C27.5503 19.7652 27.3794 19.7189 27.2292 19.6311C27.0789 19.5433 26.9546 19.4173 26.8689 19.2658L25.6862 17.081C25.584 16.9006 25.4351 16.751 25.2551 16.6481C25.0751 16.5452 24.8706 16.4927 24.6633 16.4963H23.7694C20.5249 16.4963 17.919 17.4066 16.0231 19.2032C15.0731 20.1058 14.3325 21.2056 13.8532 22.4251L13.9558 22.4839C14.401 21.8981 14.9741 21.4217 15.6315 21.0912C16.2889 20.7607 17.0131 20.5848 17.7488 20.577C18.4711 20.5642 19.1823 20.7555 19.8007 21.1289C20.4191 21.5023 20.9196 22.0425 21.2448 22.6876C21.2581 22.7155 21.2656 22.7458 21.2667 22.7767C21.2678 22.8076 21.2626 22.8384 21.2513 22.8671C21.2381 22.8997 21.2182 22.9291 21.1931 22.9537C21.168 22.9782 21.1381 22.9973 21.1053 23.0099C21.0704 23.024 21.0331 23.0313 20.9955 23.0313C20.9439 23.0324 20.8931 23.019 20.8488 22.9926C20.8045 22.9662 20.7686 22.9279 20.7451 22.882C20.4668 22.3287 20.0381 21.8651 19.5082 21.5446C18.9782 21.2241 18.3686 21.0596 17.7494 21.07C16.9057 21.095 16.0866 21.3597 15.3879 21.8331C14.6891 22.3065 14.1397 22.9692 13.8037 23.7435L13.7752 23.805L13.84 23.8258C13.8858 23.8403 13.9336 23.8477 13.9816 23.8478H15.3664L15.3741 23.7967C15.4779 23.2478 15.7741 22.7538 16.2093 22.4035C16.6445 22.0532 17.1904 21.8695 17.7488 21.8854C18.3073 21.8695 18.8531 22.0532 19.2883 22.4035C19.7236 22.7538 20.0197 23.2478 20.1236 23.7967L20.1312 23.8478H27.7633L27.771 23.7967C27.8744 23.2478 28.17 22.7538 28.6049 22.4033C29.0397 22.0528 29.5853 21.8688 30.1436 21.8843V21.8859ZM32.3832 20.8328C32.3118 20.8325 32.2408 20.8438 32.1729 20.8663C32.1239 20.8858 32.0786 20.9134 32.039 20.9481L31.9703 21.003L32.0494 21.0448C32.471 21.2668 32.8461 21.5674 33.1547 21.9304L33.2491 22.0402L33.2601 21.8942C33.2613 21.8708 33.2613 21.8473 33.2601 21.8239C33.2504 21.6041 33.178 21.3917 33.0515 21.2117C32.9804 21.0979 32.8822 21.0036 32.7656 20.9372C32.6491 20.8708 32.5179 20.8344 32.3838 20.8312L32.3832 20.8328Z" fill="#86C4EB"/>
<path d="M18.9027 19.7616C18.7443 19.7656 18.5883 19.7224 18.4545 19.6374C18.3208 19.5524 18.2153 19.4296 18.1516 19.2845C18.0945 19.1467 18.0841 18.9941 18.1221 18.8498C18.1601 18.7056 18.2443 18.5779 18.3619 18.4861C19.8384 17.4506 21.6108 16.9215 23.4134 16.9784H24.5966C24.7159 16.9761 24.8334 17.0076 24.9355 17.0695C25.0375 17.1313 25.1199 17.2208 25.1731 17.3276L26.1477 19.4196C26.1649 19.4563 26.1718 19.497 26.1678 19.5374C26.1639 19.5778 26.1492 19.6163 26.1252 19.6491C26.0987 19.6845 26.0642 19.7132 26.0245 19.7328C25.9848 19.7523 25.9411 19.7622 25.8968 19.7616H18.9027ZM23.4145 17.472C23.0497 17.4723 22.6852 17.4935 22.3229 17.5357L22.268 17.5417V19.2675H25.4834L24.6724 17.5187C24.6657 17.5046 24.6551 17.4926 24.6419 17.4843C24.6287 17.4759 24.6133 17.4715 24.5977 17.4715L23.4145 17.472ZM21.6574 17.6367C20.6002 17.8076 19.5977 18.2233 18.7298 18.8507C18.6914 18.8804 18.6642 18.922 18.6523 18.969C18.6405 19.016 18.6447 19.0656 18.6644 19.1099C18.684 19.1574 18.7175 19.1978 18.7605 19.2258C18.8036 19.2537 18.8542 19.2679 18.9055 19.2664H21.7288V17.6252L21.6574 17.6367Z" fill="#86C4EB"/>
<defs>
<filter id="filter0_ddddd_3_6181" x="0" y="0" width="46" height="50" filterUnits="userSpaceOnUse" color-interpolation-filters="sRGB">
<feFlood flood-opacity="0" result="BackgroundImageFix"/>
<feColorMatrix in="SourceAlpha" type="matrix" values="0 0 0 0 0 0 0 0 0 0 0 0 0 0 0 0 0 0 127 0" result="hardAlpha"/>
<feOffset/>
<feColorMatrix type="matrix" values="0 0 0 0 0 0 0 0 0 0 0 0 0 0 0 0 0 0 0.1 0"/>
<feBlend mode="normal" in2="BackgroundImageFix" result="effect1_dropShadow_3_6181"/>
<feColorMatrix in="SourceAlpha" type="matrix" values="0 0 0 0 0 0 0 0 0 0 0 0 0 0 0 0 0 0 127 0" result="hardAlpha"/>
<feOffset/>
<feGaussianBlur stdDeviation="0.5"/>
<feColorMatrix type="matrix" values="0 0 0 0 0 0 0 0 0 0 0 0 0 0 0 0 0 0 0.1 0"/>
<feBlend mode="normal" in2="effect1_dropShadow_3_6181" result="effect2_dropShadow_3_6181"/>
<feColorMatrix in="SourceAlpha" type="matrix" values="0 0 0 0 0 0 0 0 0 0 0 0 0 0 0 0 0 0 127 0" result="hardAlpha"/>
<feOffset dy="2"/>
<feGaussianBlur stdDeviation="1"/>
<feColorMatrix type="matrix" values="0 0 0 0 0 0 0 0 0 0 0 0 0 0 0 0 0 0 0.09 0"/>
<feBlend mode="normal" in2="effect2_dropShadow_3_6181" result="effect3_dropShadow_3_6181"/>
<feColorMatrix in="SourceAlpha" type="matrix" values="0 0 0 0 0 0 0 0 0 0 0 0 0 0 0 0 0 0 127 0" result="hardAlpha"/>
<feOffset dy="4"/>
<feGaussianBlur stdDeviation="1"/>
<feColorMatrix type="matrix" values="0 0 0 0 0 0 0 0 0 0 0 0 0 0 0 0 0 0 0.05 0"/>
<feBlend mode="normal" in2="effect3_dropShadow_3_6181" result="effect4_dropShadow_3_6181"/>
<feColorMatrix in="SourceAlpha" type="matrix" values="0 0 0 0 0 0 0 0 0 0 0 0 0 0 0 0 0 0 127 0" result="hardAlpha"/>
<feOffset dy="6"/>
<feGaussianBlur stdDeviation="1.5"/>
<feColorMatrix type="matrix" values="0 0 0 0 0 0 0 0 0 0 0 0 0 0 0 0 0 0 0.01 0"/>
<feBlend mode="normal" in2="effect4_dropShadow_3_6181" result="effect5_dropShadow_3_6181"/>
<feBlend mode="normal" in="SourceGraphic" in2="effect5_dropShadow_3_6181" result="shape"/>
</filter>
</defs>
</svg>
