<svg width="46" height="50" viewBox="0 0 46 50" fill="none" xmlns="http://www.w3.org/2000/svg">
<g filter="url(#filter0_ddddd_3_6206)">
<circle cx="23" cy="21" r="20" fill="white"/>
</g>
<circle cx="23" cy="21" r="16.6" stroke="#7EA2C1" stroke-width="0.8"/>
<path d="M25.6036 20.2194C25.6418 20.2322 25.6819 20.2387 25.7222 20.2387C25.7992 20.2388 25.8742 20.2148 25.9368 20.1699C25.9993 20.1251 26.0462 20.0617 26.0708 19.9888C26.1263 19.8262 26.244 19.6921 26.3981 19.6161C26.5523 19.54 26.7303 19.5281 26.8931 19.583C27.2411 19.7005 27.6215 19.6754 27.9509 19.513C28.2803 19.3506 28.5319 19.0642 28.6505 18.7166C28.666 18.6707 28.6724 18.6223 28.6692 18.574C28.666 18.5256 28.6533 18.4784 28.6319 18.435C28.6104 18.3916 28.5806 18.3529 28.5442 18.321C28.5078 18.2891 28.4654 18.2646 28.4196 18.2491C28.3737 18.2336 28.3253 18.2272 28.2769 18.2304C28.2286 18.2336 28.1814 18.2463 28.138 18.2677C28.0946 18.2892 28.0558 18.319 28.0239 18.3554C27.992 18.3918 27.9676 18.4342 27.9521 18.48C27.8966 18.6427 27.7788 18.7767 27.6247 18.8526C27.4705 18.9286 27.2925 18.9403 27.1297 18.8852C26.7818 18.768 26.4017 18.7934 26.0725 18.9557C25.7433 19.1181 25.4918 19.4042 25.373 19.7516C25.3417 19.8442 25.3483 19.9455 25.3916 20.0332C25.4348 20.1209 25.511 20.1879 25.6036 20.2194Z" fill="#7EA2C1"/>
<path d="M26.4747 17.6895C26.5127 17.7021 26.5526 17.7087 26.5926 17.7088C26.6697 17.7088 26.7449 17.6847 26.8076 17.6397C26.8702 17.5948 26.9172 17.5313 26.9419 17.4582C26.9691 17.3775 27.0121 17.3029 27.0682 17.2388C27.1244 17.1746 27.1927 17.1223 27.2692 17.0846C27.3456 17.047 27.4288 17.0248 27.5139 17.0194C27.599 17.014 27.6843 17.0254 27.7649 17.0531C28.1128 17.1705 28.4931 17.1452 28.8225 16.9828C29.1519 16.8205 29.4035 16.5342 29.5223 16.1867C29.5378 16.1408 29.5441 16.0924 29.5409 16.0441C29.5378 15.9957 29.5251 15.9485 29.5036 15.9051C29.4822 15.8617 29.4524 15.8229 29.416 15.791C29.3796 15.7591 29.3372 15.7347 29.2913 15.7192C29.2455 15.7037 29.197 15.6973 29.1487 15.7005C29.1004 15.7037 29.0532 15.7164 29.0098 15.7378C28.9664 15.7593 28.9276 15.7891 28.8957 15.8255C28.8638 15.8619 28.8394 15.9043 28.8238 15.9501C28.7685 16.1129 28.6508 16.247 28.4965 16.323C28.3423 16.3989 28.1643 16.4106 28.0015 16.3553C27.6535 16.2373 27.273 16.2623 26.9435 16.4248C26.614 16.5872 26.3624 16.8739 26.2441 17.2217C26.2127 17.3143 26.2194 17.4156 26.2626 17.5033C26.3059 17.591 26.3821 17.6579 26.4747 17.6895Z" fill="#7EA2C1"/>
<path d="M27.3456 15.1966C27.4381 15.2275 27.539 15.2206 27.6264 15.1774C27.7138 15.1342 27.7806 15.0582 27.8121 14.966C27.8532 14.8458 27.9403 14.7468 28.0541 14.6906C28.168 14.6344 28.2995 14.6256 28.4199 14.6661C28.5715 14.7178 28.7318 14.739 28.8915 14.7286C29.0513 14.7181 29.2075 14.6762 29.351 14.6053C29.4946 14.5343 29.6227 14.4357 29.728 14.315C29.8333 14.1944 29.9137 14.0542 29.9647 13.9023C29.9962 13.8097 29.9895 13.7084 29.9463 13.6207C29.9031 13.5329 29.8267 13.466 29.7341 13.4345C29.6415 13.4031 29.5402 13.4097 29.4524 13.4529C29.3647 13.4962 29.2977 13.5725 29.2663 13.6651C29.2462 13.7247 29.2144 13.7798 29.173 13.8272C29.1315 13.8745 29.0811 13.9132 29.0246 13.941C28.9681 13.9688 28.9067 13.9852 28.8439 13.9892C28.781 13.9932 28.718 13.9848 28.6585 13.9643C28.3531 13.8615 28.0195 13.8838 27.7305 14.0263C27.4415 14.1688 27.2207 14.4199 27.1164 14.7247C27.1003 14.7707 27.0935 14.8195 27.0963 14.8682C27.0992 14.9168 27.1116 14.9645 27.1329 15.0083C27.1542 15.0522 27.184 15.0914 27.2205 15.1237C27.257 15.156 27.2995 15.1807 27.3456 15.1966Z" fill="#7EA2C1"/>
<path d="M30.05 20.1759C29.9904 20.1346 29.9219 20.1081 29.8501 20.0986C30.5354 17.8806 30.9218 15.5811 30.999 13.261C31.0101 12.8688 30.9274 12.4795 30.7579 12.1257C30.5883 11.7718 30.3367 11.4635 30.024 11.2264C29.7982 11.0815 29.5361 11.003 29.2677 11.0001C28.9993 10.9971 28.7356 11.0698 28.5066 11.2097C27.4449 11.7702 26.6859 13.4183 26.0768 14.7418L25.9721 14.9664C25.908 14.6535 25.7732 14.3594 25.578 14.1065C25.3828 13.8537 25.1324 13.6488 24.8459 13.5076C24.7802 13.1798 24.6201 12.8784 24.3853 12.6404C24.1505 12.4024 23.8512 12.2382 23.5244 12.1681C23.5172 12.1303 23.5081 12.0929 23.497 12.0561C23.4321 11.8256 23.3015 11.619 23.1211 11.4615C22.9408 11.304 22.7185 11.2024 22.4814 11.1691C22.2188 11.1364 21.9527 11.1925 21.7257 11.3284C21.5344 11.2186 21.3177 11.1607 21.0972 11.1604C20.7997 11.1633 20.5119 11.2668 20.2808 11.4542C20.0497 11.6415 19.8888 11.9016 19.8243 12.1921C19.4862 12.2903 19.1888 12.4954 18.9768 12.7766C18.7648 13.0578 18.6495 13.4 18.6481 13.7522C18.2623 13.8578 17.9224 14.0881 17.6813 14.4072C17.4402 14.7263 17.3115 15.1163 17.3152 15.5162C17.3155 15.7405 17.3563 15.9629 17.4359 16.1726C17.275 16.3778 17.172 16.6223 17.1377 16.8807C17.1033 17.1392 17.1389 17.4021 17.2406 17.6421C17.0697 17.4296 16.8545 17.257 16.6101 17.1362C16.3656 17.0155 16.0977 16.9496 15.8251 16.943C15.7313 16.9482 15.6431 16.9894 15.579 17.0582C15.5149 17.1269 15.4799 17.2177 15.4812 17.3117C15.4826 17.4057 15.5203 17.4954 15.5864 17.5622C15.6525 17.6291 15.7418 17.6677 15.8358 17.6701H15.8704C16.0408 17.6864 16.2059 17.7381 16.3551 17.822C16.5043 17.9059 16.6343 18.0201 16.7368 18.1573C16.4198 18.2189 16.1184 18.3434 15.8503 18.5234C15.5822 18.7035 15.3529 18.9354 15.176 19.2056C14.9841 19.6267 14.9535 20.1036 15.09 20.5457C15.0258 20.6534 14.9947 20.7777 15.0007 20.9029L15.6052 29.6958C15.6252 30.2206 15.8464 30.7175 16.223 31.0836C16.5996 31.4496 17.1026 31.6567 17.6278 31.6618H27.6089C28.1329 31.6567 28.635 31.4506 29.0114 31.086C29.3879 30.7214 29.6098 30.2261 29.6315 29.7025L30.2519 20.6031V20.5964C30.2574 20.5148 30.2417 20.4332 30.2063 20.3596C30.1709 20.2859 30.1171 20.2226 30.05 20.1759ZM26.2567 16.0067C26.398 15.7401 26.5513 15.4069 26.7132 15.0517C27.2464 13.8915 27.9794 12.302 28.8271 11.8528C28.9475 11.7736 29.0879 11.7302 29.2319 11.7277C29.376 11.7252 29.5178 11.7638 29.6408 11.8389C29.8462 12.0089 30.0106 12.223 30.1218 12.4653C30.233 12.7076 30.2882 12.9718 30.2833 13.2384C30.2066 15.5207 29.8226 17.7822 29.1417 19.962C29.1184 20.0379 29.067 20.1912 28.9944 20.4018L28.3886 20.677C28.3752 20.6829 28.3623 20.6899 28.35 20.6977C28.18 20.8036 27.9838 20.8598 27.7835 20.8598C27.5832 20.8598 27.387 20.8036 27.217 20.6977L26.9638 20.5424C26.6795 20.3679 26.3524 20.2756 26.0188 20.2758H26.0068C25.6691 20.2731 25.3375 20.3655 25.0498 20.5424L24.7979 20.6977C24.6588 20.7797 24.5034 20.8299 24.3427 20.845C24.3514 20.8136 24.3621 20.7823 24.3714 20.7517C24.4687 20.4125 24.5713 20.0792 24.6819 19.748C24.7233 19.6221 24.7672 19.4975 24.8106 19.3728C24.9019 19.1096 24.9972 18.8503 25.0965 18.5924C25.1404 18.4771 25.1831 18.3605 25.2297 18.2466C25.541 17.4762 25.8828 16.7258 26.2567 16.0067ZM21.725 16.8691L21.8456 16.7098C21.873 16.6726 21.8975 16.6334 21.9189 16.5925C22.0044 16.4254 22.0281 16.2335 21.9856 16.0507L23.469 15.7175C23.4777 15.7629 23.4905 15.8075 23.507 15.8508C23.5752 16.0199 23.6988 16.1609 23.8576 16.2506C23.9118 16.2813 23.968 16.3121 24.0262 16.3432C24.0742 16.3686 24.1221 16.3959 24.1701 16.4225L24.2368 16.4612C24.2787 16.4859 24.3201 16.5125 24.3607 16.5385C24.4014 16.5645 24.4307 16.5838 24.4653 16.6052C24.5 16.6265 24.542 16.6638 24.58 16.6951C24.618 16.7264 24.6466 16.7524 24.6759 16.7838C24.7104 16.8174 24.7431 16.8527 24.7739 16.8897C24.8317 16.9573 24.8821 17.0308 24.9245 17.109C24.7739 17.4495 24.632 17.7967 24.494 18.1466C24.4733 18.2006 24.4507 18.2539 24.4274 18.3072C23.9804 18.4352 23.5626 18.6489 23.1971 18.9363C22.9584 19.135 22.6778 19.2772 22.3763 19.3521C22.0749 19.427 21.7604 19.4327 21.4564 19.3688L21.2405 18.3592C21.1942 18.0902 21.2141 17.8141 21.2986 17.5545C21.383 17.295 21.5293 17.06 21.725 16.8697V16.8691ZM23.487 14.6612C23.4963 14.6602 23.5057 14.6602 23.515 14.6612C23.5418 14.6615 23.568 14.6691 23.5909 14.683C23.6138 14.6969 23.6325 14.7167 23.6452 14.7403C23.6578 14.7639 23.6639 14.7904 23.6628 14.8172C23.6617 14.844 23.6535 14.8699 23.639 14.8924C23.6289 14.9092 23.6156 14.9237 23.5998 14.9352C23.584 14.9466 23.566 14.9547 23.547 14.9591L21.5844 15.3989C21.5459 15.4068 21.5058 15.3991 21.4729 15.3775C21.4401 15.3559 21.4171 15.3221 21.4091 15.2836C21.4012 15.2451 21.4086 15.205 21.4295 15.1717C21.4505 15.1384 21.4836 15.1145 21.5217 15.105L22.5647 14.8718L23.487 14.6612ZM22.3421 20.2845C22.3148 20.2845 22.2875 20.2845 22.2601 20.2898C22.0641 20.3096 21.8727 20.3616 21.6937 20.4438L21.627 20.1259C21.7297 20.1346 21.8316 20.1432 21.9269 20.1432C22.5434 20.1397 23.1403 19.926 23.619 19.5374C23.7758 19.4217 23.9403 19.3168 24.1115 19.2235C24.0788 19.3182 24.0448 19.4128 24.0148 19.5081C23.9922 19.5748 23.9675 19.6414 23.9482 19.7127C23.8436 20.0366 23.7443 20.3625 23.6516 20.691L23.4151 20.5457C23.1311 20.3711 22.8041 20.2788 22.4707 20.2792H22.4581C22.4167 20.2778 22.3794 20.2825 22.3421 20.2845ZM18.0903 16.5252L18.3235 16.3292L18.1723 16.0627C18.0776 15.8959 18.0278 15.7074 18.0276 15.5155C18.0244 15.2359 18.1295 14.9658 18.3209 14.7619C18.5124 14.5581 18.7753 14.4362 19.0546 14.4219L19.4865 14.4033L19.3865 13.9734C19.3697 13.9047 19.361 13.8342 19.3605 13.7635C19.3592 13.5391 19.442 13.3224 19.5927 13.1561C19.7433 12.9898 19.9508 12.886 20.1742 12.8652L20.5028 12.8398V12.478C20.5064 12.321 20.5711 12.1715 20.683 12.0614C20.795 11.9513 20.9455 11.8892 21.1025 11.8882C21.2513 11.8883 21.3943 11.9452 21.5024 12.0474L21.7517 12.2774L21.9902 12.0361C22.0437 11.9819 22.1088 11.9407 22.1807 11.9156C22.2525 11.8906 22.3292 11.8823 22.4048 11.8915C22.5027 11.9067 22.5942 11.9497 22.6684 12.0154C22.7426 12.081 22.7963 12.1667 22.8233 12.262C22.8414 12.3248 22.847 12.3904 22.8399 12.4553L22.7986 12.8612H23.1985C23.4481 12.8646 23.6871 12.9624 23.8676 13.1348C24.0481 13.3073 24.1567 13.5416 24.1715 13.7908L24.1874 14.0301L24.408 14.1094C24.6808 14.209 24.9153 14.3919 25.0785 14.6322C25.2416 14.8725 25.325 15.1579 25.317 15.4482C25.3106 15.7064 25.2294 15.9571 25.0831 16.17C24.865 15.9896 24.6272 15.8347 24.374 15.7081C24.3181 15.6781 24.2648 15.6488 24.2094 15.6182C24.1982 15.6119 24.1886 15.603 24.1815 15.5922C24.1744 15.5814 24.1701 15.569 24.1688 15.5562C24.1656 15.5273 24.1684 15.4981 24.177 15.4703C24.1856 15.4426 24.1998 15.4169 24.2188 15.3949C24.2954 15.3029 24.3502 15.1947 24.3791 15.0785C24.4079 14.9623 24.4101 14.841 24.3854 14.7238L24.3427 14.5239C24.322 14.4248 24.2818 14.3307 24.2247 14.2471C24.1675 14.1635 24.0944 14.092 24.0095 14.0367C23.9264 13.9817 23.833 13.944 23.735 13.926C23.6369 13.908 23.5363 13.9101 23.439 13.9321L23.3437 13.9534L22.3008 14.1867L21.2825 14.4139C21.1846 14.436 21.0921 14.4774 21.0104 14.5356C20.9287 14.5939 20.8595 14.6678 20.8067 14.7531C20.6978 14.927 20.661 15.1364 20.704 15.3369L20.7254 15.4356L20.7467 15.5342C20.7717 15.6533 20.8246 15.7647 20.9011 15.8594C20.9775 15.954 21.0754 16.0292 21.1865 16.0787C21.2397 16.1008 21.2821 16.1429 21.3045 16.196C21.3138 16.2226 21.3085 16.2373 21.2878 16.2719C21.2525 16.3206 21.2145 16.3692 21.1759 16.4199L21.0552 16.5792C21.0412 16.5978 21.0279 16.6171 21.0146 16.6358C20.9853 16.6771 20.9559 16.7184 20.9266 16.7624C20.91 16.7864 20.8953 16.8104 20.8793 16.8351C20.8526 16.8795 20.8264 16.9239 20.8007 16.9684C20.7853 16.9943 20.7713 17.0203 20.7567 17.0477C20.73 17.0983 20.7054 17.1523 20.682 17.2063C20.672 17.2303 20.6607 17.2523 20.6514 17.2729C20.6188 17.3543 20.5917 17.4378 20.5701 17.5228C20.5667 17.5362 20.5654 17.5515 20.5621 17.5655C20.5444 17.6415 20.531 17.7185 20.5221 17.7961C20.5221 17.828 20.5174 17.8627 20.5161 17.8947C20.5148 17.9267 20.5081 17.978 20.5081 18.0226L20.5034 18.0173L20.4894 17.9987C20.4275 17.9153 20.3655 17.8387 20.3028 17.7661C20.2835 17.7434 20.2629 17.7208 20.2435 17.6994C20.1915 17.6414 20.1389 17.5875 20.0862 17.5368C20.0689 17.5202 20.0523 17.5028 20.0349 17.4868C19.9711 17.4282 19.9044 17.3728 19.835 17.3209C19.8163 17.3069 19.797 17.2956 19.7777 17.2822C19.727 17.2483 19.6771 17.2156 19.6257 17.1876C19.6011 17.1736 19.5764 17.1603 19.5511 17.1476C19.4991 17.1224 19.4457 17.1002 19.3912 17.081C19.3738 17.0743 19.3558 17.0657 19.3385 17.0597C19.2806 17.041 19.2216 17.0259 19.1619 17.0143C19.1552 17.0143 19.1486 17.0143 19.1426 17.0143C19.1366 17.0143 19.1179 17.0077 19.1066 17.0057C19.0653 16.9997 19.026 17.0017 18.986 16.999C18.9573 16.999 18.9293 16.9917 18.9007 16.9917C18.8927 16.9917 18.8833 16.9917 18.8747 16.9917C18.8202 16.9934 18.7659 16.9983 18.7121 17.0063C18.6854 17.0103 18.6594 17.0117 18.6328 17.017C18.5632 17.0301 18.4946 17.048 18.4275 17.0703L18.3969 17.0796C18.2194 17.1422 18.0508 17.2273 17.895 17.3329C17.8404 17.1936 17.8308 17.0406 17.8675 16.8955C17.9042 16.7505 17.9854 16.6205 18.0996 16.5238L18.0903 16.5252ZM15.8071 19.5434C16.0836 19.1694 16.4964 18.9194 16.956 18.8477C17.2551 18.7593 17.528 18.5992 17.7511 18.3812C17.8524 18.2819 17.9477 18.1986 18.039 18.1219C18.2492 17.9208 18.5114 17.7823 18.796 17.7221H18.8114C18.8799 17.714 18.9493 17.716 19.0173 17.7281C19.0346 17.7321 19.0519 17.7374 19.0699 17.7421C19.1034 17.75 19.1364 17.76 19.1686 17.7721C19.1899 17.7801 19.2112 17.7927 19.2352 17.8034C19.2592 17.8141 19.2965 17.8327 19.3279 17.852C19.3592 17.8714 19.3758 17.886 19.3998 17.9034C19.4238 17.9207 19.4578 17.9427 19.4865 17.97C19.5151 17.9973 19.5404 18.0193 19.5678 18.044C19.5951 18.0686 19.6217 18.0913 19.6491 18.1199C19.6764 18.1486 19.709 18.1866 19.739 18.2212C19.769 18.2559 19.7884 18.2752 19.813 18.3052C19.847 18.3465 19.8797 18.3938 19.915 18.4385C19.9363 18.4678 19.9576 18.4938 19.9816 18.5251C20.0209 18.5804 20.0596 18.6418 20.0989 18.7031C20.1162 18.7297 20.1336 18.7537 20.1509 18.7817C20.2073 18.8728 20.2642 18.9699 20.3215 19.0729C20.5907 19.6242 20.6729 20.2482 20.5554 20.8503C20.5368 20.8503 20.5181 20.8456 20.4994 20.843C20.3635 20.8208 20.2331 20.7731 20.1149 20.7024L19.8617 20.5464C19.5777 20.3718 19.2507 20.2795 18.9173 20.2798H18.8993C18.5616 20.2771 18.23 20.3695 17.9423 20.5464L17.8191 20.6217C17.6102 20.7529 17.3686 20.8225 17.122 20.8225C16.8753 20.8225 16.6337 20.7529 16.4249 20.6217L15.9464 20.3278C15.8849 20.2903 15.8172 20.2641 15.7465 20.2505C15.686 20.0148 15.7074 19.7655 15.8071 19.5434ZM28.9224 29.6572C28.9091 29.9979 28.7653 30.3204 28.5208 30.5581C28.2763 30.7958 27.9498 30.9304 27.6089 30.934H17.6325C17.2905 30.9301 16.9632 30.7945 16.7187 30.5555C16.4742 30.3164 16.3312 29.9923 16.3196 29.6505L15.7278 21.0536L16.037 21.2435C16.3645 21.4428 16.7406 21.5483 17.124 21.5483C17.5074 21.5483 17.8834 21.4428 18.2109 21.2435L18.3349 21.1675C18.5046 21.0611 18.701 21.0046 18.9013 21.0046C19.1017 21.0046 19.298 21.0611 19.4678 21.1675L19.7217 21.3235C20.0347 21.5146 20.3986 21.6055 20.7647 21.584C20.7967 21.584 20.8313 21.584 20.8613 21.5794C20.8651 21.5792 20.8689 21.5792 20.8726 21.5794C21.1198 21.5505 21.3583 21.4706 21.573 21.3448C21.5943 21.3403 21.615 21.3339 21.635 21.3255L21.8883 21.1695C22.058 21.0631 22.2544 21.0066 22.4547 21.0066C22.6551 21.0066 22.8514 21.0631 23.0212 21.1695L23.2751 21.3255C23.5368 21.4854 23.835 21.5758 24.1415 21.588H24.1595C24.2634 21.5923 24.3676 21.5872 24.4707 21.5727C24.5292 21.5637 24.5873 21.5517 24.6446 21.5367C24.6726 21.5301 24.6999 21.5234 24.7279 21.5154C24.8883 21.473 25.0419 21.4084 25.1844 21.3235L25.4377 21.1682C25.6074 21.0617 25.8038 21.0053 26.0041 21.0053C26.2045 21.0053 26.4008 21.0617 26.5706 21.1682L26.8245 21.3235C27.1107 21.4992 27.4403 21.5915 27.7762 21.59H27.7928C28.1189 21.5897 28.4388 21.501 28.7185 21.3335L29.4162 21.0169C29.4299 21.0081 29.443 20.9985 29.4556 20.9883L29.5095 20.9636L28.9224 29.6572Z" fill="#7EA2C1"/>
<path d="M17.2142 26.6394H19.794C19.8917 26.6394 19.9855 26.6006 20.0546 26.5315C20.1237 26.4624 20.1625 26.3686 20.1625 26.2709C20.1625 26.1731 20.1237 26.0794 20.0546 26.0103C19.9855 25.9412 19.8917 25.9023 19.794 25.9023H17.2142C17.1165 25.9023 17.0228 25.9412 16.9536 26.0103C16.8845 26.0794 16.8457 26.1731 16.8457 26.2709C16.8457 26.3686 16.8845 26.4624 16.9536 26.5315C17.0228 26.6006 17.1165 26.6394 17.2142 26.6394Z" fill="#7EA2C1"/>
<path d="M17.2136 28.0929H20.5304C20.5812 28.0973 20.6323 28.091 20.6805 28.0745C20.7287 28.0581 20.773 28.0318 20.8105 27.9973C20.8481 27.9629 20.878 27.921 20.8985 27.8744C20.919 27.8277 20.9296 27.7773 20.9296 27.7264C20.9296 27.6754 20.919 27.6251 20.8985 27.5784C20.878 27.5318 20.8481 27.4899 20.8105 27.4554C20.773 27.421 20.7287 27.3947 20.6805 27.3782C20.6323 27.3618 20.5812 27.3555 20.5304 27.3599H17.2136C17.1628 27.3555 17.1117 27.3618 17.0635 27.3782C17.0153 27.3947 16.971 27.421 16.9335 27.4554C16.896 27.4899 16.866 27.5318 16.8455 27.5784C16.825 27.6251 16.8145 27.6754 16.8145 27.7264C16.8145 27.7773 16.825 27.8277 16.8455 27.8744C16.866 27.921 16.896 27.9629 16.9335 27.9973C16.971 28.0318 17.0153 28.0581 17.0635 28.0745C17.1117 28.091 17.1628 28.0973 17.2136 28.0929Z" fill="#7EA2C1"/>
<path d="M21.2681 28.7786H17.2142C17.1165 28.7786 17.0228 28.8174 16.9536 28.8865C16.8845 28.9556 16.8457 29.0494 16.8457 29.1471C16.8457 29.2448 16.8845 29.3386 16.9536 29.4077C17.0228 29.4768 17.1165 29.5156 17.2142 29.5156H21.2681C21.3659 29.5156 21.4596 29.4768 21.5287 29.4077C21.5978 29.3386 21.6367 29.2448 21.6367 29.1471C21.6367 29.0494 21.5978 28.9556 21.5287 28.8865C21.4596 28.8174 21.3659 28.7786 21.2681 28.7786Z" fill="#7EA2C1"/>
<path d="M23.1915 28.7787H22.4545C22.3567 28.7787 22.263 28.8175 22.1939 28.8866C22.1248 28.9557 22.0859 29.0495 22.0859 29.1472C22.0859 29.245 22.1248 29.3387 22.1939 29.4078C22.263 29.4769 22.3567 29.5158 22.4545 29.5158H23.1909C23.2886 29.5158 23.3824 29.4769 23.4515 29.4078C23.5206 29.3387 23.5594 29.245 23.5594 29.1472C23.5594 29.0495 23.5206 28.9557 23.4515 28.8866C23.3824 28.8175 23.2886 28.7787 23.1909 28.7787H23.1915Z" fill="#7EA2C1"/>
<defs>
<filter id="filter0_ddddd_3_6206" x="0" y="0" width="46" height="50" filterUnits="userSpaceOnUse" color-interpolation-filters="sRGB">
<feFlood flood-opacity="0" result="BackgroundImageFix"/>
<feColorMatrix in="SourceAlpha" type="matrix" values="0 0 0 0 0 0 0 0 0 0 0 0 0 0 0 0 0 0 127 0" result="hardAlpha"/>
<feOffset/>
<feColorMatrix type="matrix" values="0 0 0 0 0 0 0 0 0 0 0 0 0 0 0 0 0 0 0.1 0"/>
<feBlend mode="normal" in2="BackgroundImageFix" result="effect1_dropShadow_3_6206"/>
<feColorMatrix in="SourceAlpha" type="matrix" values="0 0 0 0 0 0 0 0 0 0 0 0 0 0 0 0 0 0 127 0" result="hardAlpha"/>
<feOffset/>
<feGaussianBlur stdDeviation="0.5"/>
<feColorMatrix type="matrix" values="0 0 0 0 0 0 0 0 0 0 0 0 0 0 0 0 0 0 0.1 0"/>
<feBlend mode="normal" in2="effect1_dropShadow_3_6206" result="effect2_dropShadow_3_6206"/>
<feColorMatrix in="SourceAlpha" type="matrix" values="0 0 0 0 0 0 0 0 0 0 0 0 0 0 0 0 0 0 127 0" result="hardAlpha"/>
<feOffset dy="2"/>
<feGaussianBlur stdDeviation="1"/>
<feColorMatrix type="matrix" values="0 0 0 0 0 0 0 0 0 0 0 0 0 0 0 0 0 0 0.09 0"/>
<feBlend mode="normal" in2="effect2_dropShadow_3_6206" result="effect3_dropShadow_3_6206"/>
<feColorMatrix in="SourceAlpha" type="matrix" values="0 0 0 0 0 0 0 0 0 0 0 0 0 0 0 0 0 0 127 0" result="hardAlpha"/>
<feOffset dy="4"/>
<feGaussianBlur stdDeviation="1"/>
<feColorMatrix type="matrix" values="0 0 0 0 0 0 0 0 0 0 0 0 0 0 0 0 0 0 0.05 0"/>
<feBlend mode="normal" in2="effect3_dropShadow_3_6206" result="effect4_dropShadow_3_6206"/>
<feColorMatrix in="SourceAlpha" type="matrix" values="0 0 0 0 0 0 0 0 0 0 0 0 0 0 0 0 0 0 127 0" result="hardAlpha"/>
<feOffset dy="6"/>
<feGaussianBlur stdDeviation="1.5"/>
<feColorMatrix type="matrix" values="0 0 0 0 0 0 0 0 0 0 0 0 0 0 0 0 0 0 0.01 0"/>
<feBlend mode="normal" in2="effect4_dropShadow_3_6206" result="effect5_dropShadow_3_6206"/>
<feBlend mode="normal" in="SourceGraphic" in2="effect5_dropShadow_3_6206" result="shape"/>
</filter>
</defs>
</svg>
