<svg width="22" height="17" viewBox="0 0 22 17" fill="none" xmlns="http://www.w3.org/2000/svg">
<path fill-rule="evenodd" clip-rule="evenodd" d="M0.474665 0C0.212505 0 0 0.212499 0 0.474788V1.89888C0 2.16103 0.212499 2.37354 0.474665 2.37354H2.61098C2.87314 2.37354 3.08565 2.16104 3.08565 1.89888V0.474788C3.08565 0.212508 2.87315 0 2.61098 0H0.474665ZM0.474665 7.12074C0.212505 7.12074 0 7.33324 0 7.59553V9.01962C0 9.28178 0.212499 9.49428 0.474665 9.49428H2.61098C2.87314 9.49428 3.08565 9.28178 3.08565 9.01962V7.59553C3.08565 7.33325 2.87315 7.12074 2.61098 7.12074H0.474665ZM0 14.7161C0 14.4539 0.212499 14.2414 0.474665 14.2414H2.61098C2.87314 14.2414 3.08565 14.4539 3.08565 14.7161V16.1403C3.08565 16.4024 2.87315 16.6149 2.61098 16.6149H0.474665C0.212505 16.6149 0 16.4024 0 16.1403L0 14.7161ZM5.45912 0C5.19696 0 4.98446 0.212499 4.98446 0.474788V1.89888C4.98446 2.16103 5.19696 2.37354 5.45912 2.37354H21.1249C21.3871 2.37354 21.5996 2.16104 21.5996 1.89888V0.474788C21.5996 0.212508 21.3871 0 21.1249 0H5.45912ZM5.45912 7.12074C5.19696 7.12074 4.98446 7.33324 4.98446 7.59553V9.01962C4.98446 9.28178 5.19696 9.49428 5.45912 9.49428H21.1249C21.3871 9.49428 21.5996 9.28178 21.5996 9.01962V7.59553C21.5996 7.33325 21.3871 7.12074 21.1249 7.12074H5.45912ZM4.98446 14.7161C4.98446 14.4539 5.19696 14.2414 5.45912 14.2414H21.1249C21.3871 14.2414 21.5996 14.4539 21.5996 14.7161V16.1403C21.5996 16.4024 21.3871 16.6149 21.1249 16.6149H5.45912C5.19696 16.6149 4.98446 16.4024 4.98446 16.1403V14.7161Z" fill="#2D2659"/>
</svg>
