<svg width="46" height="50" viewBox="0 0 46 50" fill="none" xmlns="http://www.w3.org/2000/svg">
<g filter="url(#filter0_ddddd_3_6133)">
<circle cx="23" cy="21" r="20" fill="white"/>
</g>
<circle cx="23" cy="21" r="16.6" stroke="#DA5832" stroke-width="0.8"/>
<path d="M32.4845 15.7379C31.6142 15.1214 30.465 15.1497 29.6238 15.8073L26.5462 18.2203C26.3973 17.8776 26.1344 17.6068 25.7958 17.4544C24.9951 17.0945 24.2057 17.0045 23.1129 16.88C22.8794 16.8532 22.6307 16.825 22.3635 16.7919C22.2043 16.772 22.0422 16.7071 21.8369 16.6249C21.3373 16.4246 20.653 16.1499 19.4156 16.3169C18.1151 16.4917 16.1888 18.5449 15.7236 19.0602L13.3273 20.0649C13.0582 20.1778 12.9293 20.4929 13.0393 20.7689C13.1227 20.9778 13.3192 21.1046 13.5267 21.1046C13.5929 21.1046 13.6605 21.0915 13.7257 21.0644L16.2314 20.0135C16.3042 19.983 16.3696 19.936 16.4225 19.8761C17.2237 18.9686 18.7818 17.4907 19.5528 17.3871C20.522 17.2569 20.9959 17.4468 21.4541 17.6302C21.6958 17.7272 21.9457 17.8273 22.2374 17.8633C22.508 17.897 22.7602 17.9256 22.9969 17.9528C24.0343 18.0713 24.7198 18.1494 25.3734 18.4431C25.4771 18.4899 25.5563 18.5748 25.5961 18.6825C25.6357 18.7891 25.632 18.9055 25.5853 19.0099C25.5181 19.1602 25.3705 19.2575 25.2091 19.2575H21.0369C20.7461 19.2575 20.5106 19.499 20.5106 19.7972C20.5106 20.0953 20.7461 20.3369 21.0369 20.3369H25.2087C25.6966 20.3369 26.1474 20.0847 26.4176 19.6802L30.2624 16.6652C30.7392 16.2922 31.3921 16.2767 31.8866 16.6267C31.9412 16.6655 31.9472 16.7228 31.9472 16.7458C31.9472 16.7744 31.9391 16.8163 31.8998 16.8524L27.046 21.3463C26.7454 21.6234 26.3597 21.7758 25.9598 21.7758H20.5831C20.5163 21.7758 20.4501 21.7889 20.3879 21.8142L18.4994 22.587C18.463 22.6019 18.4284 22.6209 18.396 22.6439L16.0425 24.3063C15.8031 24.4754 15.7426 24.8114 15.9075 25.0568C16.0097 25.2088 16.1742 25.2904 16.3415 25.2904C16.4444 25.2904 16.5482 25.2597 16.6394 25.1951L18.9444 23.5671L20.6841 22.8551H25.9598C26.6199 22.8551 27.2554 22.6043 27.7505 22.1482L32.6047 17.6543C32.8559 17.4226 33 17.0914 33 16.7458C33 16.343 32.807 15.9662 32.4842 15.7381L32.4845 15.7379Z" fill="#DA5832"/>
<defs>
<filter id="filter0_ddddd_3_6133" x="0" y="0" width="46" height="50" filterUnits="userSpaceOnUse" color-interpolation-filters="sRGB">
<feFlood flood-opacity="0" result="BackgroundImageFix"/>
<feColorMatrix in="SourceAlpha" type="matrix" values="0 0 0 0 0 0 0 0 0 0 0 0 0 0 0 0 0 0 127 0" result="hardAlpha"/>
<feOffset/>
<feColorMatrix type="matrix" values="0 0 0 0 0 0 0 0 0 0 0 0 0 0 0 0 0 0 0.1 0"/>
<feBlend mode="normal" in2="BackgroundImageFix" result="effect1_dropShadow_3_6133"/>
<feColorMatrix in="SourceAlpha" type="matrix" values="0 0 0 0 0 0 0 0 0 0 0 0 0 0 0 0 0 0 127 0" result="hardAlpha"/>
<feOffset/>
<feGaussianBlur stdDeviation="0.5"/>
<feColorMatrix type="matrix" values="0 0 0 0 0 0 0 0 0 0 0 0 0 0 0 0 0 0 0.1 0"/>
<feBlend mode="normal" in2="effect1_dropShadow_3_6133" result="effect2_dropShadow_3_6133"/>
<feColorMatrix in="SourceAlpha" type="matrix" values="0 0 0 0 0 0 0 0 0 0 0 0 0 0 0 0 0 0 127 0" result="hardAlpha"/>
<feOffset dy="2"/>
<feGaussianBlur stdDeviation="1"/>
<feColorMatrix type="matrix" values="0 0 0 0 0 0 0 0 0 0 0 0 0 0 0 0 0 0 0.09 0"/>
<feBlend mode="normal" in2="effect2_dropShadow_3_6133" result="effect3_dropShadow_3_6133"/>
<feColorMatrix in="SourceAlpha" type="matrix" values="0 0 0 0 0 0 0 0 0 0 0 0 0 0 0 0 0 0 127 0" result="hardAlpha"/>
<feOffset dy="4"/>
<feGaussianBlur stdDeviation="1"/>
<feColorMatrix type="matrix" values="0 0 0 0 0 0 0 0 0 0 0 0 0 0 0 0 0 0 0.05 0"/>
<feBlend mode="normal" in2="effect3_dropShadow_3_6133" result="effect4_dropShadow_3_6133"/>
<feColorMatrix in="SourceAlpha" type="matrix" values="0 0 0 0 0 0 0 0 0 0 0 0 0 0 0 0 0 0 127 0" result="hardAlpha"/>
<feOffset dy="6"/>
<feGaussianBlur stdDeviation="1.5"/>
<feColorMatrix type="matrix" values="0 0 0 0 0 0 0 0 0 0 0 0 0 0 0 0 0 0 0.01 0"/>
<feBlend mode="normal" in2="effect4_dropShadow_3_6133" result="effect5_dropShadow_3_6133"/>
<feBlend mode="normal" in="SourceGraphic" in2="effect5_dropShadow_3_6133" result="shape"/>
</filter>
</defs>
</svg>
