<svg width="46" height="50" viewBox="0 0 46 50" fill="none" xmlns="http://www.w3.org/2000/svg">
<g filter="url(#filter0_ddddd_3_6326)">
<circle cx="23" cy="21" r="20" fill="white"/>
</g>
<circle cx="23" cy="21" r="16.6" stroke="#3EA9CB" stroke-width="0.8"/>
<path d="M22.2244 24.1634L18.5355 24.1729H18.5353C18.3574 24.1729 18.2132 24.3172 18.2132 24.495C18.2132 24.6729 18.3574 24.8171 18.5353 24.8171L21.9012 24.8085V28.4671L17.1569 28.4673C17.0398 28.4667 16.9312 28.406 16.8696 28.3066L16.1467 27.1277L18.9224 22.3215L19.3677 22.5874C19.4822 22.6549 19.6261 22.6451 19.7307 22.5631C19.835 22.4811 19.8785 22.3435 19.8402 22.2164L18.6437 18.3015V18.3013C18.597 18.1479 18.4444 18.0523 18.2859 18.0772L14.1299 18.7296C13.9956 18.7507 13.889 18.854 13.8636 18.9876C13.8381 19.1211 13.8994 19.2562 14.0164 19.3252L14.7109 19.7371L13.0425 22.6244C12.9858 22.7232 12.9858 22.8447 13.0425 22.9435L15.4905 27.291L15.4944 27.2949V27.3013L16.3176 28.6434C16.4969 28.9333 16.813 29.1102 17.1538 29.1116H22.2216C22.3995 29.1116 22.5437 28.9674 22.5437 28.7895V24.4858C22.5437 24.4004 22.5099 24.3185 22.4494 24.2579C22.389 24.1975 22.3071 24.1636 22.2216 24.1637L22.2244 24.1634ZM15.4285 19.7799C15.5171 19.6269 15.4655 19.431 15.3129 19.3415L15.1175 19.226L18.11 18.7569L18.9806 21.6065L18.9715 21.6009H18.9717C18.8976 21.5567 18.8089 21.544 18.7253 21.5657C18.6419 21.5874 18.5706 21.6418 18.5275 21.7164L15.7749 26.4835L13.6921 22.7902L15.4285 19.7799Z" fill="#3EA9CB"/>
<path d="M33.483 22.2602L30.9491 17.8712V17.8713C30.8601 17.7175 30.6633 17.6647 30.5093 17.7536L26.7821 19.9052C26.708 19.948 26.6541 20.0186 26.6321 20.1013C26.6101 20.1838 26.6219 20.2718 26.6649 20.3459L28.5171 23.5356C28.6064 23.6897 28.8038 23.7423 28.958 23.653C29.1121 23.5637 29.1648 23.3663 29.0755 23.2121L27.3854 20.3016L30.5537 18.4725L32.9265 22.5825C32.9846 22.6842 32.9861 22.8084 32.9308 22.9115L32.2715 24.1269H26.7203L26.7276 23.6081C26.7299 23.4746 26.6497 23.3536 26.5257 23.3037C26.4019 23.2538 26.26 23.2855 26.1692 23.3835L23.3777 26.3773V26.3774C23.2683 26.4946 23.2617 26.6745 23.3622 26.7995L26.0056 30.0729V30.073C26.0909 30.1791 26.2337 30.2201 26.3622 30.1754C26.4908 30.1307 26.5772 30.0099 26.5781 29.8737L26.5854 29.0672H29.9212C30.0349 29.0673 30.1403 29.0072 30.1981 28.9091L32.738 24.6143V24.6078L32.7423 24.6035L33.4931 23.2198V23.2199C33.6557 22.9198 33.652 22.557 33.4832 22.2604L33.483 22.2602ZM29.7385 28.4222H26.2662C26.0896 28.4225 25.946 28.5647 25.9441 28.7413V28.9684L24.0415 26.6115L26.0738 24.4333V24.4436C26.0727 24.5298 26.106 24.6129 26.1666 24.6743C26.2271 24.7357 26.3098 24.7703 26.3959 24.7703H31.8967L29.7385 28.4222Z" fill="#3EA9CB"/>
<path d="M22.8827 14.7078C22.7284 14.6193 22.5317 14.6725 22.443 14.8267L20.7681 17.747L17.5989 15.9149L19.9658 11.8152V11.8153C20.0261 11.7109 20.1374 11.6467 20.2579 11.6465H21.6347L24.4104 16.4089L23.9586 16.6609C23.8421 16.7261 23.778 16.8561 23.797 16.9881C23.8159 17.1201 23.9144 17.2266 24.0444 17.2563L28.0308 18.1783C28.0548 18.1835 28.0792 18.1862 28.1038 18.1865C28.237 18.1865 28.3565 18.1045 28.4045 17.9803L29.9206 14.0539C29.9693 13.9271 29.9331 13.7833 29.8303 13.6944C29.7273 13.6057 29.5798 13.5912 29.4614 13.6579L28.7571 14.0557L27.0495 11.1585C26.9916 11.0603 26.886 10.9999 26.772 11L21.8215 11.0043H20.2575C19.9069 11.005 19.5832 11.192 19.4075 11.4952L16.8801 15.8718C16.8373 15.9457 16.8258 16.0337 16.8479 16.1164C16.8701 16.1989 16.9241 16.2692 16.9982 16.3119L20.7247 18.4636C20.7988 18.5064 20.8869 18.5181 20.9695 18.4958C21.0522 18.4736 21.1227 18.4193 21.1652 18.3451L23.0017 15.1459C23.0892 14.9919 23.0362 14.7962 22.8827 14.7075L22.8827 14.7078ZM26.5878 11.6443L28.3602 14.6554V14.6553C28.4491 14.8071 28.6435 14.8595 28.7966 14.7726L28.9942 14.6609L27.9047 17.4872L25.0017 16.8168L25.0108 16.8121C25.0863 16.7699 25.1416 16.6992 25.1645 16.6158C25.1872 16.5322 25.1756 16.4432 25.1318 16.3684L22.3803 11.6481L26.5878 11.6443Z" fill="#3EA9CB"/>
<defs>
<filter id="filter0_ddddd_3_6326" x="0" y="0" width="46" height="50" filterUnits="userSpaceOnUse" color-interpolation-filters="sRGB">
<feFlood flood-opacity="0" result="BackgroundImageFix"/>
<feColorMatrix in="SourceAlpha" type="matrix" values="0 0 0 0 0 0 0 0 0 0 0 0 0 0 0 0 0 0 127 0" result="hardAlpha"/>
<feOffset/>
<feColorMatrix type="matrix" values="0 0 0 0 0 0 0 0 0 0 0 0 0 0 0 0 0 0 0.1 0"/>
<feBlend mode="normal" in2="BackgroundImageFix" result="effect1_dropShadow_3_6326"/>
<feColorMatrix in="SourceAlpha" type="matrix" values="0 0 0 0 0 0 0 0 0 0 0 0 0 0 0 0 0 0 127 0" result="hardAlpha"/>
<feOffset/>
<feGaussianBlur stdDeviation="0.5"/>
<feColorMatrix type="matrix" values="0 0 0 0 0 0 0 0 0 0 0 0 0 0 0 0 0 0 0.1 0"/>
<feBlend mode="normal" in2="effect1_dropShadow_3_6326" result="effect2_dropShadow_3_6326"/>
<feColorMatrix in="SourceAlpha" type="matrix" values="0 0 0 0 0 0 0 0 0 0 0 0 0 0 0 0 0 0 127 0" result="hardAlpha"/>
<feOffset dy="2"/>
<feGaussianBlur stdDeviation="1"/>
<feColorMatrix type="matrix" values="0 0 0 0 0 0 0 0 0 0 0 0 0 0 0 0 0 0 0.09 0"/>
<feBlend mode="normal" in2="effect2_dropShadow_3_6326" result="effect3_dropShadow_3_6326"/>
<feColorMatrix in="SourceAlpha" type="matrix" values="0 0 0 0 0 0 0 0 0 0 0 0 0 0 0 0 0 0 127 0" result="hardAlpha"/>
<feOffset dy="4"/>
<feGaussianBlur stdDeviation="1"/>
<feColorMatrix type="matrix" values="0 0 0 0 0 0 0 0 0 0 0 0 0 0 0 0 0 0 0.05 0"/>
<feBlend mode="normal" in2="effect3_dropShadow_3_6326" result="effect4_dropShadow_3_6326"/>
<feColorMatrix in="SourceAlpha" type="matrix" values="0 0 0 0 0 0 0 0 0 0 0 0 0 0 0 0 0 0 127 0" result="hardAlpha"/>
<feOffset dy="6"/>
<feGaussianBlur stdDeviation="1.5"/>
<feColorMatrix type="matrix" values="0 0 0 0 0 0 0 0 0 0 0 0 0 0 0 0 0 0 0.01 0"/>
<feBlend mode="normal" in2="effect4_dropShadow_3_6326" result="effect5_dropShadow_3_6326"/>
<feBlend mode="normal" in="SourceGraphic" in2="effect5_dropShadow_3_6326" result="shape"/>
</filter>
</defs>
</svg>
