<svg width="46" height="50" viewBox="0 0 46 50" fill="none" xmlns="http://www.w3.org/2000/svg">
<g filter="url(#filter0_ddddd_3_6300)">
<circle cx="23" cy="21" r="20" fill="white"/>
</g>
<circle cx="23" cy="21" r="16.6" stroke="#38618C" stroke-width="0.8"/>
<path d="M27.6303 15.1306H25.8819C25.468 15.1306 25.079 14.9691 24.7865 14.6767C24.494 14.3842 24.333 13.9956 24.333 13.5817V13.5697L24.3466 11.4107V11.4098C24.3482 11.1838 24.5333 11 24.7596 11H24.7621C24.8725 11.0009 24.9762 11.0443 25.0533 11.1227C25.1311 11.2012 25.1736 11.3054 25.1727 11.4155L25.1591 13.5815V13.5819C25.16 13.9793 25.4842 14.3036 25.8819 14.3043L27.6303 14.3045C27.8579 14.3045 28.0434 14.4899 28.0434 14.7175C28.0434 14.9452 27.8579 15.1306 27.6303 15.1306Z" fill="#38618C"/>
<path d="M20.3837 25.8696H16.0654C15.8378 25.8696 15.6523 25.6841 15.6523 25.4565C15.6523 25.2285 15.8378 25.0435 16.0654 25.0435H20.3837C20.6113 25.0435 20.7967 25.2284 20.7967 25.4565C20.7967 25.6841 20.6113 25.8696 20.3837 25.8696Z" fill="#38618C"/>
<path d="M19.783 24.6301H17.7177C17.4901 24.6301 17.3047 24.4446 17.3047 24.217C17.3047 23.9894 17.4901 23.804 17.7177 23.804H19.783C20.0106 23.804 20.196 23.9894 20.196 24.217C20.196 24.4446 20.0106 24.6301 19.783 24.6301Z" fill="#38618C"/>
<path d="M18.3185 23.3914H16.0654C15.8378 23.3914 15.6523 23.2059 15.6523 22.9783C15.6523 22.7507 15.8378 22.5652 16.0654 22.5652H18.3185C18.5462 22.5652 18.7316 22.7507 18.7316 22.9783C18.7316 23.2059 18.5462 23.3914 18.3185 23.3914Z" fill="#38618C"/>
<path d="M18.3185 22.1522H16.0654C15.8378 22.1522 15.6523 21.9668 15.6523 21.7392C15.6523 21.5115 15.8378 21.3261 16.0654 21.3261H18.3185C18.5462 21.3261 18.7311 21.5115 18.7311 21.7392C18.7311 21.9668 18.5462 22.1522 18.3185 22.1522Z" fill="#38618C"/>
<path d="M24.3262 27.1087H16.0654C15.8378 27.1087 15.6523 26.9233 15.6523 26.6957C15.6523 26.468 15.8378 26.2826 16.0654 26.2826H24.3262C24.5538 26.2826 24.7393 26.468 24.7393 26.6957C24.7393 26.9233 24.5539 27.1087 24.3262 27.1087Z" fill="#38618C"/>
<path d="M21.4898 18.8481H16.7263C16.4392 18.8481 16.1696 18.7361 15.9671 18.5333C15.7643 18.3309 15.6523 18.0612 15.6523 17.7741V14.8002C15.6523 14.5132 15.7643 14.2438 15.9671 14.0411C16.1695 13.8383 16.4392 13.7263 16.7263 13.7263H21.4898C21.7768 13.7263 22.0465 13.8383 22.2493 14.0411C22.4522 14.2439 22.5637 14.5132 22.5637 14.8002V17.7741C22.5637 18.0612 22.4522 18.3308 22.2493 18.5333C22.0466 18.7361 21.7768 18.8481 21.4898 18.8481ZM16.7263 14.5524C16.59 14.5524 16.4784 14.664 16.4784 14.8003V17.7741C16.4784 17.9105 16.59 18.022 16.7263 18.022H21.4898C21.6265 18.022 21.7376 17.9105 21.7376 17.7741V14.8003C21.7376 14.664 21.6265 14.5524 21.4898 14.5524H16.7263Z" fill="#38618C"/>
<path d="M20.3624 14.5526H17.8564C17.7478 14.5526 17.6412 14.5084 17.5643 14.4316C17.4875 14.3548 17.4434 14.2483 17.4434 14.1396V13.4374C17.4438 13.2276 17.5251 13.0306 17.6735 12.8827C17.8217 12.7345 18.0188 12.6526 18.2282 12.6526H19.9907C20.2004 12.6526 20.3975 12.7343 20.5453 12.8827C20.6937 13.0305 20.7755 13.2276 20.7755 13.4374V14.1396C20.7755 14.2481 20.7312 14.3548 20.6545 14.4316C20.5776 14.5084 20.471 14.5526 20.3624 14.5526H20.3624ZM18.2694 13.7265H19.9493V13.4787H18.2694V13.7265Z" fill="#38618C"/>
<path d="M22.1507 16.3422H16.0654C15.8378 16.3422 15.6523 16.1572 15.6523 15.9291C15.6523 15.7015 15.8378 15.5161 16.0654 15.5161H22.1507C22.3787 15.5161 22.5637 15.7015 22.5637 15.9291C22.5637 16.1572 22.3787 16.3422 22.1507 16.3422Z" fill="#38618C"/>
<path d="M20.7197 17.0305C20.4916 17.0305 20.3066 16.8455 20.3066 16.6174V15.5435C20.3066 15.3159 20.4916 15.1304 20.7197 15.1304C20.9473 15.1304 21.1328 15.3159 21.1328 15.5435V16.6174C21.1328 16.8455 20.9472 17.0305 20.7197 17.0305Z" fill="#38618C"/>
<path d="M17.497 17.0305C17.269 17.0305 17.084 16.845 17.084 16.6174V15.5435C17.084 15.3159 17.269 15.1304 17.497 15.1304C17.7247 15.1304 17.9101 15.3159 17.9101 15.5435V16.6174C17.9101 16.845 17.7245 17.0305 17.497 17.0305Z" fill="#38618C"/>
<path d="M31.7466 27.935H31.7449H31.7433C31.5914 27.935 31.4427 27.9057 31.3014 27.8483C31.1552 27.7888 31.0242 27.7021 30.9127 27.5901L28.5026 25.18C28.4154 25.0933 28.3713 24.9678 28.384 24.845C28.3968 24.7223 28.4661 24.6092 28.5694 24.5419C28.9503 24.2945 29.2828 23.9628 29.5314 23.5828C29.5986 23.4795 29.7119 23.4105 29.8345 23.3978C29.9568 23.3854 30.0823 23.43 30.1691 23.5167L32.5771 25.9247C32.5771 25.9247 32.5771 25.9252 32.5776 25.9252C32.6895 26.0371 32.7767 26.168 32.8361 26.3147C32.8935 26.4564 32.9224 26.6055 32.922 26.7576C32.9224 26.91 32.8935 27.0587 32.8361 27.2007C32.7763 27.3469 32.6895 27.4783 32.5771 27.5903C32.4656 27.7023 32.3346 27.789 32.1884 27.8484C32.0474 27.9057 31.8985 27.935 31.7466 27.935L31.7466 27.935ZM29.4248 24.9343L31.4967 27.0061C31.5636 27.0726 31.6495 27.1082 31.7449 27.1089C31.8404 27.108 31.9262 27.0726 31.9937 27.0061C32.0602 26.9388 32.0957 26.8528 32.096 26.7574C32.0956 26.6624 32.06 26.5765 31.9937 26.5091C31.9932 26.5091 31.9932 26.5091 31.9932 26.5087L29.9222 24.4382C29.7713 24.617 29.6042 24.7839 29.4248 24.9343Z" fill="#38618C"/>
<path d="M26.4947 30H21.7988C21.5707 30 21.3853 29.8145 21.3853 29.5869C21.3853 29.3593 21.5707 29.1738 21.7988 29.1738H26.4947C26.8924 29.1729 27.2166 28.8487 27.2175 28.451V25.8736C27.0739 25.889 26.928 25.8968 26.7834 25.8968H26.7825C26.2278 25.8968 25.6896 25.7882 25.1831 25.5737C24.6941 25.3668 24.2547 25.0707 23.8775 24.6935C23.5005 24.3163 23.2038 23.8768 22.9969 23.3878C22.783 22.8814 22.6742 22.3433 22.6742 21.7889C22.6742 21.2343 22.7828 20.696 22.9969 20.1896C23.2038 19.7006 23.5003 19.2611 23.8775 18.8839C24.2546 18.5064 24.6941 18.2102 25.1831 18.0033C25.6896 17.7894 26.2277 17.6806 26.7825 17.6806C26.9275 17.6806 27.0737 17.688 27.2174 17.7034V14.4544L26.1286 13.366C25.6443 12.8819 25.1854 12.4229 24.589 11.8261H18.7409C18.5128 11.8261 18.3278 11.6407 18.3278 11.4131C18.3278 11.1854 18.5128 11 18.7409 11H24.76C24.8686 11 24.9753 11.0443 25.052 11.121L27.9226 13.9916C28.0007 14.0696 28.0437 14.1733 28.0437 14.2837V18.1919C28.0437 18.3187 27.9868 18.4367 27.8872 18.5157C27.7893 18.593 27.658 18.6222 27.5361 18.5937C27.2904 18.5359 27.0368 18.5069 26.7828 18.5069C25.9063 18.5069 25.0822 18.8486 24.4619 19.4681C23.8424 20.0886 23.5007 20.9126 23.5007 21.789C23.5007 22.6647 23.8424 23.4891 24.4619 24.1094C25.0824 24.7289 25.9064 25.0706 26.7828 25.0706C27.0359 25.0706 27.2897 25.0412 27.5361 24.9834C27.6592 24.9541 27.7881 24.983 27.8872 25.0614C27.9868 25.1404 28.0437 25.2585 28.0437 25.3852V28.4509C28.0437 28.8648 27.8826 29.2534 27.5903 29.5463C27.2977 29.8387 26.9087 29.9998 26.4948 29.9998L26.4947 30ZM19.7335 30C19.5054 30 19.3204 29.8145 19.3204 29.5869C19.3204 29.3593 19.5054 29.1738 19.7335 29.1738C19.9611 29.1738 20.1465 29.3593 20.1465 29.5869C20.1465 29.8145 19.9611 30 19.7335 30ZM17.6683 30H15.5489C15.135 30 14.746 29.8389 14.4535 29.5465C14.1611 29.2535 14 28.865 14 28.451V12.5491C14 12.1583 14.1455 11.7859 14.4098 11.4995C14.4878 11.4149 14.5986 11.3665 14.7138 11.3665C14.8175 11.3665 14.9171 11.4053 14.9935 11.4759C15.0778 11.5532 15.1261 11.663 15.1266 11.7775C15.1275 11.8819 15.0885 11.9824 15.0176 12.0592C14.8922 12.1955 14.8261 12.3649 14.8261 12.5491V28.451C14.827 28.8487 15.1512 29.173 15.5489 29.1739H17.6683C17.8959 29.1739 18.0813 29.3593 18.0813 29.5869C18.0813 29.8146 17.8959 30 17.6683 30L17.6683 30ZM16.6753 11.8262C16.4473 11.8262 16.2623 11.6407 16.2623 11.4131C16.2623 11.1855 16.4473 11 16.6753 11C16.9029 11 17.0884 11.1855 17.0884 11.4131C17.0884 11.6407 16.9028 11.8262 16.6753 11.8262Z" fill="#38618C"/>
<path d="M26.785 25.897H26.7841C26.2294 25.897 25.6912 25.7885 25.1847 25.574C24.6957 25.367 24.2563 25.071 23.8791 24.6937C23.502 24.3166 23.2054 23.8771 22.9988 23.3881C22.7845 22.8817 22.6758 22.3436 22.6758 21.7887C22.6758 21.2344 22.7844 20.6962 22.9984 20.1898C23.2054 19.7008 23.5019 19.2614 23.879 18.8842C24.2561 18.5067 24.6957 18.2105 25.1847 18.0035C25.6911 17.7896 26.2292 17.6809 26.7841 17.6809H26.7849C27.1021 17.6809 27.419 17.7172 27.7267 17.7895C27.7267 17.7895 27.7271 17.7895 27.7271 17.7899C27.8258 17.8131 27.9118 17.8713 27.97 17.9543C28.0645 17.9187 28.1694 17.9191 28.2641 17.9554C28.4764 18.0376 28.5826 18.2772 28.5004 18.4899C28.4699 18.5692 28.4166 18.6361 28.3464 18.6831C28.2353 18.7579 28.0919 18.7744 27.9664 18.726C27.8896 18.6962 27.8244 18.6451 27.7773 18.5782C27.7009 18.6067 27.6179 18.6122 27.5378 18.5936C27.292 18.5357 27.0384 18.5068 26.7844 18.5068C25.9079 18.5068 25.0839 18.8485 24.4636 19.468C23.844 20.0885 23.5024 20.9125 23.5024 21.7884C23.5024 22.6645 23.844 23.489 24.4636 24.1093C25.084 24.7288 25.908 25.0705 26.7844 25.0705C27.0375 25.0705 27.2913 25.0411 27.5378 24.9833C27.9065 24.8965 28.2539 24.7479 28.5708 24.5418C28.9517 24.294 29.2842 23.9623 29.5327 23.5827C29.8818 23.049 30.066 22.4286 30.066 21.7884C30.066 21.0718 29.8393 20.3912 29.4102 19.8194C29.3436 19.731 29.316 19.6223 29.3312 19.5133C29.3469 19.4038 29.404 19.3072 29.4919 19.2411C29.5642 19.187 29.65 19.1581 29.7401 19.1581C29.8711 19.1581 29.9917 19.2184 30.0706 19.3233C30.332 19.6707 30.5353 20.0556 30.6748 20.4665C30.8194 20.8915 30.8925 21.3364 30.8921 21.7883C30.8925 22.59 30.6612 23.3665 30.2241 24.0343C30.0681 24.2727 29.8866 24.4958 29.6851 24.6968C29.4832 24.898 29.2601 25.0789 29.0213 25.2342C28.6243 25.4924 28.1886 25.6782 27.7269 25.7873C27.4186 25.8603 27.1019 25.897 26.785 25.897L26.785 25.897Z" fill="#38618C"/>
<path d="M26.7839 24.2446H26.7827C26.4514 24.2446 26.1297 24.1797 25.827 24.0517C25.5346 23.9278 25.2719 23.751 25.0463 23.5255C24.8207 23.2999 24.644 23.0372 24.5201 22.7448C24.3921 22.4421 24.3271 22.1202 24.3271 21.7886C24.3271 21.4573 24.3921 21.1356 24.5201 20.8329C24.644 20.5405 24.8207 20.2778 25.0463 20.0522C25.2718 19.8267 25.5346 19.6495 25.827 19.526C26.1296 19.398 26.4515 19.3331 26.7827 19.3331C26.9727 19.3331 27.1623 19.3549 27.3461 19.398C27.6141 19.4608 27.8677 19.5678 28.0999 19.7156C28.3282 19.861 28.5299 20.0419 28.6997 20.253C28.8706 20.4661 29.0037 20.7043 29.0953 20.9604C29.1903 21.2257 29.2387 21.5044 29.2387 21.7886C29.2392 22.2681 29.1008 22.7324 28.8392 23.1318C28.6509 23.4198 28.4088 23.661 28.1206 23.8485C27.8831 24.0029 27.6224 24.1144 27.3466 24.1794C27.1619 24.2226 26.9728 24.2446 26.784 24.2446L26.7839 24.2446ZM26.7827 20.1593C26.3481 20.1593 25.9389 20.3287 25.6303 20.6364C25.3226 20.945 25.1532 21.3542 25.1532 21.7888C25.1532 22.2237 25.3226 22.633 25.6303 22.9416C25.9389 23.2489 26.3481 23.4187 26.7827 23.4187C26.9091 23.4187 27.0351 23.4042 27.1574 23.3753C27.3403 23.3324 27.5131 23.2585 27.67 23.1564C27.8591 23.0334 28.0243 22.8685 28.1479 22.6798C28.321 22.4146 28.4127 22.1065 28.4127 21.7889C28.4136 21.0289 27.8976 20.3763 27.1575 20.2024H27.1571C27.035 20.1738 26.9091 20.1593 26.7827 20.1593Z" fill="#38618C"/>
<defs>
<filter id="filter0_ddddd_3_6300" x="0" y="0" width="46" height="50" filterUnits="userSpaceOnUse" color-interpolation-filters="sRGB">
<feFlood flood-opacity="0" result="BackgroundImageFix"/>
<feColorMatrix in="SourceAlpha" type="matrix" values="0 0 0 0 0 0 0 0 0 0 0 0 0 0 0 0 0 0 127 0" result="hardAlpha"/>
<feOffset/>
<feColorMatrix type="matrix" values="0 0 0 0 0 0 0 0 0 0 0 0 0 0 0 0 0 0 0.1 0"/>
<feBlend mode="normal" in2="BackgroundImageFix" result="effect1_dropShadow_3_6300"/>
<feColorMatrix in="SourceAlpha" type="matrix" values="0 0 0 0 0 0 0 0 0 0 0 0 0 0 0 0 0 0 127 0" result="hardAlpha"/>
<feOffset/>
<feGaussianBlur stdDeviation="0.5"/>
<feColorMatrix type="matrix" values="0 0 0 0 0 0 0 0 0 0 0 0 0 0 0 0 0 0 0.1 0"/>
<feBlend mode="normal" in2="effect1_dropShadow_3_6300" result="effect2_dropShadow_3_6300"/>
<feColorMatrix in="SourceAlpha" type="matrix" values="0 0 0 0 0 0 0 0 0 0 0 0 0 0 0 0 0 0 127 0" result="hardAlpha"/>
<feOffset dy="2"/>
<feGaussianBlur stdDeviation="1"/>
<feColorMatrix type="matrix" values="0 0 0 0 0 0 0 0 0 0 0 0 0 0 0 0 0 0 0.09 0"/>
<feBlend mode="normal" in2="effect2_dropShadow_3_6300" result="effect3_dropShadow_3_6300"/>
<feColorMatrix in="SourceAlpha" type="matrix" values="0 0 0 0 0 0 0 0 0 0 0 0 0 0 0 0 0 0 127 0" result="hardAlpha"/>
<feOffset dy="4"/>
<feGaussianBlur stdDeviation="1"/>
<feColorMatrix type="matrix" values="0 0 0 0 0 0 0 0 0 0 0 0 0 0 0 0 0 0 0.05 0"/>
<feBlend mode="normal" in2="effect3_dropShadow_3_6300" result="effect4_dropShadow_3_6300"/>
<feColorMatrix in="SourceAlpha" type="matrix" values="0 0 0 0 0 0 0 0 0 0 0 0 0 0 0 0 0 0 127 0" result="hardAlpha"/>
<feOffset dy="6"/>
<feGaussianBlur stdDeviation="1.5"/>
<feColorMatrix type="matrix" values="0 0 0 0 0 0 0 0 0 0 0 0 0 0 0 0 0 0 0.01 0"/>
<feBlend mode="normal" in2="effect4_dropShadow_3_6300" result="effect5_dropShadow_3_6300"/>
<feBlend mode="normal" in="SourceGraphic" in2="effect5_dropShadow_3_6300" result="shape"/>
</filter>
</defs>
</svg>
