<svg width="46" height="50" viewBox="0 0 46 50" fill="none" xmlns="http://www.w3.org/2000/svg">
<g filter="url(#filter0_ddddd_3_6268)">
<circle cx="23" cy="21" r="20" fill="white"/>
</g>
<circle cx="23" cy="21" r="16.6" stroke="#375AD7" stroke-width="0.8"/>
<path d="M34.9859 27.2664C34.8575 27.459 34.7291 27.459 34.5365 27.5233C34.0228 27.5875 33.6376 27.9727 33.5734 28.5506C33.5734 28.8716 33.445 29 33.1239 29C26.7033 29 20.2826 29 13.862 29C13.541 29 13.4125 28.8716 13.4125 28.5506C13.3483 28.0369 12.9631 27.5875 12.4494 27.5233C12.2568 27.5233 12.1284 27.459 12 27.2664C12 24.5055 12 21.8089 12 19.048C12.1284 18.9196 12.2568 18.8554 12.4494 18.7912C12.9631 18.727 13.4125 18.3417 13.4125 17.7639C13.4125 17.4428 13.541 17.3144 13.862 17.3144C14.8893 17.3144 15.9166 17.3144 16.9439 17.3144C17.0723 17.3144 17.2007 17.3144 17.3291 17.2502C21.2457 15.8377 25.1623 14.4893 29.0789 13.0768C29.4642 12.9484 29.5284 12.9484 29.721 13.3336C29.9778 13.7831 30.4915 14.0399 31.0051 13.9115C31.3261 13.8473 31.4546 13.9115 31.583 14.2325C31.9682 15.1956 32.2892 16.1587 32.6745 17.186C32.7387 17.3786 32.8029 17.3786 32.9955 17.3786C33.1239 17.3786 33.3165 17.4428 33.445 17.507C33.5092 17.5713 33.5092 17.6997 33.5734 17.8281C33.6376 18.3417 34.0228 18.7912 34.5365 18.8554C34.7291 18.8554 34.8575 18.9196 34.9859 19.1122C34.9859 21.7447 34.9859 24.5055 34.9859 27.2664ZM34.2796 26.7528C34.2796 24.3129 34.2796 21.8731 34.2796 19.4974C33.5092 19.3048 33.0597 18.8554 32.8671 18.0849C32.8029 18.0849 32.6745 18.0849 32.6103 18.0849C31.0693 18.0849 29.5284 18.0849 27.9874 18.0849C27.9232 18.0849 27.859 18.0849 27.7948 18.0849C27.6022 18.0849 27.4095 17.9565 27.4095 17.6997C27.4095 17.507 27.538 17.3786 27.7948 17.3144C27.859 17.3144 27.9232 17.3144 27.9874 17.3144C29.2715 17.3144 30.4915 17.3144 31.7756 17.3144C31.8398 17.3144 31.9682 17.3144 32.0324 17.3144C31.7114 16.4155 31.3903 15.5166 31.0051 14.6178C30.2346 14.682 29.6568 14.4251 29.2073 13.7831C25.9328 14.9388 22.6583 16.0945 19.3837 17.2502C19.3837 17.2502 19.3837 17.2502 19.3837 17.3144C19.4479 17.3144 19.5764 17.3144 19.6406 17.3144C21.8236 17.3144 24.0708 17.3144 26.2538 17.3144C26.5107 17.3144 26.7033 17.4428 26.7033 17.6997C26.7033 17.8923 26.5749 18.0849 26.2538 18.0849C26.1896 18.0849 26.1254 18.0849 26.0612 18.0849C22.1446 18.0849 18.1638 18.0849 14.2472 18.0849C14.183 18.0849 14.0546 18.0849 13.9904 18.0849C13.7978 18.8554 13.2841 19.3048 12.5779 19.4974C12.5779 21.9373 12.5779 24.3771 12.5779 26.7528C13.3483 26.9454 13.7978 27.3948 13.9904 28.1653C20.2826 28.1653 26.5749 28.1653 32.8029 28.1653C33.0597 27.459 33.5092 27.0096 34.2796 26.7528Z" fill="#375AD7"/>
<path d="M20.6685 24.9549C18.8707 24.9549 17.0729 24.9549 15.2751 24.9549C15.2109 24.9549 15.1467 24.9549 15.0183 24.9549C14.8257 24.8907 14.6973 24.8265 14.6973 24.5696C14.6973 24.377 14.8257 24.2486 15.0183 24.1844C15.0825 24.1844 15.1467 24.1844 15.2109 24.1844C18.8065 24.1844 22.4662 24.1844 26.0618 24.1844C26.126 24.1844 26.1902 24.1844 26.2544 24.1844C26.447 24.2486 26.5755 24.3128 26.5755 24.5696C26.5755 24.7622 26.447 24.8907 26.2544 24.9549C26.1902 24.9549 26.126 24.9549 25.9976 24.9549C24.3282 24.9549 22.5305 24.9549 20.6685 24.9549Z" fill="#375AD7"/>
<path d="M19.8332 21.4879C19.8332 21.1027 19.8332 20.7174 19.8332 20.3322C19.8332 20.0753 19.9616 19.8827 20.2184 19.8827C20.4753 19.8827 20.6037 20.0753 20.6037 20.3322C20.6037 21.2311 20.6037 22.13 20.6037 23.0288C20.6037 23.2215 20.5395 23.4141 20.2826 23.4783C20.09 23.5425 19.9616 23.4141 19.8332 23.2215C19.5764 22.772 19.3837 22.3226 19.1269 21.8731C19.1269 22.1942 19.1269 22.5152 19.1269 22.8362C19.1269 22.9646 19.1269 23.0288 19.1269 23.1573C19.1269 23.3499 18.9343 23.4783 18.7417 23.4783C18.5491 23.4783 18.4207 23.3499 18.3564 23.1573C18.3564 22.9646 18.3564 22.7078 18.3564 22.5152C18.3564 21.8089 18.3564 21.0384 18.3564 20.3322C18.3564 20.0753 18.4207 19.9469 18.6133 19.8827C18.8059 19.8185 18.9343 19.9469 19.0627 20.1396C19.3195 20.589 19.5764 21.0384 19.8332 21.4879Z" fill="#375AD7"/>
<path d="M24.5202 20.653C24.6486 20.4603 24.777 20.2677 24.9055 20.0751C25.0339 19.8825 25.1623 19.8183 25.3549 19.8825C25.5475 19.9467 25.6117 20.0751 25.6117 20.2677C25.6117 21.1666 25.6117 22.1297 25.6117 23.0286C25.6117 23.2854 25.4833 23.4138 25.2907 23.4138C25.0981 23.4138 24.9055 23.2854 24.9055 22.9644C24.9055 22.4507 24.9055 21.9371 24.9055 21.4234C24.777 21.4876 24.6486 21.5519 24.5202 21.5519C24.3918 21.5519 24.2634 21.4876 24.135 21.4234C24.135 21.8729 24.135 22.3865 24.135 22.836C24.135 23.2212 24.0066 23.4138 23.7497 23.4138C23.4929 23.4138 23.4287 23.2212 23.4287 22.836C23.4287 22.0013 23.4287 21.1024 23.4287 20.2677C23.4287 20.0751 23.4929 19.8825 23.6855 19.8183C23.8782 19.7541 24.0066 19.8825 24.135 20.0751C24.2634 20.3319 24.3918 20.4603 24.5202 20.653Z" fill="#375AD7"/>
<path d="M21.6301 21.3593C21.8869 21.3593 22.0795 21.3593 22.3364 21.3593C22.5932 21.3593 22.7216 21.4877 22.7216 21.7445C22.7216 21.9371 22.5932 22.0655 22.3364 22.0655C22.1437 22.0655 21.8869 22.0655 21.6301 22.0655C21.6301 22.1939 21.6301 22.3224 21.6301 22.4508C21.6301 22.6434 21.7585 22.836 22.0153 22.836C22.208 22.836 22.4648 22.836 22.6574 22.836C22.9142 22.836 23.0426 22.9644 23.0426 23.2212C23.0426 23.4139 22.9142 23.6065 22.6574 23.6065C22.4006 23.6065 22.1438 23.6065 21.9511 23.6065C21.3733 23.6065 20.9238 23.157 20.9238 22.5792C20.9238 22.0655 20.9238 21.5519 20.9238 21.0382C20.9238 20.4604 21.3733 20.0109 21.9511 20.0109C22.208 20.0109 22.4648 20.0109 22.7216 20.0109C22.9784 20.0109 23.1068 20.1393 23.1068 20.3962C23.1068 20.5888 22.9784 20.7172 22.7216 20.7814C22.529 20.7814 22.3364 20.7814 22.1438 20.7814C21.7585 20.7814 21.6301 20.9098 21.6301 21.2951C21.6301 21.1666 21.6301 21.2308 21.6301 21.3593Z" fill="#375AD7"/>
<path d="M17.3294 22.7719C17.4578 22.7719 17.5863 22.7719 17.7147 22.7719C17.9073 22.7719 18.0357 22.9003 18.0357 23.0929C18.0357 23.2855 17.9073 23.4781 17.7147 23.4781C17.201 23.4781 16.7516 23.4781 16.2379 23.4781C16.0453 23.4781 15.8527 23.2855 15.9169 23.0929C15.9169 22.9003 16.0453 22.7719 16.2379 22.7719C16.3663 22.7719 16.4947 22.7719 16.6232 22.7719C16.6232 22.0656 16.6232 21.3593 16.6232 20.5888C16.4947 20.5888 16.3663 20.5888 16.3021 20.5888C16.1095 20.5888 15.9169 20.3962 15.9169 20.2036C15.9169 20.011 16.0453 19.8184 16.3021 19.8184C16.7516 19.8184 17.2652 19.8184 17.7147 19.8184C17.9073 19.8184 18.0999 19.9468 18.0999 20.2036C18.0999 20.3962 17.9715 20.5246 17.7147 20.5888C17.5863 20.5888 17.5221 20.5888 17.3936 20.5888C17.3294 21.3593 17.3294 22.0656 17.3294 22.7719Z" fill="#375AD7"/>
<path d="M13.3479 21.6802C13.3479 21.4234 13.3479 21.1666 13.3479 20.9097C13.3479 20.3319 13.7973 19.8824 14.3752 19.8824C14.632 19.8824 14.8246 19.8824 15.0814 19.8824C15.3383 19.8824 15.4667 20.0109 15.4667 20.2035C15.4667 20.3961 15.3383 20.5887 15.0814 20.5887C14.8888 20.5887 14.632 20.5887 14.4394 20.5887C14.1826 20.5887 14.0541 20.7171 14.0541 20.974C14.0541 21.4234 14.0541 21.8728 14.0541 22.3223C14.0541 22.5791 14.1826 22.7075 14.4394 22.7075C14.632 22.7075 14.8888 22.7075 15.0814 22.7075C15.3383 22.7075 15.4667 22.8359 15.4667 23.0286C15.4667 23.2212 15.3383 23.4138 15.0814 23.4138C14.8246 23.4138 14.632 23.4138 14.3752 23.4138C13.7973 23.4138 13.3479 22.9644 13.3479 22.3223C13.2837 22.1939 13.3479 21.9371 13.3479 21.6802Z" fill="#375AD7"/>
<path d="M22.8515 26.3672C22.2094 26.3672 21.6315 26.3672 20.9895 26.3672C20.6685 26.3672 20.54 26.2388 20.54 25.982C20.54 25.7894 20.7327 25.6609 20.9895 25.6609C22.2736 25.6609 23.4935 25.6609 24.7777 25.6609C25.0987 25.6609 25.2271 25.7894 25.2271 26.0462C25.2271 26.2388 25.0345 26.3672 24.7777 26.3672C24.1356 26.3672 23.4935 26.3672 22.8515 26.3672Z" fill="#375AD7"/>
<path d="M17.9706 26.3678C17.5212 26.3678 17.0717 26.3678 16.6223 26.3678C16.3655 26.3678 16.1729 26.2394 16.1729 25.9825C16.1729 25.7899 16.3013 25.5973 16.6223 25.5973C17.5212 25.5973 18.4843 25.5973 19.3832 25.5973C19.64 25.5973 19.8326 25.7257 19.8326 25.9825C19.8326 26.1751 19.64 26.3678 19.3832 26.3678C18.9337 26.3678 18.4843 26.3678 17.9706 26.3678Z" fill="#375AD7"/>
<path d="M31.904 20.2677C31.5188 20.2677 31.1335 20.2677 30.7483 20.2677C30.4914 20.2677 30.2988 20.1393 30.2988 19.8825C30.2988 19.6899 30.4272 19.4973 30.7483 19.4973C31.5187 19.4973 32.3534 19.4973 33.1239 19.4973C33.3807 19.4973 33.5734 19.6257 33.5734 19.8825C33.5734 20.1393 33.3807 20.2677 33.1239 20.2677C32.6745 20.2677 32.2892 20.2677 31.904 20.2677Z" fill="#375AD7"/>
<path d="M31.904 26.7529C31.5188 26.7529 31.1335 26.7529 30.7483 26.7529C30.4914 26.7529 30.2988 26.6245 30.2988 26.3677C30.2988 26.175 30.4272 25.9824 30.7483 25.9824C31.5187 25.9824 32.3534 25.9824 33.1239 25.9824C33.3807 25.9824 33.5734 26.1108 33.5734 26.3677C33.5734 26.6245 33.3807 26.7529 33.1239 26.7529C32.6745 26.7529 32.2892 26.7529 31.904 26.7529Z" fill="#375AD7"/>
<path d="M31.7753 20.5887C32.0964 20.5887 32.4174 20.5887 32.7384 20.5887C32.9953 20.5887 33.1879 20.7171 33.1879 20.9739C33.1879 21.1665 32.9953 21.3592 32.7384 21.3592C32.0322 21.3592 31.3901 21.3592 30.6838 21.3592C30.427 21.3592 30.2344 21.2307 30.2344 20.9739C30.2344 20.7813 30.427 20.5887 30.6838 20.5887C31.0691 20.5887 31.3901 20.5887 31.7753 20.5887Z" fill="#375AD7"/>
<path d="M31.7111 21.6801C32.0322 21.6801 32.4174 21.6801 32.7384 21.6801C32.9953 21.6801 33.1879 21.8085 33.1879 22.0653C33.1879 22.2579 32.9953 22.4505 32.7384 22.4505C32.0322 22.4505 31.3901 22.4505 30.6838 22.4505C30.427 22.4505 30.2344 22.3221 30.2344 22.0653C30.2344 21.8727 30.3628 21.6801 30.6838 21.6801C31.0691 21.6801 31.3901 21.6801 31.7111 21.6801Z" fill="#375AD7"/>
<path d="M31.7111 23.4783C31.3901 23.4783 31.0049 23.4783 30.6838 23.4783C30.427 23.4783 30.2344 23.3499 30.2344 23.0931C30.2344 22.9004 30.427 22.7078 30.6838 22.7078C31.3901 22.7078 32.0322 22.7078 32.7384 22.7078C32.9953 22.7078 33.1879 22.8362 33.1879 23.0931C33.1879 23.2857 32.9953 23.4783 32.7384 23.4783C32.4174 23.4783 32.0964 23.4783 31.7111 23.4783Z" fill="#375AD7"/>
<path d="M31.7111 24.5699C31.3901 24.5699 31.0049 24.5699 30.6838 24.5699C30.427 24.5699 30.2344 24.4415 30.2344 24.1847C30.2344 23.9921 30.427 23.8636 30.6196 23.8636C31.3259 23.8636 31.9679 23.8636 32.6742 23.8636C32.931 23.8636 33.1237 23.9921 33.1237 24.2489C33.1237 24.4415 32.931 24.5699 32.7384 24.5699C32.4174 24.5699 32.0964 24.5699 31.7111 24.5699Z" fill="#375AD7"/>
<path d="M31.7109 24.9551C32.0319 24.9551 32.3529 24.9551 32.674 24.9551C32.9308 24.9551 33.1234 25.0835 33.1234 25.3403C33.1234 25.5329 32.9308 25.7256 32.674 25.7256C31.9677 25.7256 31.3256 25.7256 30.6194 25.7256C30.3625 25.7256 30.1699 25.5971 30.1699 25.3403C30.1699 25.1477 30.3625 24.9551 30.6194 24.9551C31.0688 24.9551 31.3898 24.9551 31.7109 24.9551Z" fill="#375AD7"/>
<path d="M28.8223 19.4973C28.8223 19.3689 28.8223 19.2405 28.8223 19.112C28.8223 18.9194 29.0149 18.791 29.1433 18.791C29.3359 18.791 29.5285 18.9194 29.5285 19.112C29.5285 19.3689 29.5285 19.6257 29.5285 19.8825C29.5285 20.0751 29.3359 20.2036 29.2075 20.2036C29.0149 20.2036 28.8865 20.0751 28.8223 19.8825C28.8223 19.7541 28.8223 19.6257 28.8223 19.4973Z" fill="#375AD7"/>
<path d="M28.8223 21.295C28.8223 21.1665 28.8223 21.0381 28.8223 20.9097C28.8223 20.7171 29.0149 20.5887 29.2075 20.5887C29.4001 20.5887 29.5285 20.7171 29.5927 20.9097C29.5927 21.1665 29.5927 21.4234 29.5927 21.6802C29.5927 21.8728 29.4001 22.0012 29.2075 22.0012C29.0149 22.0012 28.8865 21.8728 28.8223 21.6802C28.8223 21.6802 28.8223 21.6802 28.8223 21.616C28.8223 21.5518 28.8223 21.4234 28.8223 21.295Z" fill="#375AD7"/>
<path d="M29.593 23.1567C29.593 23.2851 29.593 23.4136 29.593 23.542C29.593 23.7346 29.4004 23.9272 29.2078 23.863C29.0151 23.863 28.8867 23.7346 28.8867 23.542C28.8867 23.2851 28.8867 23.0283 28.8867 22.7715C28.8867 22.5789 29.0793 22.3863 29.272 22.4505C29.4646 22.4505 29.593 22.5789 29.593 22.7715C29.593 22.7715 29.593 22.7715 29.593 22.8357C29.593 22.8999 29.593 23.0283 29.593 23.1567Z" fill="#375AD7"/>
<path d="M29.593 24.9552C29.593 25.0836 29.593 25.212 29.593 25.3404C29.593 25.5331 29.4004 25.7257 29.2078 25.6615C29.0151 25.6615 28.8867 25.5331 28.8867 25.3404C28.8867 25.0836 28.8867 24.8268 28.8867 24.57C28.8867 24.3773 29.0793 24.1847 29.272 24.2489C29.4646 24.2489 29.593 24.3773 29.593 24.57C29.593 24.57 29.593 24.57 29.593 24.6342C29.593 24.6984 29.593 24.8268 29.593 24.9552Z" fill="#375AD7"/>
<path d="M29.5927 26.7528C29.5927 26.8812 29.5927 27.0096 29.5927 27.138C29.5927 27.3306 29.4001 27.4591 29.2075 27.4591C29.0149 27.4591 28.8865 27.3306 28.8223 27.138C28.8223 26.8812 28.8223 26.6244 28.8223 26.3675C28.8223 26.1749 29.0149 26.0465 29.2075 26.0465C29.4001 26.0465 29.5285 26.1749 29.5927 26.3675C29.5927 26.496 29.5927 26.6244 29.5927 26.7528Z" fill="#375AD7"/>
<path d="M28.1157 23.0286C27.8589 22.0655 27.6663 21.1666 27.4095 20.2035C27.3453 20.0109 27.2811 19.8824 27.0242 19.8824C26.8316 19.8824 26.7032 20.0109 26.639 20.2035C26.3822 21.1666 26.1895 22.0655 25.9327 23.0286C25.8685 23.2854 25.9969 23.478 26.1895 23.478C26.3822 23.5422 26.5748 23.4138 26.639 23.157C26.7032 23.0286 26.7032 22.9001 26.7674 22.7717C26.96 22.7717 27.0884 22.7717 27.2811 22.7717C27.3453 22.9001 27.3453 23.0286 27.4095 23.157C27.4737 23.4138 27.6663 23.5422 27.8589 23.478C28.0515 23.4138 28.1799 23.2212 28.1157 23.0286ZM27.2168 22.1297H26.8958C26.8316 22.1297 26.8316 22.0655 26.8316 22.0655L27.0242 21.295C27.0242 21.2308 27.1526 21.2308 27.1526 21.295L27.3453 22.0655C27.2811 22.1297 27.2811 22.1297 27.2168 22.1297Z" fill="#375AD7"/>
<defs>
<filter id="filter0_ddddd_3_6268" x="0" y="0" width="46" height="50" filterUnits="userSpaceOnUse" color-interpolation-filters="sRGB">
<feFlood flood-opacity="0" result="BackgroundImageFix"/>
<feColorMatrix in="SourceAlpha" type="matrix" values="0 0 0 0 0 0 0 0 0 0 0 0 0 0 0 0 0 0 127 0" result="hardAlpha"/>
<feOffset/>
<feColorMatrix type="matrix" values="0 0 0 0 0 0 0 0 0 0 0 0 0 0 0 0 0 0 0.1 0"/>
<feBlend mode="normal" in2="BackgroundImageFix" result="effect1_dropShadow_3_6268"/>
<feColorMatrix in="SourceAlpha" type="matrix" values="0 0 0 0 0 0 0 0 0 0 0 0 0 0 0 0 0 0 127 0" result="hardAlpha"/>
<feOffset/>
<feGaussianBlur stdDeviation="0.5"/>
<feColorMatrix type="matrix" values="0 0 0 0 0 0 0 0 0 0 0 0 0 0 0 0 0 0 0.1 0"/>
<feBlend mode="normal" in2="effect1_dropShadow_3_6268" result="effect2_dropShadow_3_6268"/>
<feColorMatrix in="SourceAlpha" type="matrix" values="0 0 0 0 0 0 0 0 0 0 0 0 0 0 0 0 0 0 127 0" result="hardAlpha"/>
<feOffset dy="2"/>
<feGaussianBlur stdDeviation="1"/>
<feColorMatrix type="matrix" values="0 0 0 0 0 0 0 0 0 0 0 0 0 0 0 0 0 0 0.09 0"/>
<feBlend mode="normal" in2="effect2_dropShadow_3_6268" result="effect3_dropShadow_3_6268"/>
<feColorMatrix in="SourceAlpha" type="matrix" values="0 0 0 0 0 0 0 0 0 0 0 0 0 0 0 0 0 0 127 0" result="hardAlpha"/>
<feOffset dy="4"/>
<feGaussianBlur stdDeviation="1"/>
<feColorMatrix type="matrix" values="0 0 0 0 0 0 0 0 0 0 0 0 0 0 0 0 0 0 0.05 0"/>
<feBlend mode="normal" in2="effect3_dropShadow_3_6268" result="effect4_dropShadow_3_6268"/>
<feColorMatrix in="SourceAlpha" type="matrix" values="0 0 0 0 0 0 0 0 0 0 0 0 0 0 0 0 0 0 127 0" result="hardAlpha"/>
<feOffset dy="6"/>
<feGaussianBlur stdDeviation="1.5"/>
<feColorMatrix type="matrix" values="0 0 0 0 0 0 0 0 0 0 0 0 0 0 0 0 0 0 0.01 0"/>
<feBlend mode="normal" in2="effect4_dropShadow_3_6268" result="effect5_dropShadow_3_6268"/>
<feBlend mode="normal" in="SourceGraphic" in2="effect5_dropShadow_3_6268" result="shape"/>
</filter>
</defs>
</svg>
