<svg width="46" height="50" viewBox="0 0 46 50" fill="none" xmlns="http://www.w3.org/2000/svg">
<g filter="url(#filter0_ddddd_3_6197)">
<circle cx="23" cy="21" r="20" fill="white"/>
</g>
<circle cx="23" cy="21" r="16.6" stroke="#91BAD9" stroke-width="0.8"/>
<path d="M26.1696 20.6567C26.0874 20.581 25.9789 20.5404 25.8672 20.5435C25.7555 20.5466 25.6495 20.5931 25.5716 20.6732C25.4937 20.7533 25.4501 20.8606 25.4501 20.9723C25.4501 21.084 25.4937 21.1914 25.5716 21.2714C25.7003 21.3971 25.8027 21.5471 25.8728 21.7127C25.9433 21.8783 25.9795 22.0565 25.9793 22.2365C25.9786 22.5937 25.8364 22.9361 25.5838 23.1887C25.3312 23.4413 24.9888 23.5835 24.6316 23.5842H24.2342C24.0732 23.5839 23.9161 23.5355 23.7829 23.4451C23.6498 23.3547 23.5467 23.2266 23.4871 23.0771C23.7869 23.0188 24.059 22.8631 24.2612 22.6342C24.4634 22.4054 24.5843 22.1161 24.6051 21.8114C24.6051 21.1018 23.9748 20.6463 23 20.6463C22.0252 20.6463 21.3949 21.1037 21.3949 21.8114C21.4158 22.116 21.5368 22.4052 21.7392 22.6339C21.9415 22.8625 22.2137 23.0179 22.5135 23.0758C22.4538 23.2254 22.3507 23.3536 22.2174 23.444C22.0842 23.5344 21.9269 23.5828 21.7658 23.5829H21.369C21.0118 23.5824 20.6693 23.4402 20.4166 23.1876C20.164 22.935 20.0218 22.5925 20.0213 22.2352C20.0209 22.0553 20.0569 21.8771 20.1271 21.7114C20.1974 21.5455 20.3 21.3953 20.4291 21.2695C20.507 21.1894 20.5505 21.0821 20.5505 20.9704C20.5505 20.8587 20.5069 20.7514 20.429 20.6713C20.3511 20.5912 20.2451 20.5447 20.1334 20.5416C20.0217 20.5385 19.9132 20.5791 19.831 20.6547C19.548 20.9305 19.3443 21.2773 19.2411 21.6587C19.138 22.0402 19.1392 22.4423 19.2447 22.8232C19.3502 23.204 19.5561 23.5495 19.8408 23.8235C20.1255 24.0975 20.4787 24.29 20.8632 24.3809C21.1171 24.7063 21.4419 24.9696 21.8128 25.1507C22.1837 25.3318 22.5911 25.4259 23.0039 25.4259C23.4166 25.4259 23.824 25.3318 24.1949 25.1507C24.5658 24.9696 24.8906 24.7063 25.1445 24.3809C25.5292 24.2902 25.8825 24.0978 26.1673 23.8238C26.4522 23.5498 26.6581 23.2042 26.7637 22.8233C26.8692 22.4424 26.8704 22.0402 26.7671 21.6587C26.6638 21.2772 26.4599 20.9304 26.1767 20.6547L26.1696 20.6567ZM22.2523 21.8121C22.2523 21.6005 22.6393 21.505 23 21.505C23.3606 21.505 23.7477 21.6011 23.7477 21.8121C23.7477 22.0346 23.4406 22.283 23 22.283C22.5593 22.283 22.2529 22.032 22.2529 21.8095L22.2523 21.8121ZM22.1961 24.3854C22.5061 24.3026 22.7854 24.1316 23 23.8932C23.2148 24.1314 23.494 24.3024 23.8038 24.3854C23.5531 24.5062 23.2783 24.569 23 24.569C22.7216 24.569 22.4469 24.5062 22.1961 24.3854Z" fill="#91BAD9"/>
<path d="M32.6288 20.2103L31.6818 17.2564C31.245 15.8869 30.4279 14.6698 29.3257 13.747C29.2913 13.5034 29.243 13.2619 29.1812 13.0238C29.1221 12.7945 29.0042 12.5846 28.8391 12.4149C28.6741 12.2451 28.4675 12.1215 28.2399 12.0561C28.0154 11.9898 27.7773 11.984 27.5498 12.0393C27.3223 12.0945 27.1135 12.209 26.9444 12.3709L26.9206 12.3948C26.1519 12.1331 25.3455 11.9997 24.5335 12H21.469C20.6061 11.9992 19.7497 12.1497 18.9388 12.4445C18.8807 12.4006 18.8226 12.3567 18.7633 12.3155C18.5736 12.1783 18.3509 12.0937 18.118 12.0704C17.885 12.0471 17.65 12.0858 17.4368 12.1826C17.2201 12.2794 17.0322 12.4309 16.8917 12.6223C16.7512 12.8137 16.663 13.0383 16.6356 13.2741C16.613 13.4567 16.5994 13.6399 16.5936 13.8205C15.5328 14.7357 14.7455 15.9264 14.3188 17.2609L13.3705 20.211C12.8765 21.7401 12.8765 23.386 13.3705 24.9151C13.855 26.4408 14.8112 27.7735 16.1014 28.7213L18.5813 30.5457C19.8611 31.4903 21.4099 32 23.0006 32C24.5913 32 26.1401 31.4903 27.4199 30.5457L29.8992 28.7219C31.1894 27.7741 32.1455 26.4415 32.6301 24.9158C33.1237 23.386 33.1233 21.7398 32.6288 20.2103ZM29.4521 28.0942L26.9702 29.9199C25.8213 30.7706 24.4296 31.2298 23 31.2298C21.5704 31.2298 20.1786 30.7706 19.0297 29.9199L16.5491 28.0942C15.3899 27.238 14.5294 26.0388 14.0895 24.6665C13.6495 23.2942 13.6523 21.8183 14.0976 20.4477L15.0446 17.497C15.3625 16.5032 15.9037 15.5954 16.6265 14.843C16.6667 15.2995 16.7411 15.7524 16.8491 16.1977C16.8701 16.2797 16.9176 16.3523 16.9843 16.4044C17.0509 16.4565 17.1329 16.485 17.2175 16.4855C17.2765 16.4855 17.3346 16.4719 17.3875 16.4458C17.4403 16.4196 17.4864 16.3816 17.5221 16.3347C17.5579 16.2878 17.5823 16.2333 17.5934 16.1754C17.6046 16.1175 17.6022 16.0578 17.5865 16.001C17.3803 15.1394 17.3149 14.2501 17.393 13.3676C17.4049 13.2637 17.4437 13.1646 17.5056 13.0802C17.5675 12.9958 17.6503 12.929 17.7459 12.8864C17.8389 12.843 17.942 12.8254 18.0442 12.8356C18.1464 12.8459 18.2439 12.8834 18.3265 12.9444C18.8229 13.3196 19.2859 13.7371 19.7104 14.1921C19.7443 14.2291 19.7852 14.2589 19.8308 14.2799C19.8764 14.3009 19.9256 14.3126 19.9758 14.3143C20.0259 14.316 20.0759 14.3078 20.1228 14.29C20.1697 14.2722 20.2127 14.2453 20.2491 14.2108C20.3237 14.1408 20.3676 14.0441 20.3711 13.9418C20.3746 13.8395 20.3374 13.74 20.2678 13.665C20.2497 13.6463 19.9923 13.3676 19.6258 13.0302C20.2235 12.8588 20.8422 12.7719 21.4639 12.7722H24.529C25.1379 12.772 25.744 12.8553 26.3302 13.0199C25.9315 13.4831 25.6451 13.8928 25.6283 13.9179C25.5695 14.0016 25.5462 14.1051 25.5634 14.206C25.5807 14.3068 25.6372 14.3966 25.7206 14.4559C25.7614 14.4851 25.8077 14.5059 25.8567 14.517C25.9057 14.5281 25.9564 14.5294 26.0058 14.5208C26.0553 14.5121 26.1026 14.4937 26.1448 14.4667C26.1871 14.4396 26.2236 14.4044 26.2522 14.363C26.6146 13.8525 27.0206 13.3744 27.4657 12.9341C27.539 12.8628 27.6301 12.8124 27.7295 12.7883C27.8289 12.7641 27.933 12.767 28.0309 12.7967C28.1311 12.8259 28.222 12.8806 28.2947 12.9556C28.3673 13.0306 28.4191 13.1233 28.445 13.2244C28.6413 14.0885 28.6967 14.9786 28.6089 15.8603C28.5968 15.9612 28.6249 16.0628 28.687 16.1432C28.7492 16.2236 28.8405 16.2763 28.9412 16.29C28.9566 16.2908 28.9721 16.2908 28.9876 16.29C29.0811 16.2885 29.1708 16.2533 29.2403 16.1908C29.3098 16.1283 29.3543 16.0428 29.3657 15.95C29.4025 15.5937 29.4178 15.2354 29.4115 14.8772C30.1176 15.622 30.6468 16.5164 30.9598 17.4938L31.9037 20.449C32.3481 21.8195 32.3506 23.295 31.9106 24.6669C31.4707 26.0388 30.6107 27.2377 29.4521 28.0942Z" fill="#91BAD9"/>
<path d="M19.5497 14.7584C19.5497 14.7584 19.311 14.5043 18.9749 14.1933C18.8661 14.0927 18.7297 14.0271 18.5832 14.0048C18.4367 13.9826 18.2869 14.0048 18.1532 14.0686C18.0195 14.1323 17.908 14.2347 17.833 14.3626C17.7581 14.4904 17.7233 14.6377 17.733 14.7855C17.7674 15.3037 17.8449 15.8181 17.9646 16.3235C17.9934 16.4336 18.0648 16.5277 18.163 16.5852C18.2613 16.6426 18.3783 16.6587 18.4884 16.6299C18.5985 16.6011 18.6927 16.5297 18.7502 16.4315C18.8076 16.3332 18.8237 16.2162 18.7949 16.1061C18.7114 15.753 18.6512 15.3949 18.6149 15.0339C18.8026 15.2158 18.9226 15.3429 18.9239 15.3455C19.0028 15.4242 19.1091 15.4691 19.2205 15.4708C19.3319 15.4725 19.4395 15.4308 19.5207 15.3546C19.6019 15.2783 19.6503 15.1735 19.6556 15.0623C19.6609 14.951 19.6227 14.842 19.5491 14.7584H19.5497Z" fill="#91BAD9"/>
<path d="M27.7431 14.0239C27.6021 13.9785 27.4506 13.9768 27.3086 14.019C27.1666 14.0611 27.0405 14.1451 26.947 14.26C26.6528 14.618 26.4561 14.8954 26.4541 14.8986C26.4216 14.9446 26.3985 14.9965 26.3861 15.0514C26.3737 15.1063 26.3722 15.1631 26.3817 15.2186C26.3912 15.274 26.4116 15.3271 26.4416 15.3747C26.4716 15.4223 26.5107 15.4635 26.5567 15.496C26.6027 15.5285 26.6546 15.5516 26.7095 15.564C26.7644 15.5765 26.8212 15.578 26.8767 15.5684C26.9321 15.5589 26.9852 15.5386 27.0328 15.5085C27.0804 15.4785 27.1216 15.4394 27.1541 15.3934C27.1541 15.3934 27.2567 15.2489 27.4173 15.0431C27.4301 15.4062 27.4193 15.7697 27.3851 16.1314C27.3722 16.2443 27.4046 16.3576 27.4753 16.4465C27.5459 16.5354 27.649 16.5926 27.7618 16.6056C27.7784 16.6068 27.795 16.6068 27.8115 16.6056C27.9166 16.6055 28.0181 16.5668 28.0966 16.4969C28.1751 16.427 28.2252 16.3307 28.2373 16.2263C28.287 15.7101 28.2935 15.1907 28.2567 14.6735C28.2463 14.5261 28.1917 14.3853 28.1001 14.2694C28.0085 14.1536 27.8841 14.068 27.7431 14.0239Z" fill="#91BAD9"/>
<path d="M19.6491 19.9451C19.7465 19.9988 19.8563 20.0261 19.9675 20.0243C20.0788 20.0225 20.1876 19.9916 20.2832 19.9348C20.352 19.8996 20.4261 19.876 20.5026 19.8652C20.5791 19.8758 20.6533 19.8993 20.722 19.9348C20.8342 19.9898 20.9565 20.0216 21.0813 20.0284C21.1792 20.0288 21.2749 19.9998 21.3561 19.9451C21.4367 19.8885 21.501 19.8118 21.5427 19.7226C21.5845 19.6335 21.6022 19.5349 21.5942 19.4368C21.5942 19.1473 21.4792 18.8697 21.2745 18.665C21.0698 18.4603 20.7921 18.3453 20.5026 18.3453C20.2131 18.3453 19.9354 18.4603 19.7307 18.665C19.526 18.8697 19.411 19.1473 19.411 19.4368C19.4031 19.5349 19.4209 19.6334 19.4626 19.7225C19.5044 19.8117 19.5686 19.8884 19.6491 19.9451Z" fill="#91BAD9"/>
<path d="M25.4335 18.3453C25.1441 18.3456 24.8666 18.4607 24.662 18.6653C24.4574 18.87 24.3422 19.1474 24.3419 19.4368C24.3339 19.5349 24.3517 19.6334 24.3934 19.7226C24.4352 19.8117 24.4995 19.8884 24.58 19.9451C24.6614 19.9998 24.7574 20.0288 24.8554 20.0284C24.9801 20.0216 25.1021 19.9898 25.2141 19.9348C25.2829 19.8996 25.357 19.876 25.4335 19.8652C25.51 19.8758 25.5842 19.8993 25.6528 19.9348C25.7485 19.9916 25.8573 20.0224 25.9686 20.0242C26.0798 20.026 26.1896 19.9987 26.287 19.9451C26.3675 19.8884 26.4318 19.8117 26.4736 19.7226C26.5153 19.6334 26.5331 19.5349 26.5251 19.4368C26.5249 19.1474 26.4099 18.8698 26.2052 18.6652C26.0005 18.4605 25.723 18.3454 25.4335 18.3453Z" fill="#91BAD9"/>
<defs>
<filter id="filter0_ddddd_3_6197" x="0" y="0" width="46" height="50" filterUnits="userSpaceOnUse" color-interpolation-filters="sRGB">
<feFlood flood-opacity="0" result="BackgroundImageFix"/>
<feColorMatrix in="SourceAlpha" type="matrix" values="0 0 0 0 0 0 0 0 0 0 0 0 0 0 0 0 0 0 127 0" result="hardAlpha"/>
<feOffset/>
<feColorMatrix type="matrix" values="0 0 0 0 0 0 0 0 0 0 0 0 0 0 0 0 0 0 0.1 0"/>
<feBlend mode="normal" in2="BackgroundImageFix" result="effect1_dropShadow_3_6197"/>
<feColorMatrix in="SourceAlpha" type="matrix" values="0 0 0 0 0 0 0 0 0 0 0 0 0 0 0 0 0 0 127 0" result="hardAlpha"/>
<feOffset/>
<feGaussianBlur stdDeviation="0.5"/>
<feColorMatrix type="matrix" values="0 0 0 0 0 0 0 0 0 0 0 0 0 0 0 0 0 0 0.1 0"/>
<feBlend mode="normal" in2="effect1_dropShadow_3_6197" result="effect2_dropShadow_3_6197"/>
<feColorMatrix in="SourceAlpha" type="matrix" values="0 0 0 0 0 0 0 0 0 0 0 0 0 0 0 0 0 0 127 0" result="hardAlpha"/>
<feOffset dy="2"/>
<feGaussianBlur stdDeviation="1"/>
<feColorMatrix type="matrix" values="0 0 0 0 0 0 0 0 0 0 0 0 0 0 0 0 0 0 0.09 0"/>
<feBlend mode="normal" in2="effect2_dropShadow_3_6197" result="effect3_dropShadow_3_6197"/>
<feColorMatrix in="SourceAlpha" type="matrix" values="0 0 0 0 0 0 0 0 0 0 0 0 0 0 0 0 0 0 127 0" result="hardAlpha"/>
<feOffset dy="4"/>
<feGaussianBlur stdDeviation="1"/>
<feColorMatrix type="matrix" values="0 0 0 0 0 0 0 0 0 0 0 0 0 0 0 0 0 0 0.05 0"/>
<feBlend mode="normal" in2="effect3_dropShadow_3_6197" result="effect4_dropShadow_3_6197"/>
<feColorMatrix in="SourceAlpha" type="matrix" values="0 0 0 0 0 0 0 0 0 0 0 0 0 0 0 0 0 0 127 0" result="hardAlpha"/>
<feOffset dy="6"/>
<feGaussianBlur stdDeviation="1.5"/>
<feColorMatrix type="matrix" values="0 0 0 0 0 0 0 0 0 0 0 0 0 0 0 0 0 0 0.01 0"/>
<feBlend mode="normal" in2="effect4_dropShadow_3_6197" result="effect5_dropShadow_3_6197"/>
<feBlend mode="normal" in="SourceGraphic" in2="effect5_dropShadow_3_6197" result="shape"/>
</filter>
</defs>
</svg>
