<svg width="46" height="50" viewBox="0 0 46 50" fill="none" xmlns="http://www.w3.org/2000/svg">
<g filter="url(#filter0_ddddd_3_6253)">
<circle cx="23" cy="21" r="20" fill="white"/>
</g>
<circle cx="23" cy="21" r="16.6" stroke="#2D2659" stroke-width="0.8"/>
<path d="M28.308 29.423C27.8743 29.4207 27.4593 29.2464 27.1539 28.9384C26.8486 28.6304 26.6779 28.2139 26.6793 27.7801V26.1387H24.1858L24.9699 28.766H25.7029C25.7903 28.766 25.8741 28.8007 25.9359 28.8625C25.9977 28.9243 26.0324 29.0081 26.0324 29.0955C26.0324 29.1829 25.9977 29.2667 25.9359 29.3285C25.8741 29.3903 25.7903 29.425 25.7029 29.425H18.5371C18.4497 29.425 18.3659 29.3903 18.3041 29.3285C18.2423 29.2667 18.2076 29.1829 18.2076 29.0955C18.2076 29.0081 18.2423 28.9243 18.3041 28.8625C18.3659 28.8007 18.4497 28.766 18.5371 28.766H19.2721L20.0542 26.1387H13.9771C13.7168 26.1374 13.4677 26.0329 13.2845 25.848C13.1013 25.6631 12.9989 25.4131 13 25.1528V13.9852C12.9993 13.7251 13.1017 13.4753 13.2849 13.2906C13.4681 13.1059 13.717 13.0014 13.9771 13H30.9139C31.1742 13.0011 31.4235 13.1054 31.6069 13.2901C31.7904 13.4749 31.893 13.7248 31.8923 13.9852V16.2843H32.2184C32.652 16.2868 33.0669 16.4612 33.3721 16.7692C33.6773 17.0771 33.8479 17.4936 33.8465 17.9272V27.7795C33.8477 28.2131 33.677 28.6296 33.3717 28.9375C33.0664 29.2455 32.6514 29.4198 32.2178 29.4223H28.308V29.423ZM27.331 27.7795C27.3301 28.0397 27.4324 28.2896 27.6156 28.4745C27.7988 28.6593 28.0478 28.7639 28.308 28.7653H32.2164C32.4768 28.7641 32.726 28.6595 32.9093 28.4747C33.0926 28.2899 33.1951 28.0398 33.1942 27.7795V26.795H27.3316V27.7795H27.331ZM24.2874 28.7646L23.5053 26.1387H20.7334L19.952 28.7667L24.2874 28.7646ZM33.1935 26.1387V18.9117H27.331V26.1387H33.1935ZM13.6516 25.1542C13.6514 25.241 13.6857 25.3243 13.7468 25.3859C13.8079 25.4476 13.891 25.4825 13.9778 25.483H26.6793V24.1683H23.7205C23.6773 24.1686 23.6346 24.1603 23.5947 24.1438C23.5548 24.1273 23.5187 24.1031 23.4883 24.0725C23.4579 24.0418 23.434 24.0055 23.4178 23.9655C23.4017 23.9254 23.3937 23.8826 23.3943 23.8395C23.3942 23.7965 23.4024 23.7539 23.4187 23.7141C23.435 23.6743 23.459 23.6381 23.4893 23.6075C23.5196 23.577 23.5556 23.5527 23.5953 23.5361C23.6349 23.5195 23.6775 23.5108 23.7205 23.5107H26.6793V17.9292C26.6781 17.4956 26.8488 17.0792 27.1542 16.7714C27.4595 16.4635 27.8745 16.2893 28.308 16.287H31.2393V14.9703H13.6516V23.5107H20.4644C20.5516 23.5107 20.6352 23.5453 20.6969 23.607C20.7586 23.6686 20.7932 23.7523 20.7932 23.8395C20.7932 23.9267 20.7586 24.0103 20.6969 24.072C20.6352 24.1337 20.5516 24.1683 20.4644 24.1683H13.6516V25.1542ZM33.1935 18.256V17.9278C33.1942 17.6677 33.0918 17.418 32.9086 17.2333C32.7254 17.0486 32.4765 16.9441 32.2164 16.9427H28.308C28.0479 16.9441 27.799 17.0486 27.6159 17.2333C27.4327 17.418 27.3302 17.6677 27.331 17.9278V18.256H33.1935ZM31.2393 14.3147V13.9858C31.2395 13.8991 31.2053 13.8158 31.1441 13.7543C31.083 13.6928 30.9999 13.658 30.9132 13.6577H13.9771C13.8905 13.6582 13.8076 13.693 13.7466 13.7545C13.6856 13.816 13.6514 13.8992 13.6516 13.9858V14.3147H31.2393ZM30.2622 28.4365C30.1322 28.4375 30.0048 28.4 29.8962 28.3285C29.7876 28.2571 29.7026 28.155 29.6521 28.0352C29.6016 27.9154 29.5878 27.7833 29.6124 27.6557C29.6371 27.528 29.6991 27.4106 29.7906 27.3182C29.8821 27.2259 29.999 27.1628 30.1264 27.1369C30.2538 27.1111 30.386 27.1237 30.5063 27.1731C30.6265 27.2225 30.7294 27.3065 30.8019 27.4145C30.8743 27.5224 30.913 27.6495 30.9132 27.7795C30.9135 27.9528 30.8453 28.1192 30.7233 28.2423C30.6013 28.3654 30.4355 28.4352 30.2622 28.4365ZM21.7939 24.1677C21.7066 24.1677 21.623 24.133 21.5613 24.0713C21.4997 24.0097 21.465 23.926 21.465 23.8388C21.465 23.7516 21.4997 23.668 21.5613 23.6063C21.623 23.5446 21.7066 23.51 21.7939 23.51H22.4199C22.5071 23.51 22.5908 23.5446 22.6524 23.6063C22.7141 23.668 22.7488 23.7516 22.7488 23.8388C22.7488 23.926 22.7141 24.0097 22.6524 24.0713C22.5908 24.133 22.5071 24.1677 22.4199 24.1677H21.7939ZM30.2622 17.9272C30.1751 17.9272 30.0916 17.8926 30.0299 17.8309C29.9683 17.7693 29.9337 17.6858 29.9337 17.5987C29.9337 17.5115 29.9683 17.428 30.0299 17.3664C30.0916 17.3048 30.1751 17.2702 30.2622 17.2702H30.5884C30.6755 17.2702 30.7591 17.3048 30.8207 17.3664C30.8823 17.428 30.9169 17.5115 30.9169 17.5987C30.9169 17.6858 30.8823 17.7693 30.8207 17.8309C30.7591 17.8926 30.6755 17.9272 30.5884 17.9272H30.2622Z" fill="#2D2659"/>
<path d="M19.4487 21.7899C19.4982 21.8375 19.5645 21.8635 19.6331 21.8622C19.7016 21.861 19.7669 21.8325 19.8146 21.7832L20.9934 20.5579C21.4073 20.8484 21.9162 20.9705 22.4169 20.8995C22.9175 20.8285 23.3724 20.5696 23.6892 20.1755C24.006 19.7814 24.1609 19.2815 24.1227 18.7773C24.0844 18.2731 23.8557 17.8024 23.483 17.4606C23.1104 17.1188 22.6216 16.9316 22.116 16.937C21.6104 16.9424 21.1257 17.1399 20.7604 17.4896C20.3951 17.8392 20.1765 18.3147 20.149 18.8196C20.1214 19.3245 20.287 19.821 20.6121 20.2083L19.4414 21.4254C19.4178 21.4498 19.3993 21.4786 19.3869 21.5101C19.3745 21.5417 19.3685 21.5753 19.3692 21.6092C19.3699 21.6431 19.3773 21.6765 19.3909 21.7075C19.4046 21.7385 19.4242 21.7665 19.4487 21.7899ZM23.5985 18.9299C23.5985 19.2201 23.5125 19.5038 23.3513 19.7451C23.19 19.9864 22.9609 20.1745 22.6927 20.2855C22.4246 20.3966 22.1296 20.4257 21.845 20.369C21.5603 20.3124 21.2989 20.1727 21.0937 19.9675C20.8885 19.7623 20.7487 19.5008 20.6921 19.2162C20.6355 18.9315 20.6645 18.6365 20.7756 18.3684C20.8866 18.1003 21.0747 17.8711 21.316 17.7099C21.5573 17.5486 21.841 17.4626 22.1312 17.4626C22.5202 17.4631 22.8931 17.6179 23.1682 17.8929C23.4432 18.168 23.598 18.5409 23.5985 18.9299Z" fill="#2D2659"/>
<defs>
<filter id="filter0_ddddd_3_6253" x="0" y="0" width="46" height="50" filterUnits="userSpaceOnUse" color-interpolation-filters="sRGB">
<feFlood flood-opacity="0" result="BackgroundImageFix"/>
<feColorMatrix in="SourceAlpha" type="matrix" values="0 0 0 0 0 0 0 0 0 0 0 0 0 0 0 0 0 0 127 0" result="hardAlpha"/>
<feOffset/>
<feColorMatrix type="matrix" values="0 0 0 0 0 0 0 0 0 0 0 0 0 0 0 0 0 0 0.1 0"/>
<feBlend mode="normal" in2="BackgroundImageFix" result="effect1_dropShadow_3_6253"/>
<feColorMatrix in="SourceAlpha" type="matrix" values="0 0 0 0 0 0 0 0 0 0 0 0 0 0 0 0 0 0 127 0" result="hardAlpha"/>
<feOffset/>
<feGaussianBlur stdDeviation="0.5"/>
<feColorMatrix type="matrix" values="0 0 0 0 0 0 0 0 0 0 0 0 0 0 0 0 0 0 0.1 0"/>
<feBlend mode="normal" in2="effect1_dropShadow_3_6253" result="effect2_dropShadow_3_6253"/>
<feColorMatrix in="SourceAlpha" type="matrix" values="0 0 0 0 0 0 0 0 0 0 0 0 0 0 0 0 0 0 127 0" result="hardAlpha"/>
<feOffset dy="2"/>
<feGaussianBlur stdDeviation="1"/>
<feColorMatrix type="matrix" values="0 0 0 0 0 0 0 0 0 0 0 0 0 0 0 0 0 0 0.09 0"/>
<feBlend mode="normal" in2="effect2_dropShadow_3_6253" result="effect3_dropShadow_3_6253"/>
<feColorMatrix in="SourceAlpha" type="matrix" values="0 0 0 0 0 0 0 0 0 0 0 0 0 0 0 0 0 0 127 0" result="hardAlpha"/>
<feOffset dy="4"/>
<feGaussianBlur stdDeviation="1"/>
<feColorMatrix type="matrix" values="0 0 0 0 0 0 0 0 0 0 0 0 0 0 0 0 0 0 0.05 0"/>
<feBlend mode="normal" in2="effect3_dropShadow_3_6253" result="effect4_dropShadow_3_6253"/>
<feColorMatrix in="SourceAlpha" type="matrix" values="0 0 0 0 0 0 0 0 0 0 0 0 0 0 0 0 0 0 127 0" result="hardAlpha"/>
<feOffset dy="6"/>
<feGaussianBlur stdDeviation="1.5"/>
<feColorMatrix type="matrix" values="0 0 0 0 0 0 0 0 0 0 0 0 0 0 0 0 0 0 0.01 0"/>
<feBlend mode="normal" in2="effect4_dropShadow_3_6253" result="effect5_dropShadow_3_6253"/>
<feBlend mode="normal" in="SourceGraphic" in2="effect5_dropShadow_3_6253" result="shape"/>
</filter>
</defs>
</svg>
