<svg width="46" height="50" viewBox="0 0 46 50" fill="none" xmlns="http://www.w3.org/2000/svg">
<g filter="url(#filter0_ddddd_3_6224)">
<circle cx="23" cy="21" r="20" fill="white"/>
</g>
<circle cx="23" cy="21" r="16.6" stroke="#6A89A9" stroke-width="0.8"/>
<path d="M22.5423 31.0004H21.4383C20.0139 31.0036 18.6451 30.4475 17.6264 29.4519C17.5665 29.3938 17.5321 29.3144 17.5308 29.231C17.5295 29.1477 17.5613 29.0672 17.6193 29.0073C17.6773 28.9474 17.7568 28.913 17.8401 28.9117C17.9235 28.9104 18.004 28.9422 18.0639 29.0002C18.9637 29.8852 20.1763 30.3795 21.4383 30.3758H22.5423C23.2403 30.378 23.9318 30.2415 24.5766 29.9744C25.2214 29.7072 25.8068 29.3147 26.2987 28.8195L32.1173 22.6848C32.2337 22.576 32.3147 22.4347 32.3498 22.2792C32.3849 22.1238 32.3725 21.9614 32.3142 21.8131C32.2558 21.6648 32.1542 21.5374 32.0226 21.4476C31.8909 21.3577 31.7353 21.3095 31.576 21.3092C31.1762 21.3075 30.78 21.3852 30.4105 21.5378C30.041 21.6905 29.7055 21.915 29.4235 22.1983L27.746 24.1921C27.6169 24.3283 27.45 24.4227 27.2667 24.463C27.0835 24.5034 26.8923 24.4878 26.718 24.4183C26.5437 24.3488 26.3943 24.2286 26.2891 24.0732C26.1838 23.9179 26.1276 23.7345 26.1278 23.5469V21.8867C26.1278 21.8222 25.989 22.3519 28.1828 14.1609C28.2224 14.0213 28.2337 13.8752 28.2162 13.7312C28.1987 13.5871 28.1526 13.448 28.0807 13.322C28.0087 13.1959 27.9124 13.0855 27.7973 12.9971C27.6822 12.9087 27.5506 12.8442 27.4103 12.8073C27.27 12.7704 27.1237 12.7618 26.98 12.782C26.8363 12.8023 26.6981 12.851 26.5734 12.9253C26.4488 12.9997 26.3402 13.0981 26.2541 13.2148C26.1679 13.3316 26.1059 13.4644 26.0716 13.6054L23.9263 21.0899C23.9055 21.1617 23.8596 21.2237 23.7969 21.2646C23.7342 21.3054 23.6589 21.3223 23.5848 21.3122C23.5107 21.3021 23.4427 21.2657 23.3932 21.2096C23.3437 21.1535 23.3161 21.0814 23.3153 21.0066V12.715C23.316 12.4983 23.2522 12.2862 23.1321 12.1059C23.012 11.9255 22.841 11.7848 22.6408 11.7018C22.4406 11.6189 22.2203 11.5973 22.0078 11.6398C21.7953 11.6823 21.6002 11.7871 21.4474 11.9407C21.3445 12.0416 21.263 12.1622 21.2076 12.2952C21.1522 12.4281 21.124 12.5709 21.1248 12.715V20.7531C21.124 20.8279 21.0963 20.8999 21.0468 20.956C20.9973 21.0121 20.9293 21.0485 20.8552 21.0586C20.7811 21.0687 20.7058 21.0518 20.6431 21.011C20.5804 20.9702 20.5345 20.9082 20.5138 20.8363L18.6736 13.9583C18.6065 13.7017 18.4481 13.4783 18.2281 13.33C18.0081 13.1817 17.7416 13.1188 17.4785 13.1529C17.2154 13.187 16.9738 13.3158 16.7989 13.5153C16.6239 13.7147 16.5277 13.9711 16.5283 14.2364C16.5283 14.4377 16.3824 13.8402 18.4587 21.5731C18.4778 21.6458 18.4698 21.7229 18.4364 21.7902C18.4031 21.8574 18.3465 21.9103 18.2771 21.9391C18.2077 21.9679 18.1303 21.9706 18.0591 21.9468C17.9878 21.9229 17.9277 21.8741 17.8897 21.8093L15.3901 17.4812C15.2859 17.3035 15.1262 17.1649 14.9355 17.0869C14.7448 17.0089 14.5338 16.9957 14.3349 17.0494C14.136 17.1031 13.9603 17.2207 13.8348 17.384C13.7092 17.5474 13.6409 17.7475 13.6403 17.9535C13.6398 18.1169 13.683 18.2775 13.7654 18.4187L15.5224 21.4544C16.2367 22.69 16.6128 24.092 16.6128 25.5193C16.6143 25.9845 16.6794 26.4473 16.8063 26.8949C16.8303 26.9741 16.8218 27.0596 16.7827 27.1326C16.7436 27.2055 16.6772 27.26 16.5979 27.2839C16.5187 27.3079 16.4332 27.2994 16.3602 27.2603C16.2873 27.2212 16.2328 27.1548 16.2089 27.0755C16.0619 26.5725 15.9872 26.0511 15.9869 25.527C15.9867 24.2097 15.6395 22.9157 14.9804 21.7751L13.2099 18.7394C13.1073 18.562 13.0405 18.3662 13.0136 18.1631C12.9866 17.9599 12.9999 17.7535 13.0527 17.5555C13.1055 17.3575 13.1968 17.1719 13.3214 17.0092C13.4459 16.8465 13.6013 16.7099 13.7787 16.6072C13.956 16.5046 14.1518 16.4379 14.355 16.4109C14.5581 16.3839 14.7645 16.3972 14.9625 16.45C15.1605 16.5029 15.3462 16.5942 15.5089 16.7187C15.6716 16.8433 15.8081 16.9987 15.9108 17.176L17.2232 19.4478L15.9456 14.6887C15.8833 14.4695 15.8652 14.2402 15.8924 14.0139C15.9195 13.7877 15.9914 13.5691 16.1038 13.371C16.2162 13.1728 16.367 12.9989 16.5472 12.8595C16.7274 12.7201 16.9336 12.618 17.1537 12.559C17.3738 12.5001 17.6034 12.4855 17.8292 12.5161C18.055 12.5467 18.2724 12.6219 18.4689 12.7374C18.6653 12.8528 18.8368 13.0062 18.9734 13.1886C19.1101 13.3709 19.209 13.5786 19.2646 13.7996L20.4905 18.3851V12.715C20.4905 12.2601 20.6712 11.8239 20.9928 11.5023C21.3145 11.1807 21.7507 11 22.2055 11C22.6603 11 23.0966 11.1807 23.4182 11.5023C23.7398 11.8239 23.9205 12.2601 23.9205 12.715V18.7729L25.4484 13.437C25.5072 13.219 25.6084 13.0148 25.7462 12.836C25.8839 12.6572 26.0556 12.5073 26.2513 12.3948C26.447 12.2823 26.6629 12.2095 26.8868 12.1804C27.1106 12.1514 27.338 12.1667 27.556 12.2256C27.7739 12.2844 27.9781 12.3856 28.1569 12.5234C28.3357 12.6612 28.4857 12.8328 28.5981 13.0285C28.7106 13.2242 28.7835 13.4402 28.8125 13.664C28.8415 13.8879 28.8262 14.1153 28.7673 14.3332L26.7498 21.9267V23.5456C26.7495 23.6068 26.7671 23.6668 26.8006 23.7181C26.8341 23.7694 26.8819 23.8098 26.9381 23.8342C26.9943 23.8586 27.0564 23.8659 27.1168 23.8553C27.1771 23.8447 27.233 23.8167 27.2775 23.7746C28.4512 22.3784 28.9648 21.7744 28.979 21.7596C29.3201 21.4167 29.726 21.1449 30.173 20.96C30.6201 20.7752 31.0993 20.6809 31.5831 20.6827C31.8647 20.6831 32.1398 20.7673 32.3735 20.9245C32.6071 21.0817 32.7887 21.3049 32.8952 21.5656C33.0016 21.8263 33.0281 22.1128 32.9713 22.3886C32.9145 22.6645 32.7769 22.9172 32.576 23.1146C26.5562 29.4583 26.7498 29.2583 26.7498 29.2583C26.1981 29.8122 25.5423 30.2513 24.82 30.5503C24.0977 30.8493 23.3234 31.0023 22.5417 31.0004H22.5423Z" fill="#6A89A9"/>
<path d="M21.3519 29.01C21.2663 29.01 21.1843 28.976 21.1238 28.9155C21.0633 28.855 21.0293 28.7729 21.0293 28.6874C21.0326 27.4307 21.4899 26.2176 22.3168 25.2713C23.1438 24.3251 24.2848 23.7095 25.5297 23.5379C25.6157 23.5264 25.7028 23.5496 25.7718 23.6024C25.8408 23.6551 25.886 23.7331 25.8974 23.8192C25.9089 23.9053 25.8857 23.9924 25.833 24.0614C25.7802 24.1303 25.7022 24.1755 25.6161 24.187C24.5275 24.336 23.5295 24.8736 22.8061 25.7007C22.0828 26.5278 21.6829 27.5886 21.6803 28.6874C21.6803 28.7729 21.6463 28.855 21.5858 28.9155C21.5253 28.976 21.4433 29.01 21.3577 29.01H21.3519Z" fill="#6A89A9"/>
<defs>
<filter id="filter0_ddddd_3_6224" x="0" y="0" width="46" height="50" filterUnits="userSpaceOnUse" color-interpolation-filters="sRGB">
<feFlood flood-opacity="0" result="BackgroundImageFix"/>
<feColorMatrix in="SourceAlpha" type="matrix" values="0 0 0 0 0 0 0 0 0 0 0 0 0 0 0 0 0 0 127 0" result="hardAlpha"/>
<feOffset/>
<feColorMatrix type="matrix" values="0 0 0 0 0 0 0 0 0 0 0 0 0 0 0 0 0 0 0.1 0"/>
<feBlend mode="normal" in2="BackgroundImageFix" result="effect1_dropShadow_3_6224"/>
<feColorMatrix in="SourceAlpha" type="matrix" values="0 0 0 0 0 0 0 0 0 0 0 0 0 0 0 0 0 0 127 0" result="hardAlpha"/>
<feOffset/>
<feGaussianBlur stdDeviation="0.5"/>
<feColorMatrix type="matrix" values="0 0 0 0 0 0 0 0 0 0 0 0 0 0 0 0 0 0 0.1 0"/>
<feBlend mode="normal" in2="effect1_dropShadow_3_6224" result="effect2_dropShadow_3_6224"/>
<feColorMatrix in="SourceAlpha" type="matrix" values="0 0 0 0 0 0 0 0 0 0 0 0 0 0 0 0 0 0 127 0" result="hardAlpha"/>
<feOffset dy="2"/>
<feGaussianBlur stdDeviation="1"/>
<feColorMatrix type="matrix" values="0 0 0 0 0 0 0 0 0 0 0 0 0 0 0 0 0 0 0.09 0"/>
<feBlend mode="normal" in2="effect2_dropShadow_3_6224" result="effect3_dropShadow_3_6224"/>
<feColorMatrix in="SourceAlpha" type="matrix" values="0 0 0 0 0 0 0 0 0 0 0 0 0 0 0 0 0 0 127 0" result="hardAlpha"/>
<feOffset dy="4"/>
<feGaussianBlur stdDeviation="1"/>
<feColorMatrix type="matrix" values="0 0 0 0 0 0 0 0 0 0 0 0 0 0 0 0 0 0 0.05 0"/>
<feBlend mode="normal" in2="effect3_dropShadow_3_6224" result="effect4_dropShadow_3_6224"/>
<feColorMatrix in="SourceAlpha" type="matrix" values="0 0 0 0 0 0 0 0 0 0 0 0 0 0 0 0 0 0 127 0" result="hardAlpha"/>
<feOffset dy="6"/>
<feGaussianBlur stdDeviation="1.5"/>
<feColorMatrix type="matrix" values="0 0 0 0 0 0 0 0 0 0 0 0 0 0 0 0 0 0 0.01 0"/>
<feBlend mode="normal" in2="effect4_dropShadow_3_6224" result="effect5_dropShadow_3_6224"/>
<feBlend mode="normal" in="SourceGraphic" in2="effect5_dropShadow_3_6224" result="shape"/>
</filter>
</defs>
</svg>
