<svg width="46" height="50" viewBox="0 0 46 50" fill="none" xmlns="http://www.w3.org/2000/svg">
<g filter="url(#filter0_ddddd_3_6239)">
<circle cx="23" cy="21" r="20" fill="white"/>
</g>
<circle cx="23" cy="21" r="16.6" stroke="#38618C" stroke-width="0.8"/>
<path d="M32.9789 16.6788L29.6418 29.5338C29.6076 29.6672 29.5318 29.7852 29.4259 29.8696C29.3201 29.9539 29.1903 29.9997 29.0566 30C29.0037 29.9998 28.951 29.9926 28.8999 29.9787L20.7367 27.7207C20.5819 27.6777 20.45 27.573 20.3698 27.4297C20.2896 27.2863 20.2677 27.1161 20.309 26.9561L20.3973 26.6178C20.4239 26.5151 20.4888 26.4276 20.5778 26.3744C20.6669 26.3211 20.7727 26.3066 20.8721 26.334C20.9715 26.3614 21.0563 26.4284 21.1079 26.5204C21.1594 26.6123 21.1735 26.7216 21.147 26.8242L21.1031 26.9927L28.9367 29.1521L32.1854 16.6395L28.8631 15.721C28.8139 15.7074 28.7677 15.6839 28.7273 15.6519C28.6869 15.6199 28.653 15.58 28.6275 15.5344C28.602 15.4889 28.5854 15.4386 28.5788 15.3864C28.5721 15.3343 28.5754 15.2813 28.5886 15.2305C28.6018 15.1797 28.6245 15.132 28.6555 15.0903C28.6865 15.0485 28.7252 15.0135 28.7693 14.9872C28.8134 14.9609 28.8622 14.9438 28.9127 14.9369C28.9632 14.93 29.0145 14.9335 29.0637 14.9471L32.5525 15.9115C32.6293 15.933 32.7013 15.9699 32.7642 16.02C32.8272 16.0702 32.8801 16.1327 32.9197 16.204C32.9593 16.2752 32.9849 16.3538 32.995 16.4353C33.0052 16.5168 32.9997 16.5995 32.9789 16.6788ZM20.167 12.6725C20.1162 12.6725 20.0659 12.6828 20.0189 12.7029C19.9719 12.723 19.9293 12.7524 19.8933 12.7895C19.8574 12.8266 19.8289 12.8707 19.8094 12.9192C19.79 12.9677 19.78 13.0196 19.78 13.0721V13.4538C19.78 13.5598 19.8207 13.6614 19.8933 13.7363C19.9659 13.8113 20.0644 13.8534 20.167 13.8534C20.2697 13.8534 20.3681 13.8113 20.4407 13.7363C20.5133 13.6614 20.5541 13.5598 20.5541 13.4538V13.0721C20.5541 12.9661 20.5133 12.8645 20.4407 12.7895C20.3681 12.7146 20.2697 12.6725 20.167 12.6725ZM25.117 18.0469C25.1635 18.1145 25.1885 18.1954 25.1885 18.2784C25.1885 18.3613 25.1635 18.4422 25.117 18.5098L23.3177 21.1361C23.2821 21.1887 23.2346 21.2317 23.1794 21.2614C23.1242 21.291 23.0629 21.3065 23.0007 21.3065C22.9384 21.3065 22.8771 21.291 22.8219 21.2614C22.7667 21.2317 22.7193 21.1887 22.6836 21.1361L20.8844 18.5098C20.8379 18.4422 20.8129 18.3613 20.8129 18.2784C20.8129 18.1954 20.8379 18.1145 20.8844 18.0469L22.6836 15.4206C22.7193 15.368 22.7667 15.325 22.8219 15.2954C22.8771 15.2657 22.9384 15.2502 23.0007 15.2502C23.0629 15.2502 23.1242 15.2657 23.1794 15.2954C23.2346 15.325 23.2821 15.368 23.3177 15.4206L25.117 18.0469ZM24.3248 18.278L23.001 16.3465L21.6772 18.278L23.001 20.2096L24.3248 18.278ZM27.7967 27.1273L27.7019 27.4956C27.6887 27.5464 27.6852 27.5994 27.6918 27.6515C27.6985 27.7037 27.715 27.7539 27.7404 27.7995C27.7659 27.845 27.7998 27.8849 27.8403 27.9169C27.8807 27.9489 27.9269 27.9723 27.9761 27.9858C28.0089 27.9951 28.0427 27.9998 28.0767 27.9998C28.1622 28 28.2453 27.9709 28.3131 27.9172C28.3809 27.8635 28.4296 27.7881 28.4515 27.7028L28.547 27.3344C28.5602 27.2836 28.5636 27.2306 28.557 27.1784C28.5504 27.1263 28.5338 27.0759 28.5084 27.0304C28.4829 26.9848 28.449 26.9448 28.4086 26.9128C28.3682 26.8807 28.3221 26.8572 28.2728 26.8435C28.2236 26.8299 28.1723 26.8264 28.1217 26.8332C28.0712 26.8401 28.0225 26.8571 27.9783 26.8834C27.9342 26.9097 27.8955 26.9447 27.8644 26.9864C27.8334 27.0282 27.8106 27.0758 27.7974 27.1266L27.7967 27.1273ZM17.8485 19.79C17.9538 19.76 18.062 19.7421 18.1711 19.7367V11.6248C18.1712 11.4591 18.235 11.3003 18.3485 11.1832C18.4619 11.0661 18.6157 11.0002 18.7762 11H27.2271C27.3875 11.0002 27.5414 11.0661 27.6548 11.1832C27.7682 11.3003 27.8321 11.4591 27.8322 11.6248V19.7367C27.9413 19.7424 28.0494 19.7603 28.1548 19.79C28.4969 19.885 28.7885 20.1163 28.9657 20.4331C29.1429 20.7499 29.1911 21.1263 29.0999 21.4798C28.8639 22.1503 28.4183 22.7205 27.8335 23.1003V24.932C27.8333 25.0975 27.7695 25.2563 27.6561 25.3733C27.5426 25.4903 27.3888 25.5561 27.2284 25.5561H18.7775C18.6171 25.5561 18.4633 25.4903 18.3498 25.3733C18.2363 25.2563 18.1725 25.0975 18.1723 24.932V23.1003C17.5875 22.7201 17.1417 22.1497 16.9054 21.4791C16.8599 21.3041 16.8483 21.1215 16.8712 20.9419C16.8941 20.7622 16.951 20.589 17.0388 20.432C17.1266 20.2751 17.2434 20.1376 17.3827 20.0273C17.522 19.917 17.6809 19.8362 17.8504 19.7893L17.8485 19.79ZM27.8322 22.0659C28.072 21.8559 28.2507 21.5813 28.3483 21.2726C28.3674 21.1992 28.3724 21.1226 28.3628 21.0472C28.3532 20.9718 28.3294 20.8991 28.2926 20.8332C28.2558 20.7673 28.2068 20.7096 28.1484 20.6633C28.09 20.617 28.0233 20.583 27.9522 20.5633C27.9128 20.5523 27.8727 20.5443 27.8322 20.5393V22.0659ZM18.9465 24.7561H27.0555V11.8013H18.9465V24.7561ZM17.653 21.2726C17.7507 21.5812 17.9294 21.8558 18.1691 22.0659V20.5393C18.1284 20.5442 18.0881 20.5522 18.0485 20.5633C17.9773 20.5829 17.9106 20.6168 17.8521 20.6631C17.7937 20.7094 17.7447 20.7672 17.7079 20.8331C17.6711 20.899 17.6472 20.9717 17.6377 21.0471C17.6282 21.1226 17.6332 21.1992 17.6524 21.2726H17.653ZM20.4915 28.2076L17.0653 29.1521L13.8146 16.6415L17.1369 15.723C17.1862 15.7094 17.2323 15.6859 17.2727 15.6539C17.3132 15.6219 17.3471 15.582 17.3726 15.5364C17.3981 15.4909 17.4146 15.4406 17.4213 15.3884C17.428 15.3363 17.4246 15.2833 17.4114 15.2325C17.3983 15.1817 17.3755 15.134 17.3445 15.0923C17.3135 15.0505 17.2748 15.0155 17.2307 14.9892C17.1866 14.9629 17.1379 14.9458 17.0874 14.9389C17.0369 14.932 16.9855 14.9355 16.9363 14.9491L13.4482 15.9135C13.2933 15.9564 13.1613 16.0611 13.0811 16.2045C13.0009 16.3478 12.9791 16.5182 13.0205 16.6782L16.3577 29.5331C16.392 29.6662 16.4679 29.784 16.5735 29.8683C16.6791 29.9525 16.8087 29.9986 16.9421 29.9993C16.9951 29.9993 17.0477 29.9921 17.0989 29.978L20.6876 28.9849C20.7871 28.9574 20.8719 28.8901 20.9234 28.798C20.9749 28.7059 20.9888 28.5964 20.9621 28.4937C20.9354 28.391 20.8703 28.3034 20.7811 28.2503C20.6919 28.1971 20.5858 28.1827 20.4864 28.2103L20.4915 28.2076ZM15.2171 17.1577C15.1679 17.1713 15.1217 17.1948 15.0813 17.2269C15.0409 17.2589 15.007 17.2989 14.9816 17.3445C14.9562 17.3901 14.9397 17.4405 14.9332 17.4926C14.9267 17.5448 14.9302 17.5978 14.9436 17.6486L15.0391 18.0169C15.061 18.1022 15.1097 18.1776 15.1775 18.2314C15.2453 18.2851 15.3284 18.3142 15.4139 18.314C15.4478 18.3138 15.4817 18.3091 15.5145 18.3C15.5638 18.2866 15.6101 18.2632 15.6507 18.2312C15.6913 18.1992 15.7253 18.1592 15.7508 18.1136C15.7764 18.068 15.7929 18.0176 15.7995 17.9653C15.8061 17.9131 15.8027 17.86 15.7893 17.8091L15.6938 17.4408C15.6808 17.3893 15.658 17.3411 15.6267 17.2988C15.5955 17.2566 15.5563 17.2212 15.5116 17.1948C15.4669 17.1683 15.4176 17.1514 15.3664 17.1449C15.3153 17.1384 15.2634 17.1426 15.2139 17.157L15.2171 17.1577ZM25.8375 22.7013C25.7867 22.7013 25.7364 22.7117 25.6894 22.7317C25.6425 22.7518 25.5998 22.7813 25.5638 22.8184C25.5279 22.8555 25.4994 22.8995 25.4799 22.948C25.4605 22.9965 25.4505 23.0485 25.4505 23.101V23.4826C25.4505 23.5886 25.4913 23.6903 25.5638 23.7652C25.6364 23.8401 25.7349 23.8822 25.8375 23.8822C25.9402 23.8822 26.0387 23.8401 26.1112 23.7652C26.1838 23.6903 26.2246 23.5886 26.2246 23.4826V23.101C26.2247 23.0481 26.2146 22.9958 26.195 22.9471C26.1754 22.8983 26.1466 22.854 26.1103 22.8168C26.074 22.7795 26.031 22.7501 25.9836 22.7302C25.9362 22.7103 25.8855 22.7002 25.8343 22.7007L25.8375 22.7013Z" fill="#38618C"/>
<defs>
<filter id="filter0_ddddd_3_6239" x="0" y="0" width="46" height="50" filterUnits="userSpaceOnUse" color-interpolation-filters="sRGB">
<feFlood flood-opacity="0" result="BackgroundImageFix"/>
<feColorMatrix in="SourceAlpha" type="matrix" values="0 0 0 0 0 0 0 0 0 0 0 0 0 0 0 0 0 0 127 0" result="hardAlpha"/>
<feOffset/>
<feColorMatrix type="matrix" values="0 0 0 0 0 0 0 0 0 0 0 0 0 0 0 0 0 0 0.1 0"/>
<feBlend mode="normal" in2="BackgroundImageFix" result="effect1_dropShadow_3_6239"/>
<feColorMatrix in="SourceAlpha" type="matrix" values="0 0 0 0 0 0 0 0 0 0 0 0 0 0 0 0 0 0 127 0" result="hardAlpha"/>
<feOffset/>
<feGaussianBlur stdDeviation="0.5"/>
<feColorMatrix type="matrix" values="0 0 0 0 0 0 0 0 0 0 0 0 0 0 0 0 0 0 0.1 0"/>
<feBlend mode="normal" in2="effect1_dropShadow_3_6239" result="effect2_dropShadow_3_6239"/>
<feColorMatrix in="SourceAlpha" type="matrix" values="0 0 0 0 0 0 0 0 0 0 0 0 0 0 0 0 0 0 127 0" result="hardAlpha"/>
<feOffset dy="2"/>
<feGaussianBlur stdDeviation="1"/>
<feColorMatrix type="matrix" values="0 0 0 0 0 0 0 0 0 0 0 0 0 0 0 0 0 0 0.09 0"/>
<feBlend mode="normal" in2="effect2_dropShadow_3_6239" result="effect3_dropShadow_3_6239"/>
<feColorMatrix in="SourceAlpha" type="matrix" values="0 0 0 0 0 0 0 0 0 0 0 0 0 0 0 0 0 0 127 0" result="hardAlpha"/>
<feOffset dy="4"/>
<feGaussianBlur stdDeviation="1"/>
<feColorMatrix type="matrix" values="0 0 0 0 0 0 0 0 0 0 0 0 0 0 0 0 0 0 0.05 0"/>
<feBlend mode="normal" in2="effect3_dropShadow_3_6239" result="effect4_dropShadow_3_6239"/>
<feColorMatrix in="SourceAlpha" type="matrix" values="0 0 0 0 0 0 0 0 0 0 0 0 0 0 0 0 0 0 127 0" result="hardAlpha"/>
<feOffset dy="6"/>
<feGaussianBlur stdDeviation="1.5"/>
<feColorMatrix type="matrix" values="0 0 0 0 0 0 0 0 0 0 0 0 0 0 0 0 0 0 0.01 0"/>
<feBlend mode="normal" in2="effect4_dropShadow_3_6239" result="effect5_dropShadow_3_6239"/>
<feBlend mode="normal" in="SourceGraphic" in2="effect5_dropShadow_3_6239" result="shape"/>
</filter>
</defs>
</svg>
