<svg width="46" height="50" viewBox="0 0 46 50" fill="none" xmlns="http://www.w3.org/2000/svg">
<g filter="url(#filter0_ddddd_3_6139)">
<circle cx="23" cy="21" r="20" fill="white"/>
</g>
<circle cx="23" cy="21" r="16.6" stroke="#DA5832" stroke-width="0.8"/>
<path d="M30.997 18.1352C31.001 18.0981 31.001 18.0604 30.997 18.0232C31.0005 17.9861 31.0005 17.9486 30.997 17.9113L29.8336 14.6715C29.6888 14.2543 29.4117 13.8915 29.0412 13.6341C28.6707 13.3769 28.2255 13.2378 27.7686 13.2371H18.2287C17.7719 13.2378 17.3266 13.3769 16.9561 13.6341C16.5856 13.8915 16.3085 14.2544 16.1638 14.6715L15.0367 17.9113C15.0331 17.9486 15.0331 17.9861 15.0367 18.0232C15.0203 18.0592 15.0081 18.0968 15.0004 18.1352V18.4851C14.989 19.1385 15.251 19.7688 15.7275 20.2345V23.7332C15.7275 24.6611 16.1105 25.551 16.7924 26.2071C17.4742 26.8633 18.3988 27.2319 19.3631 27.2319H26.6343C27.5986 27.2319 28.5232 26.8633 29.205 26.2071C29.8869 25.551 30.2699 24.6611 30.2699 23.7332V20.2345V20.1995C30.7374 19.7425 30.9987 19.1264 30.997 18.4851L30.997 18.1352ZM17.5377 15.1123C17.5866 14.9734 17.6794 14.8527 17.8034 14.7672C17.9274 14.6818 18.0761 14.6362 18.2285 14.6365H27.7683C27.9269 14.6285 28.0838 14.6707 28.215 14.7566C28.3463 14.8425 28.4448 14.9675 28.4954 15.1123L29.5424 18.2472V18.4851C29.5424 18.8601 29.3345 19.2065 28.9971 19.3941C28.6597 19.5815 28.2438 19.5815 27.9064 19.3941C27.569 19.2065 27.3611 18.8601 27.3611 18.4851C27.3611 18.235 27.2225 18.004 26.9975 17.8791C26.7726 17.7541 26.4953 17.7541 26.2704 17.8791C26.0454 18.004 25.9068 18.235 25.9068 18.4851C25.9068 18.8601 25.6989 19.2065 25.3615 19.3941C25.0241 19.5815 24.6082 19.5815 24.2708 19.3941C23.9334 19.2065 23.7255 18.8601 23.7255 18.4851C23.7255 18.235 23.5869 18.004 23.3619 17.8791C23.137 17.7541 22.8597 17.7541 22.6348 17.8791C22.4098 18.004 22.2712 18.235 22.2712 18.4851C22.2712 18.8601 22.0633 19.2065 21.7259 19.3941C21.3885 19.5815 20.9726 19.5815 20.6352 19.3941C20.2978 19.2065 20.0899 18.8601 20.0899 18.4851C20.0899 18.235 19.9513 18.004 19.7263 17.8791C19.5013 17.7541 19.2241 17.7541 18.9992 17.8791C18.7742 18.004 18.6356 18.235 18.6356 18.4851C18.6356 18.8601 18.4277 19.2065 18.0903 19.3941C17.7528 19.5815 17.337 19.5815 16.9996 19.3941C16.6622 19.2065 16.4542 18.8601 16.4542 18.4851V18.2472L17.5377 15.1123ZM26.6342 25.8323H19.363C18.7844 25.8323 18.2296 25.6112 17.8205 25.2176C17.4115 24.8238 17.1816 24.2899 17.1816 23.7331V20.9341C17.3019 20.9532 17.4233 20.9647 17.5452 20.9691C18.2293 20.9701 18.8847 20.705 19.363 20.2344C19.8407 20.7063 20.4962 20.9726 21.1808 20.9726C21.8654 20.9726 22.521 20.7062 22.9986 20.2344C23.4753 20.7081 24.1312 20.9755 24.8164 20.9755C25.5017 20.9755 26.1575 20.7081 26.6342 20.2344C27.119 20.6916 27.7734 20.9435 28.452 20.9341C28.5731 20.9415 28.6945 20.9415 28.8156 20.9341V23.7331C28.8156 24.2899 28.5858 24.8238 28.1768 25.2176C27.7676 25.6112 27.2128 25.8323 26.6342 25.8323Z" fill="#DA5832"/>
<defs>
<filter id="filter0_ddddd_3_6139" x="0" y="0" width="46" height="50" filterUnits="userSpaceOnUse" color-interpolation-filters="sRGB">
<feFlood flood-opacity="0" result="BackgroundImageFix"/>
<feColorMatrix in="SourceAlpha" type="matrix" values="0 0 0 0 0 0 0 0 0 0 0 0 0 0 0 0 0 0 127 0" result="hardAlpha"/>
<feOffset/>
<feColorMatrix type="matrix" values="0 0 0 0 0 0 0 0 0 0 0 0 0 0 0 0 0 0 0.1 0"/>
<feBlend mode="normal" in2="BackgroundImageFix" result="effect1_dropShadow_3_6139"/>
<feColorMatrix in="SourceAlpha" type="matrix" values="0 0 0 0 0 0 0 0 0 0 0 0 0 0 0 0 0 0 127 0" result="hardAlpha"/>
<feOffset/>
<feGaussianBlur stdDeviation="0.5"/>
<feColorMatrix type="matrix" values="0 0 0 0 0 0 0 0 0 0 0 0 0 0 0 0 0 0 0.1 0"/>
<feBlend mode="normal" in2="effect1_dropShadow_3_6139" result="effect2_dropShadow_3_6139"/>
<feColorMatrix in="SourceAlpha" type="matrix" values="0 0 0 0 0 0 0 0 0 0 0 0 0 0 0 0 0 0 127 0" result="hardAlpha"/>
<feOffset dy="2"/>
<feGaussianBlur stdDeviation="1"/>
<feColorMatrix type="matrix" values="0 0 0 0 0 0 0 0 0 0 0 0 0 0 0 0 0 0 0.09 0"/>
<feBlend mode="normal" in2="effect2_dropShadow_3_6139" result="effect3_dropShadow_3_6139"/>
<feColorMatrix in="SourceAlpha" type="matrix" values="0 0 0 0 0 0 0 0 0 0 0 0 0 0 0 0 0 0 127 0" result="hardAlpha"/>
<feOffset dy="4"/>
<feGaussianBlur stdDeviation="1"/>
<feColorMatrix type="matrix" values="0 0 0 0 0 0 0 0 0 0 0 0 0 0 0 0 0 0 0.05 0"/>
<feBlend mode="normal" in2="effect3_dropShadow_3_6139" result="effect4_dropShadow_3_6139"/>
<feColorMatrix in="SourceAlpha" type="matrix" values="0 0 0 0 0 0 0 0 0 0 0 0 0 0 0 0 0 0 127 0" result="hardAlpha"/>
<feOffset dy="6"/>
<feGaussianBlur stdDeviation="1.5"/>
<feColorMatrix type="matrix" values="0 0 0 0 0 0 0 0 0 0 0 0 0 0 0 0 0 0 0.01 0"/>
<feBlend mode="normal" in2="effect4_dropShadow_3_6139" result="effect5_dropShadow_3_6139"/>
<feBlend mode="normal" in="SourceGraphic" in2="effect5_dropShadow_3_6139" result="shape"/>
</filter>
</defs>
</svg>
