<svg width="46" height="50" viewBox="0 0 46 50" fill="none" xmlns="http://www.w3.org/2000/svg">
<g filter="url(#filter0_ddddd_3_6152)">
<circle cx="23" cy="21" r="20" fill="white"/>
</g>
<circle cx="23" cy="21" r="16.6" stroke="#35A7FF" stroke-width="0.8"/>
<path d="M26.9368 11.0099C26.8227 11.0099 26.7086 11.017 26.5964 11.0241C24.7288 11.1802 22.98 12.0045 21.6705 13.346C19.8218 15.1958 18.9374 17.4565 19.2371 19.5482C19.3549 20.3683 19.3228 21.2029 19.1424 22.0114L19.1308 22.0585C18.9703 22.778 18.6451 23.4503 18.1806 24.0225L17.9698 24.2805C17.8341 24.2674 17.6972 24.2837 17.5683 24.3282C17.4394 24.3727 17.3215 24.4444 17.2228 24.5385L13.4628 28.3007C13.1665 28.5972 13 28.9994 13 29.4188C13 29.8382 13.1665 30.2403 13.4628 30.5369C13.7592 30.8334 14.1611 31 14.5802 31C14.9994 31 15.4013 30.8334 15.6977 30.5369L19.4556 26.7747C19.544 26.6868 19.6141 26.5822 19.6619 26.4671C19.7096 26.352 19.7342 26.2285 19.7341 26.1039C19.7341 26.0755 19.7283 26.0484 19.7257 26.02L19.9726 25.8201C20.5473 25.3559 21.2222 25.0319 21.9438 24.8739L22.0282 24.8545C22.8224 24.6767 23.6421 24.6437 24.448 24.7571C26.5449 25.0545 28.8087 24.1708 30.6471 22.3294C31.9884 21.0198 32.8124 19.2698 32.9676 17.4011C33.0558 16.5705 32.9633 15.7306 32.6966 14.9391C32.4298 14.1477 31.995 13.4234 31.4221 12.8159C30.8491 12.2084 30.1516 11.7322 29.3774 11.4199C28.6032 11.1076 27.7706 10.9666 26.9368 11.0067V11.0099ZM16.379 11.4201C15.8233 11.435 15.2842 11.6126 14.8283 11.9309C14.3724 12.2492 14.0198 12.6943 13.814 13.211C13.6083 13.7277 13.5584 14.2935 13.6706 14.8382C13.7827 15.383 14.0521 15.883 14.4452 16.2762C14.5135 16.3407 14.5825 16.4052 14.6553 16.4697C15.1621 16.887 15.7988 17.1138 16.455 17.1108H16.5356C17.2834 17.0812 17.9894 16.7578 18.5006 16.2108C19.0117 15.6638 19.2867 14.9372 19.266 14.1887C19.2453 13.4401 18.9305 12.7299 18.39 12.212C17.8494 11.6941 17.1266 11.4102 16.3783 11.422L16.379 11.4201ZM27.2475 11.6413C28.5971 11.6562 29.8884 12.1934 30.8508 13.1403C31.3885 13.6929 31.7996 14.356 32.0556 15.0835C32.3116 15.811 32.4064 16.5855 32.3333 17.3533C32.1883 19.0697 31.4307 20.6765 30.1991 21.8799C28.5006 23.5781 26.4353 24.3953 24.535 24.127C23.6548 24.003 22.7594 24.0395 21.8922 24.2347L21.8084 24.2534C20.9896 24.4344 20.2242 24.8039 19.5729 25.3325L19.4518 25.4324L18.5654 24.5456L18.6705 24.4224C19.1983 23.7733 19.5671 23.0097 19.7476 22.1927L19.7592 22.1456C19.9564 21.2627 19.9914 20.3514 19.8624 19.456C19.5897 17.5617 20.4122 15.4964 22.1185 13.7898C23.3211 12.5566 24.9276 11.7982 26.6435 11.6536C26.8453 11.6407 27.0502 11.6375 27.2481 11.6413H27.2475ZM16.718 12.0689C16.7266 12.0696 16.7352 12.0696 16.7438 12.0689C16.85 12.0834 16.9551 12.1049 17.0584 12.1334L17.0848 12.1399C17.1889 12.1706 17.2902 12.2098 17.3878 12.2573C17.4065 12.265 17.4245 12.2728 17.4426 12.2818C17.5377 12.33 17.6294 12.3845 17.7172 12.445C17.7333 12.4566 17.7487 12.4682 17.7636 12.4798C17.8553 12.5454 17.9415 12.6183 18.0214 12.6978C18.0999 12.7786 18.1727 12.8649 18.2393 12.9558L18.2767 13.0074C18.337 13.0955 18.391 13.1878 18.4385 13.2835C18.4475 13.3009 18.4559 13.3189 18.4636 13.3363C18.5077 13.431 18.5451 13.5287 18.5758 13.6285L18.5829 13.6479C18.6117 13.7538 18.6332 13.8615 18.6473 13.9704V14.0052C18.1548 13.9464 17.6964 13.7236 17.3457 13.3727C16.995 13.0217 16.7723 12.563 16.7135 12.0702L16.718 12.0689ZM16.0863 12.0857C16.1505 12.7402 16.4395 13.3522 16.904 13.8174C17.3685 14.2827 17.9798 14.5724 18.6338 14.6373C18.5585 15.0889 18.3441 15.5058 18.0205 15.8296C17.6969 16.1534 17.2803 16.3679 16.8289 16.4433C16.765 15.789 16.476 15.1772 16.0114 14.7125C15.5468 14.2477 14.9354 13.9587 14.2815 13.8949C14.3555 13.4424 14.5695 13.0245 14.8932 12.7C15.217 12.3754 15.6342 12.1606 16.0863 12.0857ZM27.0954 12.5037C26.1822 12.4861 25.2782 12.6892 24.4603 13.0958C24.4408 13.1031 24.4222 13.1126 24.4048 13.1241C23.8043 13.4252 23.2561 13.8209 22.7811 14.2961C20.4464 16.6335 20.2227 19.574 22.1939 21.667C22.199 21.676 22.2048 21.6847 22.2113 21.6928C22.2164 21.6966 22.2218 21.7001 22.2274 21.7031C22.2545 21.7315 22.2783 21.7625 22.3067 21.7915C22.7347 22.2424 23.2491 22.6022 23.8193 22.8496C24.3894 23.0969 25.0036 23.2267 25.625 23.2311C25.7799 23.231 25.9346 23.2226 26.0885 23.2059C27.5057 23.0209 28.8157 22.3522 29.7975 21.3129C30.5265 20.6159 31.0593 19.7391 31.3422 18.7707C31.625 17.8023 31.6481 16.7765 31.409 15.7963C31.405 15.7646 31.3957 15.7339 31.3813 15.7054C31.1742 14.9942 30.7934 14.3459 30.2732 13.8188C30.2449 13.7911 30.2146 13.7685 30.1875 13.7427C30.1817 13.7362 30.1797 13.7291 30.1746 13.7233C30.1645 13.7156 30.154 13.7085 30.143 13.7021C29.3082 12.9431 28.2245 12.5164 27.0967 12.5024L27.0954 12.5037ZM26.9626 13.1267C27.0722 13.1267 27.1779 13.1332 27.2849 13.1403L26.0202 14.4064L25.1165 13.4957C25.7033 13.2571 26.3299 13.132 26.9632 13.1267H26.9626ZM28.0545 13.2667C28.5746 13.3989 29.0617 13.6376 29.4849 13.9678L28.897 14.556L28.5702 14.2271C28.5109 14.1672 28.4302 14.1334 28.346 14.133C28.2617 14.1326 28.1807 14.1658 28.1209 14.2251C28.0611 14.2845 28.0273 14.3652 28.0269 14.4495C28.0265 14.5338 28.0597 14.6148 28.119 14.6747L28.4477 15.0024L27.5311 15.9195L26.4701 14.8546L28.0545 13.2667ZM24.5041 13.7827L25.5754 14.8534L24.6801 15.7492L23.4618 14.5302C23.7797 14.2427 24.1292 13.9921 24.5035 13.7833L24.5041 13.7827ZM29.9438 14.4012C30.3016 14.7921 30.5739 15.2534 30.7431 15.7557L30.4208 16.0782L29.345 15.0056L29.9438 14.4012ZM14.2621 14.5264C14.7547 14.585 15.2133 14.8077 15.564 15.1587C15.9148 15.5096 16.1373 15.9684 16.1959 16.4613C16.1811 16.4613 16.1637 16.4613 16.1482 16.4555C16.0454 16.4418 15.9435 16.4213 15.8433 16.3942L15.8111 16.3826C15.715 16.3536 15.6211 16.3179 15.5301 16.2756C15.5127 16.2665 15.494 16.2594 15.4759 16.2498C15.3806 16.2026 15.289 16.1482 15.202 16.0872L15.151 16.0517C15.0597 15.9857 14.9735 15.9128 14.8932 15.8337C14.8147 15.7531 14.7421 15.6669 14.676 15.5757C14.6631 15.559 14.6502 15.5409 14.6379 15.5229C14.5778 15.4356 14.5235 15.3445 14.4755 15.25C14.4678 15.2307 14.46 15.2146 14.4523 15.1952C14.4074 15.1001 14.3697 15.0018 14.3395 14.9011L14.3324 14.8837C14.303 14.7779 14.2814 14.6701 14.2679 14.5612C14.2679 14.5502 14.2679 14.5399 14.2634 14.5283L14.2621 14.5264ZM23.0132 14.9733L24.2334 16.1988L23.3309 17.1018L22.2403 16.0124C22.4629 15.6411 22.722 15.293 23.0138 14.9733H23.0132ZM26.0215 15.3003L27.087 16.3659L26.1929 17.263L25.1281 16.1975L26.0215 15.3003ZM28.8977 15.4493L29.9735 16.5265L29.0582 17.4436L27.9823 16.3665L28.8977 15.4493ZM30.912 16.4813C31.0266 17.3293 30.9155 18.1926 30.5897 18.9839L29.4997 17.8925L30.912 16.4813ZM21.927 16.5981L22.8817 17.5513L21.528 18.9058C21.4519 18.1141 21.5901 17.3165 21.9283 16.5968L21.927 16.5981ZM24.6807 16.6451L25.7469 17.7113L24.8406 18.6143L23.7744 17.5488L24.6807 16.6451ZM27.5343 16.8154L28.6108 17.8925L26.3637 20.1397L25.2873 19.0632L26.1897 18.1602L26.6409 18.6117C26.6701 18.6411 26.7048 18.6644 26.7431 18.6804C26.7813 18.6964 26.8223 18.7047 26.8637 18.7048C26.9051 18.7049 26.9461 18.6969 26.9845 18.6811C27.0228 18.6654 27.0576 18.6422 27.087 18.613C27.1164 18.5838 27.1397 18.549 27.1557 18.5108C27.1716 18.4726 27.1799 18.4315 27.18 18.3901C27.1801 18.3486 27.1721 18.3076 27.1564 18.2692C27.1406 18.2309 27.1175 18.1961 27.0883 18.1667L26.6371 17.7152L27.5343 16.8154ZM23.3284 17.997L24.3932 19.0632L23.4908 19.9694L22.4259 18.9045L23.3284 17.997ZM29.0569 18.3395L30.308 19.5914C30.1002 19.9659 29.8507 20.3155 29.5642 20.6337L28.1635 19.2335L29.0569 18.3395ZM21.9766 19.3502L23.0415 20.4157L22.4504 21.0078C22.1101 20.6064 21.8491 20.1439 21.6814 19.645L21.9766 19.3502ZM24.8393 19.5102L25.9151 20.5873L24.2269 22.2778C24.2161 22.2901 24.2066 22.3035 24.1986 22.3178C23.713 22.1155 23.2683 21.8266 22.8862 21.4651L23.4882 20.8634L23.8917 21.2665C23.9207 21.2976 23.9555 21.3225 23.9943 21.3398C24.0331 21.3571 24.0749 21.3664 24.1174 21.3672C24.1598 21.3679 24.202 21.3601 24.2413 21.3442C24.2807 21.3282 24.3164 21.3045 24.3464 21.2745C24.3764 21.2444 24.4001 21.2086 24.4159 21.1692C24.4318 21.1298 24.4395 21.0876 24.4387 21.0451C24.4379 21.0027 24.4286 20.9608 24.4112 20.922C24.3939 20.8833 24.3689 20.8484 24.3378 20.8195L23.9349 20.4157L24.8393 19.5102ZM27.7148 19.6792L29.1162 21.0833C28.7989 21.3762 28.4534 21.637 28.0848 21.8618L26.8105 20.5854L27.7148 19.6792ZM26.3612 21.0336L27.495 22.1701C27.0303 22.3862 26.5335 22.5248 26.024 22.5803C25.6407 22.6167 25.254 22.5961 24.8767 22.519L26.3612 21.0336ZM21.0974 21.7134C21.0137 21.714 20.9335 21.747 20.8737 21.8057C20.8145 21.8651 20.7812 21.9456 20.7812 22.0295C20.7812 22.1134 20.8145 22.1939 20.8737 22.2533L21.733 23.1131C21.7924 23.1718 21.8725 23.2048 21.956 23.2048C22.0395 23.2048 22.1197 23.1718 22.179 23.1131C22.2383 23.0537 22.2716 22.9732 22.2716 22.8893C22.2716 22.8053 22.2383 22.7248 22.179 22.6654L21.3204 21.8057C21.2608 21.7469 21.1805 21.714 21.0968 21.7141L21.0974 21.7134ZM17.8925 24.8971C17.934 24.897 17.9751 24.9051 18.0135 24.9209C18.0519 24.9368 18.0868 24.96 18.1162 24.9893L19.0102 25.8839C19.0397 25.9132 19.063 25.9481 19.0789 25.9865C19.0947 26.025 19.1027 26.0662 19.1024 26.1077C19.1029 26.1493 19.095 26.1906 19.0792 26.2291C19.0633 26.2675 19.0399 26.3024 19.0102 26.3316L15.2503 30.0931C15.0696 30.2652 14.8297 30.3611 14.5802 30.3611C14.3308 30.3611 14.0909 30.2652 13.9102 30.0931C13.8221 30.0051 13.7522 29.9005 13.7045 29.7854C13.6568 29.6703 13.6323 29.5469 13.6323 29.4223C13.6323 29.2977 13.6568 29.1744 13.7045 29.0593C13.7522 28.9442 13.8221 28.8396 13.9102 28.7515L17.6708 24.9893C17.6998 24.9599 17.7344 24.9366 17.7726 24.9207C17.8108 24.9049 17.8518 24.8969 17.8931 24.8971H17.8925Z" fill="#35A7FF"/>
<defs>
<filter id="filter0_ddddd_3_6152" x="0" y="0" width="46" height="50" filterUnits="userSpaceOnUse" color-interpolation-filters="sRGB">
<feFlood flood-opacity="0" result="BackgroundImageFix"/>
<feColorMatrix in="SourceAlpha" type="matrix" values="0 0 0 0 0 0 0 0 0 0 0 0 0 0 0 0 0 0 127 0" result="hardAlpha"/>
<feOffset/>
<feColorMatrix type="matrix" values="0 0 0 0 0 0 0 0 0 0 0 0 0 0 0 0 0 0 0.1 0"/>
<feBlend mode="normal" in2="BackgroundImageFix" result="effect1_dropShadow_3_6152"/>
<feColorMatrix in="SourceAlpha" type="matrix" values="0 0 0 0 0 0 0 0 0 0 0 0 0 0 0 0 0 0 127 0" result="hardAlpha"/>
<feOffset/>
<feGaussianBlur stdDeviation="0.5"/>
<feColorMatrix type="matrix" values="0 0 0 0 0 0 0 0 0 0 0 0 0 0 0 0 0 0 0.1 0"/>
<feBlend mode="normal" in2="effect1_dropShadow_3_6152" result="effect2_dropShadow_3_6152"/>
<feColorMatrix in="SourceAlpha" type="matrix" values="0 0 0 0 0 0 0 0 0 0 0 0 0 0 0 0 0 0 127 0" result="hardAlpha"/>
<feOffset dy="2"/>
<feGaussianBlur stdDeviation="1"/>
<feColorMatrix type="matrix" values="0 0 0 0 0 0 0 0 0 0 0 0 0 0 0 0 0 0 0.09 0"/>
<feBlend mode="normal" in2="effect2_dropShadow_3_6152" result="effect3_dropShadow_3_6152"/>
<feColorMatrix in="SourceAlpha" type="matrix" values="0 0 0 0 0 0 0 0 0 0 0 0 0 0 0 0 0 0 127 0" result="hardAlpha"/>
<feOffset dy="4"/>
<feGaussianBlur stdDeviation="1"/>
<feColorMatrix type="matrix" values="0 0 0 0 0 0 0 0 0 0 0 0 0 0 0 0 0 0 0.05 0"/>
<feBlend mode="normal" in2="effect3_dropShadow_3_6152" result="effect4_dropShadow_3_6152"/>
<feColorMatrix in="SourceAlpha" type="matrix" values="0 0 0 0 0 0 0 0 0 0 0 0 0 0 0 0 0 0 127 0" result="hardAlpha"/>
<feOffset dy="6"/>
<feGaussianBlur stdDeviation="1.5"/>
<feColorMatrix type="matrix" values="0 0 0 0 0 0 0 0 0 0 0 0 0 0 0 0 0 0 0.01 0"/>
<feBlend mode="normal" in2="effect4_dropShadow_3_6152" result="effect5_dropShadow_3_6152"/>
<feBlend mode="normal" in="SourceGraphic" in2="effect5_dropShadow_3_6152" result="shape"/>
</filter>
</defs>
</svg>
