<svg width="17" height="18" viewBox="0 0 17 18" fill="none" xmlns="http://www.w3.org/2000/svg">
<path d="M16.4454 9.47507C16.8024 8.99018 17 8.39608 17 7.77795C17 6.79724 16.4666 5.86896 15.6081 5.3513C15.3871 5.21806 15.1355 5.14793 14.8793 5.14817H9.7835L9.911 2.46379C9.94075 1.81509 9.71763 1.19914 9.28413 0.729539C9.07138 0.498075 8.81472 0.313914 8.53 0.188437C8.24527 0.0629592 7.93854 -0.00116858 7.62875 1.61197e-05C6.52375 1.61197e-05 5.54625 0.764486 5.253 1.85877L3.42762 8.65163H0.68C0.303875 8.65163 0 8.96397 0 9.35057V17.3011C0 17.6877 0.303875 18 0.68 18H13.4576C13.6531 18 13.8444 17.9607 14.0208 17.8821C15.0322 17.4387 15.6846 16.423 15.6846 15.296C15.6846 15.0208 15.6464 14.7499 15.5699 14.4878C15.9269 14.0029 16.1245 13.4088 16.1245 12.7907C16.1245 12.5155 16.0863 12.2446 16.0098 11.9825C16.3668 11.4976 16.5644 10.9035 16.5644 10.2854C16.5601 10.0102 16.5219 9.73717 16.4454 9.47507ZM1.53 16.4274V10.2243H3.25125V16.4274H1.53ZM15.0535 8.71715L14.5881 9.13215L14.8835 9.68694C14.9808 9.86969 15.0313 10.0749 15.0301 10.2832C15.0301 10.6436 14.8771 10.9865 14.6136 11.2224L14.1482 11.6374L14.4436 12.1922C14.5409 12.375 14.5914 12.5802 14.5903 12.7885C14.5903 13.1489 14.4373 13.4918 14.1737 13.7277L13.7084 14.1427L14.0037 14.6975C14.1011 14.8802 14.1515 15.0854 14.1504 15.2938C14.1504 15.783 13.8699 16.2242 13.4364 16.4252H4.61125V10.1544L6.72563 2.28032C6.78015 2.0785 6.89718 1.90045 7.059 1.77314C7.22082 1.64583 7.4186 1.57621 7.62238 1.57482C7.78388 1.57482 7.94325 1.62288 8.07075 1.72116C8.28113 1.8828 8.39375 2.12743 8.381 2.38735L8.177 6.7208H14.858C15.2363 6.95887 15.47 7.36077 15.47 7.77795C15.47 8.13834 15.317 8.47908 15.0535 8.71715Z" fill="#2D2659"/>
</svg>
