<svg width="18" height="16" viewBox="0 0 18 16" fill="none" xmlns="http://www.w3.org/2000/svg">
<path d="M5.4 12.4444C4.905 12.4444 4.4814 12.2705 4.1292 11.9227C3.7764 11.5742 3.6 11.1556 3.6 10.6667V5.33333C3.6 5.08148 3.6861 4.87022 3.8583 4.69956C4.0311 4.52948 4.245 4.44444 4.5 4.44444C4.755 4.44444 4.9689 4.52948 5.1417 4.69956C5.3139 4.87022 5.4 5.08148 5.4 5.33333V10.6667H12.6C12.855 10.6667 13.0686 10.7517 13.2408 10.9218C13.4136 11.0924 13.5 11.3037 13.5 11.5556C13.5 11.8074 13.4136 12.0184 13.2408 12.1884C13.0686 12.3591 12.855 12.4444 12.6 12.4444H5.4ZM9 8.88889C8.505 8.88889 8.0814 8.71467 7.7292 8.36622C7.3764 8.01837 7.2 7.6 7.2 7.11111V1.77778C7.2 1.28889 7.3764 0.870222 7.7292 0.521778C8.0814 0.173926 8.505 0 9 0H16.2C16.695 0 17.1189 0.173926 17.4717 0.521778C17.8239 0.870222 18 1.28889 18 1.77778V7.11111C18 7.6 17.8239 8.01837 17.4717 8.36622C17.1189 8.71467 16.695 8.88889 16.2 8.88889H9ZM9 7.11111H16.2V3.55556H9V7.11111ZM1.8 16C1.305 16 0.8814 15.8261 0.5292 15.4782C0.1764 15.1298 0 14.7111 0 14.2222V8.88889C0 8.63704 0.0864001 8.42578 0.2592 8.25511C0.4314 8.08504 0.645 8 0.9 8C1.155 8 1.3689 8.08504 1.5417 8.25511C1.7139 8.42578 1.8 8.63704 1.8 8.88889V14.2222H9C9.255 14.2222 9.4689 14.3076 9.6417 14.4782C9.8139 14.6483 9.9 14.8593 9.9 15.1111C9.9 15.363 9.8139 15.5739 9.6417 15.744C9.4689 15.9147 9.255 16 9 16H1.8Z" fill="#2D2659"/>
</svg>
