<svg width="19" height="19" viewBox="0 0 19 19" fill="none" xmlns="http://www.w3.org/2000/svg">
<path d="M15.33 0H3.06598C2.25308 0.000264874 1.47355 0.323236 0.898651 0.897949C0.323751 1.47266 0.000530051 2.2521 0 3.065V12.265C-2.14274e-08 12.6676 0.0793052 13.0662 0.233398 13.4381C0.387492 13.8101 0.613354 14.148 0.898071 14.4326C1.18279 14.7173 1.52078 14.943 1.89276 15.097C2.26474 15.251 2.66339 15.3301 3.06598 15.33H5.289L8.70099 18.215C8.83924 18.3323 9.01466 18.3967 9.19598 18.3967C9.37731 18.3967 9.55273 18.3323 9.69098 18.215L13.107 15.33H15.328C15.7306 15.3301 16.1293 15.2509 16.5014 15.097C16.8734 14.943 17.2115 14.7173 17.4963 14.4327C17.7811 14.1481 18.007 13.8102 18.1612 13.4382C18.3154 13.0663 18.3949 12.6676 18.395 12.265V3.065C18.3945 2.25228 18.0714 1.473 17.4967 0.898315C16.922 0.323631 16.1427 0.000529809 15.33 0ZM16.864 12.264C16.864 12.6708 16.7024 13.061 16.4147 13.3487C16.127 13.6364 15.7368 13.798 15.33 13.798H13.109C12.7468 13.7981 12.3962 13.9259 12.119 14.159L9.19998 16.625L6.28098 14.159C6.00369 13.926 5.65317 13.7982 5.29099 13.798H3.06799C2.86668 13.7979 2.66736 13.7581 2.48141 13.6809C2.29547 13.6038 2.12654 13.4907 1.98428 13.3483C1.84202 13.2059 1.7292 13.0368 1.65228 12.8507C1.57536 12.6647 1.53585 12.4653 1.53598 12.264V3.064C1.53598 2.65768 1.6974 2.26802 1.98471 1.98071C2.27202 1.69341 2.66168 1.53201 3.06799 1.53201H15.332C15.5334 1.53175 15.7328 1.57117 15.9189 1.64804C16.105 1.72491 16.2741 1.83773 16.4166 1.98001C16.559 2.1223 16.6721 2.29126 16.7492 2.47726C16.8263 2.66327 16.866 2.86264 16.866 3.064L16.864 12.264Z" fill="#2D2659"/>
<path d="M5.3656 5.36502H9.19861C9.40176 5.36502 9.59661 5.28431 9.74026 5.14066C9.88392 4.997 9.9646 4.80219 9.9646 4.59903C9.9646 4.39587 9.88392 4.20103 9.74026 4.05737C9.59661 3.91372 9.40176 3.83301 9.19861 3.83301H5.3656C5.16244 3.83301 4.96763 3.91372 4.82397 4.05737C4.68032 4.20103 4.59961 4.39587 4.59961 4.59903C4.59961 4.80219 4.68032 4.997 4.82397 5.14066C4.96763 5.28431 5.16244 5.36502 5.3656 5.36502Z" fill="#2D2659"/>
<path d="M13.0296 6.89899H5.36465C5.16123 6.89899 4.96614 6.97979 4.8223 7.12363C4.67846 7.26747 4.59766 7.46256 4.59766 7.66599C4.59766 7.86941 4.67846 8.06447 4.8223 8.20831C4.96614 8.35215 5.16123 8.43298 5.36465 8.43298H13.0296C13.2331 8.43298 13.4282 8.35215 13.572 8.20831C13.7158 8.06447 13.7966 7.86941 13.7966 7.66599C13.7966 7.46256 13.7158 7.26747 13.572 7.12363C13.4282 6.97979 13.2331 6.89899 13.0296 6.89899Z" fill="#2D2659"/>
<path d="M13.0296 9.96802H5.36465C5.16123 9.96802 4.96614 10.0488 4.8223 10.1927C4.67846 10.3365 4.59766 10.5316 4.59766 10.735C4.59766 10.9384 4.67846 11.1335 4.8223 11.2774C4.96614 11.4212 5.16123 11.502 5.36465 11.502H13.0296C13.2331 11.502 13.4282 11.4212 13.572 11.2774C13.7158 11.1335 13.7966 10.9384 13.7966 10.735C13.7966 10.5316 13.7158 10.3365 13.572 10.1927C13.4282 10.0488 13.2331 9.96802 13.0296 9.96802Z" fill="#2D2659"/>
</svg>
