<svg width="11" height="11" viewBox="0 0 11 11" fill="none" xmlns="http://www.w3.org/2000/svg">
<path fill-rule="evenodd" clip-rule="evenodd" d="M3.47513 7.52608C5.59346 9.64397 7.55643 9.87587 8.13271 9.89735C8.82908 9.92269 9.53978 9.35424 9.8472 8.77203C9.35688 8.19697 8.71835 7.75081 8.01866 7.26719C7.60657 7.6792 7.09861 8.44484 6.42096 8.17053C6.03586 8.01575 5.08495 7.57785 4.25415 6.74667C3.42279 5.91603 2.98535 4.96532 2.82944 4.58085C2.55508 3.90279 3.32308 3.39329 3.73572 2.98072C3.25201 2.27017 2.81346 1.61524 2.23939 1.1498C1.6488 1.45826 1.07693 2.16331 1.10282 2.86891C1.12431 3.44506 1.35625 5.40763 3.47513 7.52608ZM8.09194 10.9979C7.2986 10.9687 5.05025 10.6586 2.69556 8.30438C0.341436 5.95074 0.0312609 3.7034 0.00151065 2.90967C-0.0425639 1.70007 0.884103 0.525175 1.95456 0.0663428C2.08347 0.0106919 2.22463 -0.0104961 2.3642 0.004858C2.50376 0.0202121 2.63694 0.0715806 2.75066 0.153923C3.63656 0.800033 4.24754 1.77884 4.77258 2.54558C4.8818 2.70501 4.93183 2.89761 4.91403 3.09003C4.89622 3.28245 4.81169 3.4626 4.67506 3.59929L3.928 4.34675C4.10154 4.72957 4.45469 5.38945 5.03317 5.96781C5.61164 6.54617 6.27166 6.89924 6.65511 7.07275L7.40162 6.32584C7.53887 6.18896 7.7198 6.10456 7.9129 6.08734C8.10599 6.07013 8.299 6.1212 8.45831 6.23165C9.24063 6.77366 10.1596 7.3757 10.8295 8.23333C10.9186 8.34785 10.9752 8.48417 10.9935 8.62807C11.0118 8.77196 10.9912 8.91813 10.9336 9.05129C10.4725 10.127 9.30564 11.0431 8.09194 10.9984V10.9979Z" fill="#DA5832"/>
</svg>
