<svg width="33" height="33" viewBox="0 0 33 33" fill="none" xmlns="http://www.w3.org/2000/svg">
<path d="M15.3641 30.391H4.26642C3.40011 30.391 2.56929 30.0469 1.95671 29.4345C1.34414 28.8221 1 27.9915 1 27.1254V7.53151C1 6.66541 1.34414 5.83478 1.95671 5.22235C2.56929 4.60993 3.40011 4.26587 4.26642 4.26587H23.865C24.7313 4.26587 25.5621 4.60993 26.1747 5.22235C26.7873 5.83478 27.1314 6.66541 27.1314 7.53151V14.0628M25.4982 18.9613V25.4925H32.031" stroke="#DA5832" stroke-width="1.5" stroke-linecap="round" stroke-linejoin="round"/>
<path d="M25.4977 32.0237C29.1057 32.0237 32.0305 29.0996 32.0305 25.4925C32.0305 21.8853 29.1057 18.9612 25.4977 18.9612C21.8897 18.9612 18.9648 21.8853 18.9648 25.4925C18.9648 29.0996 21.8897 32.0237 25.4977 32.0237Z" stroke="#DA5832" stroke-width="1.5" stroke-linecap="round" stroke-linejoin="round"/>
<path d="M20.5985 1V7.53128M7.53285 1V7.53128M1 14.0626H27.1314" stroke="#DA5832" stroke-width="1.5" stroke-linecap="round" stroke-linejoin="round"/>
</svg>
