<svg width="52" height="32" viewBox="0 0 52 32" fill="none" xmlns="http://www.w3.org/2000/svg">
<path d="M16 6.4C14.1013 6.4 12.2452 6.96303 10.6665 8.01789C9.08781 9.07275 7.85736 10.5721 7.13076 12.3262C6.40416 14.0804 6.21404 16.0107 6.58446 17.8729C6.95488 19.7351 7.86919 21.4456 9.21177 22.7882C10.5544 24.1308 12.2649 25.0451 14.1271 25.4155C15.9894 25.786 17.9196 25.5958 19.6738 24.8692C21.4279 24.1426 22.9272 22.9122 23.9821 21.3335C25.037 19.7548 25.6 17.8987 25.6 16C25.5965 13.455 24.5839 11.0153 22.7843 9.21567C20.9847 7.41609 18.545 6.40353 16 6.4ZM16 22.4C14.7342 22.4 13.4968 22.0246 12.4444 21.3214C11.3919 20.6182 10.5716 19.6186 10.0872 18.4492C9.60277 17.2797 9.47603 15.9929 9.72297 14.7514C9.96992 13.5099 10.5795 12.3696 11.4745 11.4745C12.3696 10.5795 13.5099 9.96992 14.7514 9.72297C15.9929 9.47603 17.2797 9.60277 18.4492 10.0872C19.6186 10.5716 20.6182 11.3919 21.3214 12.4444C22.0246 13.4968 22.4 14.7342 22.4 16C22.4 17.6974 21.7257 19.3253 20.5255 20.5255C19.3253 21.7257 17.6974 22.4 16 22.4ZM14.4 2.66667V1.6C14.4 1.17565 14.5686 0.768687 14.8686 0.468629C15.1687 0.168571 15.5757 0 16 0C16.4243 0 16.8313 0.168571 17.1314 0.468629C17.4314 0.768687 17.6 1.17565 17.6 1.6V2.66667C17.6 3.09101 17.4314 3.49798 17.1314 3.79804C16.8313 4.0981 16.4243 4.26667 16 4.26667C15.5757 4.26667 15.1687 4.0981 14.8686 3.79804C14.5686 3.49798 14.4 3.09101 14.4 2.66667ZM24.2933 7.70667C24.1442 7.55802 24.0258 7.38139 23.9451 7.18691C23.8643 6.99243 23.8227 6.78392 23.8227 6.57333C23.8227 6.36275 23.8643 6.15424 23.9451 5.95976C24.0258 5.76527 24.1442 5.58865 24.2933 5.44L25.0533 4.68C25.3539 4.37942 25.7616 4.21056 26.1867 4.21056C26.6117 4.21056 27.0194 4.37942 27.32 4.68C27.6206 4.98058 27.7894 5.38825 27.7894 5.81333C27.7894 6.23842 27.6206 6.64609 27.32 6.94667L26.56 7.70667C26.411 7.85512 26.2343 7.97275 26.0398 8.05282C25.8453 8.1329 25.637 8.17385 25.4267 8.17333C25.0025 8.1715 24.5958 8.00404 24.2933 7.70667ZM32 16C32 16.4243 31.8314 16.8313 31.5314 17.1314C31.2313 17.4314 30.8243 17.6 30.4 17.6H29.3333C28.909 17.6 28.502 17.4314 28.202 17.1314C27.9019 16.8313 27.7333 16.4243 27.7333 16C27.7333 15.5757 27.9019 15.1687 28.202 14.8686C28.502 14.5686 28.909 14.4 29.3333 14.4H30.4C30.8243 14.4 31.2313 14.5686 31.5314 14.8686C31.8314 15.1687 32 15.5757 32 16ZM27.32 25.0533C27.6149 25.3569 27.7798 25.7635 27.7798 26.1867C27.7798 26.6099 27.6149 27.0164 27.32 27.32C27.016 27.615 26.6103 27.7821 26.1867 27.7867C25.9764 27.7872 25.768 27.7462 25.5735 27.6662C25.3791 27.5861 25.2023 27.4685 25.0533 27.32L24.2933 26.56C23.9928 26.2594 23.8239 25.8518 23.8239 25.4267C23.8239 25.0016 23.9928 24.5939 24.2933 24.2933C24.5939 23.9928 25.0016 23.8239 25.4267 23.8239C25.8518 23.8239 26.2594 23.9928 26.56 24.2933L27.32 25.0533ZM17.6 29.3333V30.4C17.6 30.8243 17.4314 31.2313 17.1314 31.5314C16.8313 31.8314 16.4243 32 16 32C15.5757 32 15.1687 31.8314 14.8686 31.5314C14.5686 31.2313 14.4 30.8243 14.4 30.4V29.3333C14.4 28.909 14.5686 28.502 14.8686 28.202C15.1687 27.9019 15.5757 27.7333 16 27.7333C16.4243 27.7333 16.8313 27.9019 17.1314 28.202C17.4314 28.502 17.6 28.909 17.6 29.3333ZM7.70667 24.2933C7.85583 24.442 7.97418 24.6186 8.05494 24.8131C8.13569 25.0076 8.17726 25.2161 8.17726 25.4267C8.17726 25.6373 8.13569 25.8458 8.05494 26.0402C7.97418 26.2347 7.85583 26.4114 7.70667 26.56L6.94667 27.32C6.7977 27.4685 6.62092 27.5861 6.42646 27.6662C6.23199 27.7462 6.02364 27.7872 5.81333 27.7867C5.38972 27.7821 4.98404 27.615 4.68 27.32C4.38514 27.0164 4.22021 26.6099 4.22021 26.1867C4.22021 25.7635 4.38514 25.3569 4.68 25.0533L5.44 24.2933C5.58865 24.1442 5.76527 24.0258 5.95976 23.9451C6.15424 23.8643 6.36275 23.8227 6.57333 23.8227C6.78392 23.8227 6.99243 23.8643 7.18691 23.9451C7.38139 24.0258 7.55802 24.1442 7.70667 24.2933ZM4.26667 16C4.26667 16.4243 4.0981 16.8313 3.79804 17.1314C3.49798 17.4314 3.09101 17.6 2.66667 17.6H1.6C1.17565 17.6 0.768687 17.4314 0.468629 17.1314C0.168571 16.8313 0 16.4243 0 16C0 15.5757 0.168571 15.1687 0.468629 14.8686C0.768687 14.5686 1.17565 14.4 1.6 14.4H2.66667C3.09101 14.4 3.49798 14.5686 3.79804 14.8686C4.0981 15.1687 4.26667 15.5757 4.26667 16ZM4.68 6.94667C4.37942 6.64609 4.21056 6.23842 4.21056 5.81333C4.21056 5.38825 4.37942 4.98058 4.68 4.68C4.98058 4.37942 5.38825 4.21056 5.81333 4.21056C6.23842 4.21056 6.64609 4.37942 6.94667 4.68L7.70667 5.44C7.85583 5.58865 7.97418 5.76527 8.05494 5.95976C8.13569 6.15424 8.17726 6.36275 8.17726 6.57333C8.17726 6.78392 8.13569 6.99243 8.05494 7.18691C7.97418 7.38139 7.85583 7.55802 7.70667 7.70667C7.40418 8.00404 6.99751 8.1715 6.57333 8.17333C6.36303 8.17385 6.15468 8.1329 5.96021 8.05282C5.76574 7.97275 5.58897 7.85512 5.44 7.70667L4.68 6.94667Z" fill="white"/>
<path d="M40.514 19.082C40.248 18.858 40.08 18.55 40.01 18.13H38.19C38.218 18.662 38.372 19.138 38.624 19.572C38.876 20.006 39.254 20.356 39.744 20.622C40.22 20.888 40.808 21.014 41.508 21.014C42.376 21.014 43.076 20.818 43.58 20.412C44.084 20.02 44.448 19.432 44.658 18.648C44.868 17.878 44.98 16.884 44.98 15.666C44.98 13.958 44.7 12.684 44.154 11.83C43.608 10.99 42.67 10.556 41.354 10.556C40.29 10.556 39.45 10.864 38.834 11.48C38.218 12.096 37.91 12.908 37.91 13.944C37.91 14.644 38.05 15.246 38.33 15.736C38.61 16.226 38.988 16.59 39.464 16.842C39.94 17.094 40.486 17.206 41.088 17.206C41.536 17.206 41.942 17.122 42.334 16.954C42.726 16.786 43.02 16.562 43.244 16.254C43.244 17.402 43.104 18.214 42.852 18.69C42.586 19.166 42.166 19.404 41.592 19.404C41.144 19.404 40.78 19.306 40.514 19.082ZM42.642 15.162C42.362 15.47 41.97 15.61 41.494 15.61C40.92 15.61 40.486 15.456 40.206 15.148C39.926 14.84 39.786 14.434 39.786 13.93C39.786 13.426 39.926 13.006 40.22 12.698C40.514 12.39 40.92 12.222 41.424 12.222C41.928 12.222 42.32 12.376 42.614 12.684C42.908 12.992 43.062 13.412 43.062 13.958C43.062 14.462 42.922 14.868 42.642 15.162ZM46.3377 11.802C45.8337 12.25 45.5817 12.866 45.5817 13.622C45.5817 14.392 45.8337 15.008 46.3377 15.456C46.8417 15.918 47.4857 16.142 48.2977 16.142C49.1097 16.142 49.7677 15.918 50.2717 15.456C50.7757 15.008 51.0417 14.392 51.0417 13.622C51.0417 12.866 50.7897 12.264 50.2857 11.816C49.7817 11.368 49.1237 11.13 48.3257 11.13C47.5137 11.13 46.8417 11.354 46.3377 11.802ZM49.1517 12.586C49.3757 12.838 49.5017 13.188 49.5017 13.636C49.5017 14.084 49.3757 14.434 49.1377 14.672C48.8997 14.924 48.6197 15.036 48.2977 15.036C47.9617 15.036 47.6677 14.924 47.4437 14.672C47.2197 14.434 47.1077 14.084 47.1077 13.636C47.1077 13.188 47.2197 12.838 47.4577 12.586C47.6817 12.334 47.9617 12.208 48.2977 12.208C48.6337 12.208 48.9137 12.334 49.1517 12.586Z" fill="white"/>
</svg>
