<svg width="138" height="23" viewBox="0 0 138 23" fill="none" xmlns="http://www.w3.org/2000/svg">
<path d="M3.57559 10.084C3.02359 10.084 2.52759 9.98804 2.08759 9.79604C1.65559 9.59604 1.31559 9.32404 1.06759 8.98004C0.819594 8.62804 0.691594 8.22404 0.683594 7.76804H1.84759C1.88759 8.16004 2.04759 8.49204 2.32759 8.76404C2.61559 9.02804 3.03159 9.16004 3.57559 9.16004C4.09559 9.16004 4.50359 9.03204 4.79959 8.77604C5.10359 8.51204 5.25559 8.17604 5.25559 7.76804C5.25559 7.44804 5.16759 7.18804 4.99159 6.98804C4.81559 6.78804 4.59559 6.63604 4.33159 6.53204C4.06759 6.42804 3.71159 6.31604 3.26359 6.19604C2.71159 6.05204 2.26759 5.90804 1.93159 5.76404C1.60359 5.62004 1.31959 5.39604 1.07959 5.09204C0.847594 4.78004 0.731594 4.36404 0.731594 3.84404C0.731594 3.38804 0.847594 2.98404 1.07959 2.63204C1.31159 2.28004 1.63559 2.00804 2.05159 1.81604C2.47559 1.62404 2.95959 1.52804 3.50359 1.52804C4.28759 1.52804 4.92759 1.72404 5.42359 2.11604C5.92759 2.50804 6.21159 3.02804 6.27559 3.67604H5.07559C5.03559 3.35604 4.86759 3.07604 4.57159 2.83604C4.27559 2.58804 3.88359 2.46404 3.39559 2.46404C2.93959 2.46404 2.56759 2.58404 2.27959 2.82404C1.99159 3.05604 1.84759 3.38404 1.84759 3.80804C1.84759 4.11204 1.93159 4.36004 2.09959 4.55204C2.27559 4.74404 2.48759 4.89204 2.73559 4.99604C2.99159 5.09204 3.34759 5.20404 3.80359 5.33204C4.35559 5.48404 4.79959 5.63604 5.13559 5.78804C5.47159 5.93204 5.75959 6.16004 5.99959 6.47204C6.23959 6.77604 6.35959 7.19204 6.35959 7.72004C6.35959 8.12804 6.25159 8.51204 6.03559 8.87204C5.81959 9.23204 5.49959 9.52404 5.07559 9.74804C4.65159 9.97204 4.15159 10.084 3.57559 10.084Z" fill="#2D2659"/>
<path d="M7.07856 6.68804C7.07856 6.01604 7.21456 5.42804 7.48656 4.92404C7.75856 4.41204 8.13056 4.01604 8.60256 3.73604C9.08256 3.45604 9.61456 3.31604 10.1986 3.31604C10.7746 3.31604 11.2746 3.44004 11.6986 3.68804C12.1226 3.93604 12.4386 4.24804 12.6466 4.62404V3.42404H13.7506V10H12.6466V8.77604C12.4306 9.16004 12.1066 9.48004 11.6746 9.73604C11.2506 9.98404 10.7546 10.108 10.1866 10.108C9.60256 10.108 9.07456 9.96404 8.60256 9.67604C8.13056 9.38804 7.75856 8.98404 7.48656 8.46404C7.21456 7.94404 7.07856 7.35204 7.07856 6.68804ZM12.6466 6.70004C12.6466 6.20404 12.5466 5.77204 12.3466 5.40404C12.1466 5.03604 11.8746 4.75604 11.5306 4.56404C11.1946 4.36404 10.8226 4.26404 10.4146 4.26404C10.0066 4.26404 9.63456 4.36004 9.29856 4.55204C8.96256 4.74404 8.69456 5.02404 8.49456 5.39204C8.29456 5.76004 8.19456 6.19204 8.19456 6.68804C8.19456 7.19204 8.29456 7.63204 8.49456 8.00804C8.69456 8.37604 8.96256 8.66004 9.29856 8.86004C9.63456 9.05204 10.0066 9.14804 10.4146 9.14804C10.8226 9.14804 11.1946 9.05204 11.5306 8.86004C11.8746 8.66004 12.1466 8.37604 12.3466 8.00804C12.5466 7.63204 12.6466 7.19604 12.6466 6.70004Z" fill="#2D2659"/>
<path d="M23.0239 3.30404C23.5359 3.30404 23.9919 3.41204 24.3919 3.62804C24.7919 3.83604 25.1079 4.15204 25.3399 4.57604C25.5719 5.00004 25.6879 5.51604 25.6879 6.12404V10H24.6079V6.28004C24.6079 5.62404 24.4439 5.12404 24.1159 4.78004C23.7959 4.42804 23.3599 4.25204 22.8079 4.25204C22.2399 4.25204 21.7879 4.43604 21.4519 4.80404C21.1159 5.16404 20.9479 5.68804 20.9479 6.37604V10H19.8679V6.28004C19.8679 5.62404 19.7039 5.12404 19.3759 4.78004C19.0559 4.42804 18.6199 4.25204 18.0679 4.25204C17.4999 4.25204 17.0479 4.43604 16.7119 4.80404C16.3759 5.16404 16.2079 5.68804 16.2079 6.37604V10H15.1159V3.42404H16.2079V4.37204C16.4239 4.02804 16.7119 3.76404 17.0719 3.58004C17.4399 3.39604 17.8439 3.30404 18.2839 3.30404C18.8359 3.30404 19.3239 3.42804 19.7479 3.67604C20.1719 3.92404 20.4879 4.28804 20.6959 4.76804C20.8799 4.30404 21.1839 3.94404 21.6079 3.68804C22.0319 3.43204 22.5039 3.30404 23.0239 3.30404Z" fill="#2D2659"/>
<path d="M32.9992 6.46004C32.9992 6.66804 32.9872 6.88804 32.9632 7.12004H27.7072C27.7472 7.76804 27.9672 8.27604 28.3672 8.64404C28.7752 9.00404 29.2672 9.18404 29.8432 9.18404C30.3152 9.18404 30.7072 9.07604 31.0192 8.86004C31.3392 8.63604 31.5632 8.34004 31.6912 7.97204H32.8672C32.6912 8.60404 32.3392 9.12004 31.8112 9.52004C31.2832 9.91204 30.6272 10.108 29.8432 10.108C29.2192 10.108 28.6592 9.96804 28.1632 9.68804C27.6752 9.40804 27.2912 9.01204 27.0112 8.50004C26.7312 7.98004 26.5912 7.38004 26.5912 6.70004C26.5912 6.02004 26.7272 5.42404 26.9992 4.91204C27.2712 4.40004 27.6512 4.00804 28.1392 3.73604C28.6352 3.45604 29.2032 3.31604 29.8432 3.31604C30.4672 3.31604 31.0192 3.45204 31.4992 3.72404C31.9792 3.99604 32.3472 4.37204 32.6032 4.85204C32.8672 5.32404 32.9992 5.86004 32.9992 6.46004ZM31.8712 6.23204C31.8712 5.81604 31.7792 5.46004 31.5952 5.16404C31.4112 4.86004 31.1592 4.63204 30.8392 4.48004C30.5272 4.32004 30.1792 4.24004 29.7952 4.24004C29.2432 4.24004 28.7712 4.41604 28.3792 4.76804C27.9952 5.12004 27.7752 5.60804 27.7192 6.23204H31.8712Z" fill="#2D2659"/>
<path d="M33.5526 6.68804C33.5526 6.01604 33.6886 5.42804 33.9606 4.92404C34.2326 4.41204 34.6046 4.01604 35.0766 3.73604C35.5566 3.45604 36.0926 3.31604 36.6846 3.31604C37.1966 3.31604 37.6726 3.43604 38.1126 3.67604C38.5526 3.90804 38.8886 4.21604 39.1206 4.60004V1.12004H40.2246V10H39.1206V8.76404C38.9046 9.15604 38.5846 9.48004 38.1606 9.73604C37.7366 9.98404 37.2406 10.108 36.6726 10.108C36.0886 10.108 35.5566 9.96404 35.0766 9.67604C34.6046 9.38804 34.2326 8.98404 33.9606 8.46404C33.6886 7.94404 33.5526 7.35204 33.5526 6.68804ZM39.1206 6.70004C39.1206 6.20404 39.0206 5.77204 38.8206 5.40404C38.6206 5.03604 38.3486 4.75604 38.0046 4.56404C37.6686 4.36404 37.2966 4.26404 36.8886 4.26404C36.4806 4.26404 36.1086 4.36004 35.7726 4.55204C35.4366 4.74404 35.1686 5.02404 34.9686 5.39204C34.7686 5.76004 34.6686 6.19204 34.6686 6.68804C34.6686 7.19204 34.7686 7.63204 34.9686 8.00804C35.1686 8.37604 35.4366 8.66004 35.7726 8.86004C36.1086 9.05204 36.4806 9.14804 36.8886 9.14804C37.2966 9.14804 37.6686 9.05204 38.0046 8.86004C38.3486 8.66004 38.6206 8.37604 38.8206 8.00804C39.0206 7.63204 39.1206 7.19604 39.1206 6.70004Z" fill="#2D2659"/>
<path d="M42.154 2.35604C41.946 2.35604 41.77 2.28404 41.626 2.14004C41.482 1.99604 41.41 1.82004 41.41 1.61204C41.41 1.40404 41.482 1.22804 41.626 1.08404C41.77 0.940042 41.946 0.868042 42.154 0.868042C42.354 0.868042 42.522 0.940042 42.658 1.08404C42.802 1.22804 42.874 1.40404 42.874 1.61204C42.874 1.82004 42.802 1.99604 42.658 2.14004C42.522 2.28404 42.354 2.35604 42.154 2.35604ZM42.682 3.42404V10H41.59V3.42404H42.682Z" fill="#2D2659"/>
<path d="M46.4703 9.12404C47.4863 8.30804 48.2823 7.64004 48.8583 7.12004C49.4343 6.59204 49.9183 6.04404 50.3103 5.47604C50.7103 4.90004 50.9103 4.33604 50.9103 3.78404C50.9103 3.26404 50.7823 2.85604 50.5263 2.56004C50.2783 2.25604 49.8743 2.10404 49.3143 2.10404C48.7703 2.10404 48.3463 2.27604 48.0423 2.62004C47.7463 2.95604 47.5863 3.40804 47.5623 3.97604H46.5063C46.5383 3.08004 46.8103 2.38804 47.3223 1.90004C47.8343 1.41204 48.4943 1.16804 49.3023 1.16804C50.1263 1.16804 50.7783 1.39604 51.2583 1.85204C51.7463 2.30804 51.9903 2.93604 51.9903 3.73604C51.9903 4.40004 51.7903 5.04804 51.3903 5.68004C50.9983 6.30404 50.5503 6.85604 50.0463 7.33604C49.5423 7.80804 48.8983 8.36004 48.1143 8.99204H52.2423V9.90404H46.4703V9.12404Z" fill="#2D2659"/>
<path d="M54.6087 5.48804C54.1607 5.31204 53.8167 5.05604 53.5767 4.72004C53.3367 4.38404 53.2167 3.97604 53.2167 3.49604C53.2167 3.06404 53.3247 2.67604 53.5407 2.33204C53.7567 1.98004 54.0767 1.70404 54.5007 1.50404C54.9327 1.29604 55.4527 1.19204 56.0607 1.19204C56.6687 1.19204 57.1847 1.29604 57.6087 1.50404C58.0407 1.70404 58.3647 1.98004 58.5807 2.33204C58.8047 2.67604 58.9167 3.06404 58.9167 3.49604C58.9167 3.96004 58.7927 4.36804 58.5447 4.72004C58.2967 5.06404 57.9567 5.32004 57.5247 5.48804C58.0207 5.64004 58.4127 5.90804 58.7007 6.29204C58.9967 6.66804 59.1447 7.12404 59.1447 7.66004C59.1447 8.18004 59.0167 8.63604 58.7607 9.02804C58.5047 9.41204 58.1407 9.71204 57.6687 9.92804C57.2047 10.136 56.6687 10.24 56.0607 10.24C55.4527 10.24 54.9167 10.136 54.4527 9.92804C53.9967 9.71204 53.6407 9.41204 53.3847 9.02804C53.1287 8.63604 53.0007 8.18004 53.0007 7.66004C53.0007 7.12404 53.1447 6.66404 53.4327 6.28004C53.7207 5.89604 54.1127 5.63204 54.6087 5.48804ZM57.8607 3.62804C57.8607 3.14004 57.7007 2.76404 57.3807 2.50004C57.0607 2.23604 56.6207 2.10404 56.0607 2.10404C55.5087 2.10404 55.0727 2.23604 54.7527 2.50004C54.4327 2.76404 54.2727 3.14404 54.2727 3.64004C54.2727 4.08804 54.4367 4.44804 54.7647 4.72004C55.1007 4.99204 55.5327 5.12804 56.0607 5.12804C56.5967 5.12804 57.0287 4.99204 57.3567 4.72004C57.6927 4.44004 57.8607 4.07604 57.8607 3.62804ZM56.0607 5.96804C55.4687 5.96804 54.9847 6.10804 54.6087 6.38804C54.2327 6.66004 54.0447 7.07204 54.0447 7.62404C54.0447 8.13604 54.2247 8.54804 54.5847 8.86004C54.9527 9.17204 55.4447 9.32804 56.0607 9.32804C56.6767 9.32804 57.1647 9.17204 57.5247 8.86004C57.8847 8.54804 58.0647 8.13604 58.0647 7.62404C58.0647 7.08804 57.8807 6.68004 57.5127 6.40004C57.1447 6.11204 56.6607 5.96804 56.0607 5.96804Z" fill="#2D2659"/>
<path d="M65.3422 10.108C64.8382 10.108 64.3862 10.024 63.9862 9.85604C63.5862 9.68004 63.2702 9.44004 63.0382 9.13604C62.8062 8.82404 62.6782 8.46804 62.6542 8.06804H63.7822C63.8142 8.39604 63.9662 8.66404 64.2382 8.87204C64.5182 9.08004 64.8822 9.18404 65.3302 9.18404C65.7462 9.18404 66.0742 9.09204 66.3142 8.90804C66.5542 8.72404 66.6742 8.49204 66.6742 8.21204C66.6742 7.92404 66.5462 7.71204 66.2902 7.57604C66.0342 7.43204 65.6382 7.29204 65.1022 7.15604C64.6142 7.02804 64.2142 6.90004 63.9022 6.77204C63.5982 6.63604 63.3342 6.44004 63.1102 6.18404C62.8942 5.92004 62.7862 5.57604 62.7862 5.15204C62.7862 4.81604 62.8862 4.50804 63.0862 4.22804C63.2862 3.94804 63.5702 3.72804 63.9382 3.56804C64.3062 3.40004 64.7262 3.31604 65.1982 3.31604C65.9262 3.31604 66.5142 3.50004 66.9622 3.86804C67.4102 4.23604 67.6502 4.74004 67.6822 5.38004H66.5902C66.5662 5.03604 66.4262 4.76004 66.1702 4.55204C65.9222 4.34404 65.5862 4.24004 65.1622 4.24004C64.7702 4.24004 64.4582 4.32404 64.2262 4.49204C63.9942 4.66004 63.8782 4.88004 63.8782 5.15204C63.8782 5.36804 63.9462 5.54804 64.0822 5.69204C64.2262 5.82804 64.4022 5.94004 64.6102 6.02804C64.8262 6.10804 65.1222 6.20004 65.4982 6.30404C65.9702 6.43204 66.3542 6.56004 66.6502 6.68804C66.9462 6.80804 67.1982 6.99204 67.4062 7.24004C67.6222 7.48804 67.7342 7.81204 67.7422 8.21204C67.7422 8.57204 67.6422 8.89604 67.4422 9.18404C67.2422 9.47204 66.9582 9.70004 66.5902 9.86804C66.2302 10.028 65.8142 10.108 65.3422 10.108Z" fill="#2D2659"/>
<path d="M74.8037 6.46004C74.8037 6.66804 74.7918 6.88804 74.7678 7.12004H69.5117C69.5518 7.76804 69.7718 8.27604 70.1718 8.64404C70.5798 9.00404 71.0718 9.18404 71.6478 9.18404C72.1198 9.18404 72.5118 9.07604 72.8238 8.86004C73.1438 8.63604 73.3678 8.34004 73.4958 7.97204H74.6718C74.4958 8.60404 74.1438 9.12004 73.6158 9.52004C73.0878 9.91204 72.4317 10.108 71.6478 10.108C71.0238 10.108 70.4638 9.96804 69.9678 9.68804C69.4798 9.40804 69.0957 9.01204 68.8158 8.50004C68.5358 7.98004 68.3958 7.38004 68.3958 6.70004C68.3958 6.02004 68.5317 5.42404 68.8037 4.91204C69.0758 4.40004 69.4557 4.00804 69.9437 3.73604C70.4398 3.45604 71.0078 3.31604 71.6478 3.31604C72.2718 3.31604 72.8237 3.45204 73.3037 3.72404C73.7838 3.99604 74.1518 4.37204 74.4078 4.85204C74.6718 5.32404 74.8037 5.86004 74.8037 6.46004ZM73.6758 6.23204C73.6758 5.81604 73.5837 5.46004 73.3997 5.16404C73.2158 4.86004 72.9638 4.63204 72.6438 4.48004C72.3318 4.32004 71.9838 4.24004 71.5998 4.24004C71.0478 4.24004 70.5758 4.41604 70.1838 4.76804C69.7998 5.12004 69.5798 5.60804 69.5238 6.23204H73.6758Z" fill="#2D2659"/>
<path d="M76.8572 4.63604C77.0732 4.26004 77.3932 3.94804 77.8172 3.70004C78.2492 3.44404 78.7492 3.31604 79.3172 3.31604C79.9012 3.31604 80.4292 3.45604 80.9012 3.73604C81.3812 4.01604 81.7571 4.41204 82.0292 4.92404C82.3012 5.42804 82.4372 6.01604 82.4372 6.68804C82.4372 7.35204 82.3012 7.94404 82.0292 8.46404C81.7571 8.98404 81.3812 9.38804 80.9012 9.67604C80.4292 9.96404 79.9012 10.108 79.3172 10.108C78.7572 10.108 78.2612 9.98404 77.8292 9.73604C77.4052 9.48004 77.0812 9.16404 76.8572 8.78804V13.12H75.7652V3.42404H76.8572V4.63604ZM81.3212 6.68804C81.3212 6.19204 81.2212 5.76004 81.0212 5.39204C80.8212 5.02404 80.5492 4.74404 80.2052 4.55204C79.8692 4.36004 79.4972 4.26404 79.0892 4.26404C78.6892 4.26404 78.3172 4.36404 77.9732 4.56404C77.6372 4.75604 77.3652 5.04004 77.1572 5.41604C76.9572 5.78404 76.8572 6.21204 76.8572 6.70004C76.8572 7.19604 76.9572 7.63204 77.1572 8.00804C77.3652 8.37604 77.6372 8.66004 77.9732 8.86004C78.3172 9.05204 78.6892 9.14804 79.0892 9.14804C79.4972 9.14804 79.8692 9.05204 80.2052 8.86004C80.5492 8.66004 80.8212 8.37604 81.0212 8.00804C81.2212 7.63204 81.3212 7.19204 81.3212 6.68804Z" fill="#2D2659"/>
<path d="M84.7265 4.32404V8.20004C84.7265 8.52004 84.7945 8.74804 84.9305 8.88404C85.0665 9.01204 85.3025 9.07604 85.6385 9.07604H86.4425V10H85.4585C84.8505 10 84.3945 9.86004 84.0905 9.58004C83.7865 9.30004 83.6345 8.84004 83.6345 8.20004V4.32404H82.7825V3.42404H83.6345V1.76804H84.7265V3.42404H86.4425V4.32404H84.7265Z" fill="#2D2659"/>
<path d="M93.2856 6.46004C93.2856 6.66804 93.2736 6.88804 93.2496 7.12004H87.9936C88.0336 7.76804 88.2536 8.27604 88.6536 8.64404C89.0616 9.00404 89.5536 9.18404 90.1296 9.18404C90.6016 9.18404 90.9936 9.07604 91.3056 8.86004C91.6256 8.63604 91.8496 8.34004 91.9776 7.97204H93.1536C92.9776 8.60404 92.6256 9.12004 92.0976 9.52004C91.5696 9.91204 90.9136 10.108 90.1296 10.108C89.5056 10.108 88.9456 9.96804 88.4496 9.68804C87.9616 9.40804 87.5776 9.01204 87.2976 8.50004C87.0176 7.98004 86.8776 7.38004 86.8776 6.70004C86.8776 6.02004 87.0136 5.42404 87.2856 4.91204C87.5576 4.40004 87.9376 4.00804 88.4256 3.73604C88.9216 3.45604 89.4896 3.31604 90.1296 3.31604C90.7536 3.31604 91.3056 3.45204 91.7856 3.72404C92.2656 3.99604 92.6336 4.37204 92.8896 4.85204C93.1536 5.32404 93.2856 5.86004 93.2856 6.46004ZM92.1576 6.23204C92.1576 5.81604 92.0656 5.46004 91.8816 5.16404C91.6976 4.86004 91.4456 4.63204 91.1256 4.48004C90.8136 4.32004 90.4656 4.24004 90.0816 4.24004C89.5296 4.24004 89.0576 4.41604 88.6656 4.76804C88.2816 5.12004 88.0616 5.60804 88.0056 6.23204H92.1576Z" fill="#2D2659"/>
<path d="M102.155 3.30404C102.667 3.30404 103.123 3.41204 103.523 3.62804C103.923 3.83604 104.239 4.15204 104.471 4.57604C104.703 5.00004 104.819 5.51604 104.819 6.12404V10H103.739V6.28004C103.739 5.62404 103.575 5.12404 103.247 4.78004C102.927 4.42804 102.491 4.25204 101.939 4.25204C101.371 4.25204 100.919 4.43604 100.583 4.80404C100.247 5.16404 100.079 5.68804 100.079 6.37604V10H98.999V6.28004C98.999 5.62404 98.835 5.12404 98.507 4.78004C98.187 4.42804 97.751 4.25204 97.199 4.25204C96.631 4.25204 96.179 4.43604 95.843 4.80404C95.507 5.16404 95.339 5.68804 95.339 6.37604V10H94.247V3.42404H95.339V4.37204C95.555 4.02804 95.843 3.76404 96.203 3.58004C96.571 3.39604 96.975 3.30404 97.415 3.30404C97.967 3.30404 98.455 3.42804 98.879 3.67604C99.303 3.92404 99.619 4.28804 99.827 4.76804C100.011 4.30404 100.315 3.94404 100.739 3.68804C101.163 3.43204 101.635 3.30404 102.155 3.30404Z" fill="#2D2659"/>
<path d="M107.222 4.64804C107.446 4.25604 107.774 3.93604 108.206 3.68804C108.638 3.44004 109.13 3.31604 109.682 3.31604C110.274 3.31604 110.806 3.45604 111.278 3.73604C111.75 4.01604 112.122 4.41204 112.394 4.92404C112.666 5.42804 112.802 6.01604 112.802 6.68804C112.802 7.35204 112.666 7.94404 112.394 8.46404C112.122 8.98404 111.746 9.38804 111.266 9.67604C110.794 9.96404 110.266 10.108 109.682 10.108C109.114 10.108 108.614 9.98404 108.182 9.73604C107.758 9.48804 107.438 9.17204 107.222 8.78804V10H106.13V1.12004H107.222V4.64804ZM111.686 6.68804C111.686 6.19204 111.586 5.76004 111.386 5.39204C111.186 5.02404 110.914 4.74404 110.57 4.55204C110.234 4.36004 109.862 4.26404 109.454 4.26404C109.054 4.26404 108.682 4.36404 108.338 4.56404C108.002 4.75604 107.73 5.04004 107.522 5.41604C107.322 5.78404 107.222 6.21204 107.222 6.70004C107.222 7.19604 107.322 7.63204 107.522 8.00804C107.73 8.37604 108.002 8.66004 108.338 8.86004C108.682 9.05204 109.054 9.14804 109.454 9.14804C109.862 9.14804 110.234 9.05204 110.57 8.86004C110.914 8.66004 111.186 8.37604 111.386 8.00804C111.586 7.63204 111.686 7.19204 111.686 6.68804Z" fill="#2D2659"/>
<path d="M114.852 4.49204C115.044 4.11604 115.316 3.82404 115.668 3.61604C116.028 3.40804 116.464 3.30404 116.976 3.30404V4.43204H116.688C115.464 4.43204 114.852 5.09604 114.852 6.42404V10H113.76V3.42404H114.852V4.49204Z" fill="#2D2659"/>
<path d="M123.756 6.46004C123.756 6.66804 123.744 6.88804 123.72 7.12004H118.464C118.504 7.76804 118.724 8.27604 119.124 8.64404C119.532 9.00404 120.024 9.18404 120.6 9.18404C121.072 9.18404 121.464 9.07604 121.776 8.86004C122.096 8.63604 122.32 8.34004 122.448 7.97204H123.624C123.448 8.60404 123.096 9.12004 122.568 9.52004C122.04 9.91204 121.384 10.108 120.6 10.108C119.976 10.108 119.416 9.96804 118.92 9.68804C118.432 9.40804 118.048 9.01204 117.768 8.50004C117.488 7.98004 117.348 7.38004 117.348 6.70004C117.348 6.02004 117.484 5.42404 117.756 4.91204C118.028 4.40004 118.408 4.00804 118.896 3.73604C119.392 3.45604 119.96 3.31604 120.6 3.31604C121.224 3.31604 121.776 3.45204 122.256 3.72404C122.736 3.99604 123.104 4.37204 123.36 4.85204C123.624 5.32404 123.756 5.86004 123.756 6.46004ZM122.628 6.23204C122.628 5.81604 122.536 5.46004 122.352 5.16404C122.168 4.86004 121.916 4.63204 121.596 4.48004C121.284 4.32004 120.936 4.24004 120.552 4.24004C120 4.24004 119.528 4.41604 119.136 4.76804C118.752 5.12004 118.532 5.60804 118.476 6.23204H122.628Z" fill="#2D2659"/>
<path d="M3.52759 13.636C4.43959 13.636 5.22759 13.808 5.89159 14.152C6.56359 14.488 7.07559 14.972 7.42759 15.604C7.78759 16.236 7.96759 16.98 7.96759 17.836C7.96759 18.692 7.78759 19.436 7.42759 20.068C7.07559 20.692 6.56359 21.172 5.89159 21.508C5.22759 21.836 4.43959 22 3.52759 22H0.923594V13.636H3.52759ZM3.52759 21.1C4.60759 21.1 5.43159 20.816 5.99959 20.248C6.56759 19.672 6.85159 18.868 6.85159 17.836C6.85159 16.796 6.56359 15.984 5.98759 15.4C5.41959 14.816 4.59959 14.524 3.52759 14.524H2.01559V21.1H3.52759Z" fill="#2D2659"/>
<path d="M14.928 18.46C14.928 18.668 14.916 18.888 14.892 19.12H9.63597C9.67597 19.768 9.89597 20.276 10.296 20.644C10.704 21.004 11.196 21.184 11.772 21.184C12.244 21.184 12.636 21.076 12.948 20.86C13.268 20.636 13.492 20.34 13.62 19.972H14.796C14.62 20.604 14.268 21.12 13.74 21.52C13.212 21.912 12.556 22.108 11.772 22.108C11.148 22.108 10.588 21.968 10.092 21.688C9.60397 21.408 9.21997 21.012 8.93997 20.5C8.65997 19.98 8.51997 19.38 8.51997 18.7C8.51997 18.02 8.65597 17.424 8.92797 16.912C9.19997 16.4 9.57997 16.008 10.068 15.736C10.564 15.456 11.132 15.316 11.772 15.316C12.396 15.316 12.948 15.452 13.428 15.724C13.908 15.996 14.276 16.372 14.532 16.852C14.796 17.324 14.928 17.86 14.928 18.46ZM13.8 18.232C13.8 17.816 13.708 17.46 13.524 17.164C13.34 16.86 13.088 16.632 12.768 16.48C12.456 16.32 12.108 16.24 11.724 16.24C11.172 16.24 10.7 16.416 10.308 16.768C9.92397 17.12 9.70397 17.608 9.64797 18.232H13.8Z" fill="#2D2659"/>
<path d="M17.7767 14.8V13.252H20.6687V22H18.9408V14.8H17.7767Z" fill="#2D2659"/>
<path d="M21.7764 20.296V18.976L25.7004 13.36H27.6564V18.832H28.7124V20.296H27.6564V22H25.9764V20.296H21.7764ZM26.0844 15.16L23.6244 18.832H26.0844V15.16Z" fill="#2D2659"/>
<path d="M33.238 15.256C33.742 15.256 34.19 15.368 34.582 15.592C34.974 15.808 35.278 16.132 35.494 16.564C35.718 16.988 35.83 17.5 35.83 18.1V22H34.15V18.328C34.15 17.8 34.018 17.396 33.754 17.116C33.49 16.828 33.13 16.684 32.674 16.684C32.21 16.684 31.842 16.828 31.57 17.116C31.306 17.396 31.174 17.8 31.174 18.328V22H29.494V13.12H31.174V16.18C31.39 15.892 31.678 15.668 32.038 15.508C32.398 15.34 32.798 15.256 33.238 15.256Z" fill="#2D2659"/>
<path d="M36.7796 15.556C36.8196 14.756 37.0996 14.14 37.6196 13.708C38.1476 13.268 38.8396 13.048 39.6956 13.048C40.2796 13.048 40.7796 13.152 41.1956 13.36C41.6116 13.56 41.9236 13.836 42.1316 14.188C42.3476 14.532 42.4556 14.924 42.4556 15.364C42.4556 15.868 42.3236 16.296 42.0596 16.648C41.8036 16.992 41.4956 17.224 41.1356 17.344V17.392C41.5996 17.536 41.9596 17.792 42.2156 18.16C42.4796 18.528 42.6116 19 42.6116 19.576C42.6116 20.056 42.4996 20.484 42.2756 20.86C42.0596 21.236 41.7356 21.532 41.3036 21.748C40.8796 21.956 40.3676 22.06 39.7676 22.06C38.8636 22.06 38.1276 21.832 37.5596 21.376C36.9916 20.92 36.6916 20.248 36.6596 19.36H38.2916C38.3076 19.752 38.4396 20.068 38.6876 20.308C38.9436 20.54 39.2916 20.656 39.7316 20.656C40.1396 20.656 40.4516 20.544 40.6676 20.32C40.8916 20.088 41.0036 19.792 41.0036 19.432C41.0036 18.952 40.8516 18.608 40.5476 18.4C40.2436 18.192 39.7716 18.088 39.1316 18.088H38.7836V16.708H39.1316C40.2676 16.708 40.8356 16.328 40.8356 15.568C40.8356 15.224 40.7316 14.956 40.5236 14.764C40.3236 14.572 40.0316 14.476 39.6476 14.476C39.2716 14.476 38.9796 14.58 38.7716 14.788C38.5716 14.988 38.4556 15.244 38.4236 15.556H36.7796Z" fill="#2D2659"/>
<path d="M43.4592 17.512C43.4592 16.128 43.7072 15.044 44.2032 14.26C44.7072 13.476 45.5392 13.084 46.6992 13.084C47.8592 13.084 48.6872 13.476 49.1832 14.26C49.6872 15.044 49.9392 16.128 49.9392 17.512C49.9392 18.904 49.6872 19.996 49.1832 20.788C48.6872 21.58 47.8592 21.976 46.6992 21.976C45.5392 21.976 44.7072 21.58 44.2032 20.788C43.7072 19.996 43.4592 18.904 43.4592 17.512ZM48.2832 17.512C48.2832 16.92 48.2432 16.424 48.1632 16.024C48.0912 15.616 47.9392 15.284 47.7072 15.028C47.4832 14.772 47.1472 14.644 46.6992 14.644C46.2512 14.644 45.9112 14.772 45.6792 15.028C45.4552 15.284 45.3032 15.616 45.2232 16.024C45.1512 16.424 45.1152 16.92 45.1152 17.512C45.1152 18.12 45.1512 18.632 45.2232 19.048C45.2952 19.456 45.4472 19.788 45.6792 20.044C45.9112 20.292 46.2512 20.416 46.6992 20.416C47.1472 20.416 47.4872 20.292 47.7192 20.044C47.9512 19.788 48.1032 19.456 48.1752 19.048C48.2472 18.632 48.2832 18.12 48.2832 17.512Z" fill="#2D2659"/>
<path d="M52.9964 18.688C52.9964 18.016 53.1324 17.428 53.4044 16.924C53.6764 16.412 54.0484 16.016 54.5204 15.736C55.0004 15.456 55.5324 15.316 56.1164 15.316C56.6924 15.316 57.1924 15.44 57.6164 15.688C58.0404 15.936 58.3564 16.248 58.5644 16.624V15.424H59.6684V22H58.5644V20.776C58.3484 21.16 58.0244 21.48 57.5924 21.736C57.1684 21.984 56.6724 22.108 56.1044 22.108C55.5204 22.108 54.9924 21.964 54.5204 21.676C54.0484 21.388 53.6764 20.984 53.4044 20.464C53.1324 19.944 52.9964 19.352 52.9964 18.688ZM58.5644 18.7C58.5644 18.204 58.4644 17.772 58.2644 17.404C58.0644 17.036 57.7924 16.756 57.4484 16.564C57.1124 16.364 56.7404 16.264 56.3324 16.264C55.9244 16.264 55.5524 16.36 55.2164 16.552C54.8804 16.744 54.6124 17.024 54.4124 17.392C54.2124 17.76 54.1124 18.192 54.1124 18.688C54.1124 19.192 54.2124 19.632 54.4124 20.008C54.6124 20.376 54.8804 20.66 55.2164 20.86C55.5524 21.052 55.9244 21.148 56.3324 21.148C56.7404 21.148 57.1124 21.052 57.4484 20.86C57.7924 20.66 58.0644 20.376 58.2644 20.008C58.4644 19.632 58.5644 19.196 58.5644 18.7ZM57.7124 14.116V14.932L55.1564 13.564V12.616L57.7124 14.116Z" fill="#2D2659"/>
<path d="M62.9211 14.8V13.252H65.8131V22H64.0851V14.8H62.9211Z" fill="#2D2659"/>
<path d="M68.4568 17.368C67.6568 16.952 67.2568 16.308 67.2568 15.436C67.2568 15.004 67.3648 14.612 67.5808 14.26C67.8048 13.9 68.1368 13.616 68.5768 13.408C69.0248 13.192 69.5688 13.084 70.2088 13.084C70.8488 13.084 71.3888 13.192 71.8288 13.408C72.2768 13.616 72.6088 13.9 72.8248 14.26C73.0488 14.612 73.1608 15.004 73.1608 15.436C73.1608 15.876 73.0528 16.264 72.8368 16.6C72.6208 16.928 72.3328 17.184 71.9728 17.368C72.4128 17.56 72.7568 17.84 73.0048 18.208C73.2528 18.576 73.3768 19.012 73.3768 19.516C73.3768 20.06 73.2368 20.536 72.9568 20.944C72.6848 21.344 72.3088 21.652 71.8288 21.868C71.3488 22.084 70.8088 22.192 70.2088 22.192C69.6088 22.192 69.0688 22.084 68.5888 21.868C68.1168 21.652 67.7408 21.344 67.4608 20.944C67.1888 20.536 67.0528 20.06 67.0528 19.516C67.0528 19.012 67.1768 18.576 67.4248 18.208C67.6728 17.832 68.0168 17.552 68.4568 17.368ZM71.5288 15.676C71.5288 15.284 71.4088 14.98 71.1688 14.764C70.9368 14.548 70.6168 14.44 70.2088 14.44C69.8088 14.44 69.4888 14.548 69.2488 14.764C69.0168 14.98 68.9008 15.288 68.9008 15.688C68.9008 16.048 69.0208 16.336 69.2608 16.552C69.5088 16.768 69.8248 16.876 70.2088 16.876C70.5928 16.876 70.9088 16.768 71.1568 16.552C71.4048 16.328 71.5288 16.036 71.5288 15.676ZM70.2088 18.1C69.7528 18.1 69.3808 18.216 69.0928 18.448C68.8128 18.68 68.6728 19.012 68.6728 19.444C68.6728 19.844 68.8088 20.172 69.0808 20.428C69.3608 20.676 69.7368 20.8 70.2088 20.8C70.6808 20.8 71.0528 20.672 71.3248 20.416C71.5968 20.16 71.7328 19.836 71.7328 19.444C71.7328 19.02 71.5928 18.692 71.3128 18.46C71.0328 18.22 70.6648 18.1 70.2088 18.1Z" fill="#2D2659"/>
<path d="M78.1597 15.256C78.6637 15.256 79.1117 15.368 79.5037 15.592C79.8957 15.808 80.1997 16.132 80.4157 16.564C80.6397 16.988 80.7517 17.5 80.7517 18.1V22H79.0717V18.328C79.0717 17.8 78.9397 17.396 78.6757 17.116C78.4117 16.828 78.0517 16.684 77.5957 16.684C77.1317 16.684 76.7637 16.828 76.4917 17.116C76.2277 17.396 76.0957 17.8 76.0957 18.328V22H74.4157V13.12H76.0957V16.18C76.3117 15.892 76.5997 15.668 76.9597 15.508C77.3197 15.34 77.7197 15.256 78.1597 15.256Z" fill="#2D2659"/>
<path d="M81.6773 17.512C81.6773 16.128 81.9253 15.044 82.4213 14.26C82.9253 13.476 83.7573 13.084 84.9173 13.084C86.0773 13.084 86.9053 13.476 87.4013 14.26C87.9053 15.044 88.1573 16.128 88.1573 17.512C88.1573 18.904 87.9053 19.996 87.4013 20.788C86.9053 21.58 86.0773 21.976 84.9173 21.976C83.7573 21.976 82.9253 21.58 82.4213 20.788C81.9253 19.996 81.6773 18.904 81.6773 17.512ZM86.5013 17.512C86.5013 16.92 86.4613 16.424 86.3813 16.024C86.3093 15.616 86.1573 15.284 85.9253 15.028C85.7013 14.772 85.3653 14.644 84.9173 14.644C84.4693 14.644 84.1293 14.772 83.8973 15.028C83.6733 15.284 83.5213 15.616 83.4413 16.024C83.3693 16.424 83.3333 16.92 83.3333 17.512C83.3333 18.12 83.3693 18.632 83.4413 19.048C83.5133 19.456 83.6653 19.788 83.8973 20.044C84.1293 20.292 84.4693 20.416 84.9173 20.416C85.3653 20.416 85.7053 20.292 85.9373 20.044C86.1693 19.788 86.3213 19.456 86.3933 19.048C86.4653 18.632 86.5013 18.12 86.5013 17.512Z" fill="#2D2659"/>
<path d="M88.9551 17.512C88.9551 16.128 89.2031 15.044 89.6991 14.26C90.2031 13.476 91.0351 13.084 92.1951 13.084C93.3551 13.084 94.1831 13.476 94.6791 14.26C95.1831 15.044 95.4351 16.128 95.4351 17.512C95.4351 18.904 95.1831 19.996 94.6791 20.788C94.1831 21.58 93.3551 21.976 92.1951 21.976C91.0351 21.976 90.2031 21.58 89.6991 20.788C89.2031 19.996 88.9551 18.904 88.9551 17.512ZM93.7791 17.512C93.7791 16.92 93.7391 16.424 93.6591 16.024C93.5871 15.616 93.4351 15.284 93.2031 15.028C92.9791 14.772 92.6431 14.644 92.1951 14.644C91.7471 14.644 91.4071 14.772 91.1751 15.028C90.9511 15.284 90.7991 15.616 90.7191 16.024C90.6471 16.424 90.6111 16.92 90.6111 17.512C90.6111 18.12 90.6471 18.632 90.7191 19.048C90.7911 19.456 90.9431 19.788 91.1751 20.044C91.4071 20.292 91.7471 20.416 92.1951 20.416C92.6431 20.416 92.9831 20.292 93.2151 20.044C93.4471 19.788 93.5991 19.456 93.6711 19.048C93.7431 18.632 93.7791 18.12 93.7791 17.512Z" fill="#2D2659"/>
<path d="M104.636 16.144C104.444 15.792 104.18 15.524 103.844 15.34C103.508 15.156 103.116 15.064 102.668 15.064C102.172 15.064 101.732 15.176 101.348 15.4C100.964 15.624 100.664 15.944 100.448 16.36C100.232 16.776 100.124 17.256 100.124 17.8C100.124 18.36 100.232 18.848 100.448 19.264C100.672 19.68 100.98 20 101.372 20.224C101.764 20.448 102.22 20.56 102.74 20.56C103.38 20.56 103.904 20.392 104.312 20.056C104.72 19.712 104.988 19.236 105.116 18.628H102.236V17.344H106.772V18.808C106.66 19.392 106.42 19.932 106.052 20.428C105.684 20.924 105.208 21.324 104.624 21.628C104.048 21.924 103.4 22.072 102.68 22.072C101.872 22.072 101.14 21.892 100.484 21.532C99.8363 21.164 99.3243 20.656 98.9483 20.008C98.5803 19.36 98.3963 18.624 98.3963 17.8C98.3963 16.976 98.5803 16.24 98.9483 15.592C99.3243 14.936 99.8363 14.428 100.484 14.068C101.14 13.7 101.868 13.516 102.668 13.516C103.612 13.516 104.432 13.748 105.128 14.212C105.824 14.668 106.304 15.312 106.568 16.144H104.636Z" fill="#2D2659"/>
<path d="M109.215 16.384C109.431 16.032 109.711 15.756 110.055 15.556C110.407 15.356 110.807 15.256 111.255 15.256V17.02H110.811C110.283 17.02 109.883 17.144 109.611 17.392C109.347 17.64 109.215 18.072 109.215 18.688V22H107.535V15.352H109.215V16.384Z" fill="#2D2659"/>
<path d="M111.475 18.652C111.475 17.98 111.607 17.384 111.871 16.864C112.143 16.344 112.507 15.944 112.963 15.664C113.427 15.384 113.943 15.244 114.511 15.244C115.007 15.244 115.439 15.344 115.807 15.544C116.183 15.744 116.483 15.996 116.707 16.3V15.352H118.399V22H116.707V21.028C116.491 21.34 116.191 21.6 115.807 21.808C115.431 22.008 114.995 22.108 114.499 22.108C113.939 22.108 113.427 21.964 112.963 21.676C112.507 21.388 112.143 20.984 111.871 20.464C111.607 19.936 111.475 19.332 111.475 18.652ZM116.707 18.676C116.707 18.268 116.627 17.92 116.467 17.632C116.307 17.336 116.091 17.112 115.819 16.96C115.547 16.8 115.255 16.72 114.943 16.72C114.631 16.72 114.343 16.796 114.079 16.948C113.815 17.1 113.599 17.324 113.431 17.62C113.271 17.908 113.191 18.252 113.191 18.652C113.191 19.052 113.271 19.404 113.431 19.708C113.599 20.004 113.815 20.232 114.079 20.392C114.351 20.552 114.639 20.632 114.943 20.632C115.255 20.632 115.547 20.556 115.819 20.404C116.091 20.244 116.307 20.02 116.467 19.732C116.627 19.436 116.707 19.084 116.707 18.676Z" fill="#2D2659"/>
<path d="M121.516 16.732V19.948C121.516 20.172 121.568 20.336 121.672 20.44C121.784 20.536 121.968 20.584 122.224 20.584H123.004V22H121.948C120.532 22 119.824 21.312 119.824 19.936V16.732H119.032V15.352H119.824V13.708H121.516V15.352H123.004V16.732H121.516Z" fill="#2D2659"/>
<path d="M130.008 15.352V22H128.316V21.16C128.1 21.448 127.816 21.676 127.464 21.844C127.12 22.004 126.744 22.084 126.336 22.084C125.816 22.084 125.356 21.976 124.956 21.76C124.556 21.536 124.24 21.212 124.008 20.788C123.784 20.356 123.672 19.844 123.672 19.252V15.352H125.352V19.012C125.352 19.54 125.484 19.948 125.748 20.236C126.012 20.516 126.372 20.656 126.828 20.656C127.292 20.656 127.656 20.516 127.92 20.236C128.184 19.948 128.316 19.54 128.316 19.012V15.352H130.008Z" fill="#2D2659"/>
<path d="M132.038 14.56C131.742 14.56 131.494 14.468 131.294 14.284C131.102 14.092 131.006 13.856 131.006 13.576C131.006 13.296 131.102 13.064 131.294 12.88C131.494 12.688 131.742 12.592 132.038 12.592C132.334 12.592 132.578 12.688 132.77 12.88C132.97 13.064 133.07 13.296 133.07 13.576C133.07 13.856 132.97 14.092 132.77 14.284C132.578 14.468 132.334 14.56 132.038 14.56ZM132.866 15.352V22H131.186V15.352H132.866Z" fill="#2D2659"/>
<path d="M136.001 16.732V19.948C136.001 20.172 136.053 20.336 136.157 20.44C136.269 20.536 136.453 20.584 136.709 20.584H137.489V22H136.433C135.017 22 134.309 21.312 134.309 19.936V16.732H133.517V15.352H134.309V13.708H136.001V15.352H137.489V16.732H136.001Z" fill="#2D2659"/>
</svg>
